solid Untitled
facet normal 0.0 0.0 -1.0
  outer loop
    vertex 90.4286220071256 108.13330234197282 0.0
    vertex 92.42862200712558 106.13330234197282 0.0
    vertex 90.4286220071256 85.13330234197282 0.0
  endloop
endfacet
facet normal 0.0 0.0 -1.0
  outer loop
    vertex 92.42862200712558 106.13330234197282 0.0
    vertex 90.4286220071256 108.13330234197282 0.0
    vertex 113.42862200712557 108.13330234197282 0.0
  endloop
endfacet
facet normal 0.0 0.0 -1.0
  outer loop
    vertex 92.42862200712558 106.13330234197282 0.0
    vertex 113.42862200712557 108.13330234197282 0.0
    vertex 111.42862200712557 106.13330234197282 0.0
  endloop
endfacet
facet normal 0.0 0.0 -1.0
  outer loop
    vertex 111.42862200712557 106.13330234197282 0.0
    vertex 113.42862200712557 108.13330234197282 0.0
    vertex 111.42862200712557 87.13330234197282 0.0
  endloop
endfacet
facet normal 0.0 0.0 -1.0
  outer loop
    vertex 90.4286220071256 85.13330234197282 0.0
    vertex 92.42862200712558 87.13330234197282 0.0
    vertex 113.42862200712557 85.13330234197282 0.0
  endloop
endfacet
facet normal 0.0 0.0 -1.0
  outer loop
    vertex 92.42862200712558 87.13330234197282 0.0
    vertex 90.4286220071256 85.13330234197282 0.0
    vertex 92.42862200712558 106.13330234197282 0.0
  endloop
endfacet
facet normal 0.0 0.0 -1.0
  outer loop
    vertex 113.42862200712557 85.13330234197282 0.0
    vertex 92.42862200712558 87.13330234197282 0.0
    vertex 111.42862200712557 87.13330234197282 0.0
  endloop
endfacet
facet normal 0.0 0.0 -1.0
  outer loop
    vertex 113.42862200712557 85.13330234197282 0.0
    vertex 111.42862200712557 87.13330234197282 0.0
    vertex 113.42862200712557 108.13330234197282 0.0
  endloop
endfacet
facet normal -0.0 -1.0 -0.0
  outer loop
    vertex 113.42862200712557 85.13330234197282 7.0
    vertex 90.4286220071256 85.13330234197282 0.0
    vertex 113.42862200712557 85.13330234197282 0.0
  endloop
endfacet
facet normal -0.0 -1.0 -0.0
  outer loop
    vertex 90.4286220071256 85.13330234197282 0.0
    vertex 113.42862200712557 85.13330234197282 7.0
    vertex 90.4286220071256 85.13330234197282 7.0
  endloop
endfacet
facet normal -1.0 -1.8668137206972233e-35 4.464059509243603e-18
  outer loop
    vertex 90.4286220071256 108.13330234197282 7.0
    vertex 90.4286220071256 106.13330234197282 4.024999000000007
    vertex 90.4286220071256 106.13330234197282 7.0
  endloop
endfacet
facet normal -1.0 -1.8668137206972233e-35 4.464059509243603e-18
  outer loop
    vertex 90.4286220071256 106.13330234197282 4.024999000000007
    vertex 90.4286220071256 108.13330234197282 7.0
    vertex 90.4286220071256 106.13330234197282 2.0249990000000073
  endloop
endfacet
facet normal -1.0 -1.8668137206972233e-35 4.464059509243603e-18
  outer loop
    vertex 90.4286220071256 87.13330234197282 7.0
    vertex 90.4286220071256 85.13330234197282 0.0
    vertex 90.4286220071256 85.13330234197282 7.0
  endloop
endfacet
facet normal -1.0 -1.8668137206972233e-35 4.464059509243603e-18
  outer loop
    vertex 90.4286220071256 85.13330234197282 0.0
    vertex 90.4286220071256 87.13330234197282 7.0
    vertex 90.4286220071256 87.13330234197282 2.0249990000000073
  endloop
endfacet
facet normal -1.0 -1.8668137206972233e-35 4.464059509243603e-18
  outer loop
    vertex 90.4286220071256 85.13330234197282 0.0
    vertex 90.4286220071256 87.13330234197282 2.0249990000000073
    vertex 90.4286220071256 108.13330234197282 0.0
  endloop
endfacet
facet normal -1.0 -1.8668137206972233e-35 4.464059509243603e-18
  outer loop
    vertex 90.4286220071256 87.13330234197282 2.0249990000000073
    vertex 90.4286220071256 87.13330234197282 7.0
    vertex 90.4286220071256 87.13330234197282 4.024999000000007
  endloop
endfacet
facet normal -1.0 -1.8668137206972233e-35 4.464059509243603e-18
  outer loop
    vertex 90.4286220071256 108.13330234197282 0.0
    vertex 90.4286220071256 87.13330234197282 2.0249990000000073
    vertex 90.4286220071256 106.13330234197282 2.0249990000000073
  endloop
endfacet
facet normal -1.0 -1.8668137206972233e-35 4.464059509243603e-18
  outer loop
    vertex 90.4286220071256 108.13330234197282 0.0
    vertex 90.4286220071256 106.13330234197282 2.0249990000000073
    vertex 90.4286220071256 108.13330234197282 7.0
  endloop
endfacet
facet normal -0.0 1.0 0.0
  outer loop
    vertex 90.4286220071256 108.13330234197282 7.0
    vertex 113.42862200712557 108.13330234197282 0.0
    vertex 90.4286220071256 108.13330234197282 0.0
  endloop
endfacet
facet normal -0.0 1.0 0.0
  outer loop
    vertex 113.42862200712557 108.13330234197282 0.0
    vertex 90.4286220071256 108.13330234197282 7.0
    vertex 113.42862200712557 108.13330234197282 7.0
  endloop
endfacet
facet normal 0.9999999999491609 -4.168198333825865e-21 1.0083562870251844e-05
  outer loop
    vertex 113.42862200712557 85.13330234197282 0.0
    vertex 113.42862200712557 87.13330234197282 2.040668
    vertex 113.42862200712557 85.13330234197282 7.0
  endloop
endfacet
facet normal 0.9999999999491609 -4.168198333825865e-21 1.0083562870251844e-05
  outer loop
    vertex 113.42862200712557 87.13330234197282 2.040668
    vertex 113.42862200712557 85.13330234197282 0.0
    vertex 113.42862200712557 108.13330234197282 0.0
  endloop
endfacet
facet normal 0.9999999999491609 -4.168198333825865e-21 1.0083562870251844e-05
  outer loop
    vertex 113.42862200712557 87.13330234197282 2.040668
    vertex 113.42862200712557 108.13330234197282 0.0
    vertex 113.42862200712557 106.13330234197282 2.040668
  endloop
endfacet
facet normal 0.9999999999491609 -4.168198333825865e-21 1.0083562870251844e-05
  outer loop
    vertex 113.42862200712557 106.13330234197282 2.040668
    vertex 113.42862200712557 108.13330234197282 0.0
    vertex 113.41295348798026 106.13330234197282 4.0406066234351785
  endloop
endfacet
facet normal 0.9999999999491609 -4.168198333825865e-21 1.0083562870251844e-05
  outer loop
    vertex 113.41295348798026 106.13330234197282 4.0406066234351785
    vertex 113.42862200712557 108.13330234197282 0.0
    vertex 113.42862200712557 106.13330234197282 7.0
  endloop
endfacet
facet normal 0.9999999999491609 -4.168198333825865e-21 1.0083562870251844e-05
  outer loop
    vertex 113.42862200712557 106.13330234197282 7.0
    vertex 113.42862200712557 108.13330234197282 0.0
    vertex 113.42862200712557 108.13330234197282 7.0
  endloop
endfacet
facet normal 0.9999999999491609 -4.168198333825865e-21 1.0083562870251844e-05
  outer loop
    vertex 113.42862200712557 87.13330234197282 2.040668
    vertex 113.42862200712557 87.13330234197282 7.0
    vertex 113.42862200712557 85.13330234197282 7.0
  endloop
endfacet
facet normal 0.9999999999491609 -4.168198333825865e-21 1.0083562870251844e-05
  outer loop
    vertex 113.42862200712557 87.13330234197282 7.0
    vertex 113.42862200712557 87.13330234197282 2.040668
    vertex 113.41295348798026 87.13330234197282 4.0406066234351785
  endloop
endfacet
facet normal -0.0 1.0 -0.0
  outer loop
    vertex 92.4286220071256 87.13330234197282 4.024998999999999
    vertex 111.42862200712557 87.13330234197282 2.0249989999999998
    vertex 92.42862200712558 87.13330234197282 2.0249989999999998
  endloop
endfacet
facet normal -0.0 1.0 -0.0
  outer loop
    vertex 111.42862200712557 87.13330234197282 2.0249989999999998
    vertex 92.4286220071256 87.13330234197282 4.024998999999999
    vertex 111.41295348798027 87.13330234197282 4.024937623435178
  endloop
endfacet
facet normal -0.0 1.0 -0.0
  outer loop
    vertex 111.41295348798027 87.13330234197282 4.024937623435178
    vertex 92.4286220071256 87.13330234197282 4.024998999999999
    vertex 111.42862200712557 87.13330234197282 7.0
  endloop
endfacet
facet normal -0.0 1.0 -0.0
  outer loop
    vertex 111.42862200712557 87.13330234197282 7.0
    vertex 92.4286220071256 87.13330234197282 4.024998999999999
    vertex 92.42862200712558 87.13330234197282 7.0
  endloop
endfacet
facet normal 0.0 -1.0 0.0
  outer loop
    vertex 111.41295348798027 106.13330234197282 4.024937623435178
    vertex 92.42862200712558 106.13330234197282 2.0249989999999998
    vertex 111.42862200712557 106.13330234197282 2.0249989999999998
  endloop
endfacet
facet normal 0.0 -1.0 0.0
  outer loop
    vertex 92.42862200712558 106.13330234197282 2.0249989999999998
    vertex 111.41295348798027 106.13330234197282 4.024937623435178
    vertex 92.4286220071256 106.13330234197282 4.024998999999999
  endloop
endfacet
facet normal 0.0 -1.0 0.0
  outer loop
    vertex 92.4286220071256 106.13330234197282 4.024998999999999
    vertex 111.41295348798027 106.13330234197282 4.024937623435178
    vertex 111.42862200712557 106.13330234197282 7.0
  endloop
endfacet
facet normal 0.0 -1.0 0.0
  outer loop
    vertex 92.4286220071256 106.13330234197282 4.024998999999999
    vertex 111.42862200712557 106.13330234197282 7.0
    vertex 92.42862200712558 106.13330234197282 7.0
  endloop
endfacet
facet normal -1.0 0.0 0.0
  outer loop
    vertex 60.41393789305571 110.33582936376742 1.9999999999999998
    vertex 60.41393789305571 91.33582936376743 0.0
    vertex 60.41393789305571 91.33582936376743 1.9999999999999998
  endloop
endfacet
facet normal -1.0 0.0 0.0
  outer loop
    vertex 60.41393789305571 91.33582936376743 0.0
    vertex 60.41393789305571 110.33582936376742 1.9999999999999998
    vertex 60.41393789305571 110.33582936376742 0.0
  endloop
endfacet
facet normal -0.0 1.0 0.0
  outer loop
    vertex 60.41393789305571 110.33582936376742 1.9999999999999998
    vertex 79.4139378930557 110.33582936376742 0.0
    vertex 60.41393789305571 110.33582936376742 0.0
  endloop
endfacet
facet normal -0.0 1.0 0.0
  outer loop
    vertex 79.4139378930557 110.33582936376742 0.0
    vertex 60.41393789305571 110.33582936376742 1.9999999999999998
    vertex 79.4139378930557 110.33582936376742 1.9999999999999998
  endloop
endfacet
facet normal 1.0 0.0 0.0
  outer loop
    vertex 79.4139378930557 110.33582936376742 0.0
    vertex 79.4139378930557 91.33582936376743 1.9999999999999998
    vertex 79.4139378930557 91.33582936376743 0.0
  endloop
endfacet
facet normal 1.0 0.0 0.0
  outer loop
    vertex 79.4139378930557 91.33582936376743 1.9999999999999998
    vertex 79.4139378930557 110.33582936376742 0.0
    vertex 79.4139378930557 110.33582936376742 1.9999999999999998
  endloop
endfacet
facet normal -0.0 -1.0 -0.0
  outer loop
    vertex 79.4139378930557 91.33582936376743 1.9999999999999998
    vertex 60.41393789305571 91.33582936376743 0.0
    vertex 79.4139378930557 91.33582936376743 0.0
  endloop
endfacet
facet normal -0.0 -1.0 -0.0
  outer loop
    vertex 60.41393789305571 91.33582936376743 0.0
    vertex 79.4139378930557 91.33582936376743 1.9999999999999998
    vertex 60.41393789305571 91.33582936376743 1.9999999999999998
  endloop
endfacet
facet normal -0.0 -0.0 1.0
  outer loop
    vertex 92.42862200712558 106.13330234197282 7.0
    vertex 90.4286220071256 108.13330234197282 7.0
    vertex 90.4286220071256 106.13330234197282 7.0
  endloop
endfacet
facet normal -0.0 -0.0 1.0
  outer loop
    vertex 90.4286220071256 108.13330234197282 7.0
    vertex 92.42862200712558 106.13330234197282 7.0
    vertex 113.42862200712557 108.13330234197282 7.0
  endloop
endfacet
facet normal -0.0 -0.0 1.0
  outer loop
    vertex 113.42862200712557 108.13330234197282 7.0
    vertex 92.42862200712558 106.13330234197282 7.0
    vertex 111.42862200712557 106.13330234197282 7.0
  endloop
endfacet
facet normal -0.0 -0.0 1.0
  outer loop
    vertex 113.42862200712557 108.13330234197282 7.0
    vertex 111.42862200712557 106.13330234197282 7.0
    vertex 113.42862200712557 106.13330234197282 7.0
  endloop
endfacet
facet normal 1.0 -0.0 -0.0
  outer loop
    vertex 92.42862200712558 106.13330234197282 0.0
    vertex 92.42862200712558 87.13330234197282 2.0249989999999998
    vertex 92.42862200712558 87.13330234197282 0.0
  endloop
endfacet
facet normal 1.0 -0.0 -0.0
  outer loop
    vertex 92.42862200712558 87.13330234197282 2.0249989999999998
    vertex 92.42862200712558 106.13330234197282 0.0
    vertex 92.42862200712558 106.13330234197282 2.0249989999999998
  endloop
endfacet
facet normal 0.0 -1.0 0.0
  outer loop
    vertex 111.42862200712557 106.13330234197282 2.0249989999999998
    vertex 92.42862200712558 106.13330234197282 0.0
    vertex 111.42862200712557 106.13330234197282 0.0
  endloop
endfacet
facet normal 0.0 -1.0 0.0
  outer loop
    vertex 92.42862200712558 106.13330234197282 0.0
    vertex 111.42862200712557 106.13330234197282 2.0249989999999998
    vertex 92.42862200712558 106.13330234197282 2.0249989999999998
  endloop
endfacet
facet normal -0.0 1.0 -0.0
  outer loop
    vertex 92.42862200712558 87.13330234197282 2.0249989999999998
    vertex 111.42862200712557 87.13330234197282 0.0
    vertex 92.42862200712558 87.13330234197282 0.0
  endloop
endfacet
facet normal -0.0 1.0 -0.0
  outer loop
    vertex 111.42862200712557 87.13330234197282 0.0
    vertex 92.42862200712558 87.13330234197282 2.0249989999999998
    vertex 111.42862200712557 87.13330234197282 2.0249989999999998
  endloop
endfacet
facet normal -0.0 1.0 -0.0
  outer loop
    vertex 90.4286220071256 87.13330234197282 4.024999000000007
    vertex 92.42862200712558 87.13330234197282 7.0
    vertex 92.4286220071256 87.13330234197282 4.024998999999999
  endloop
endfacet
facet normal -0.0 1.0 -0.0
  outer loop
    vertex 92.42862200712558 87.13330234197282 7.0
    vertex 90.4286220071256 87.13330234197282 4.024999000000007
    vertex 90.4286220071256 87.13330234197282 7.0
  endloop
endfacet
facet normal 0.0 -1.0 0.0
  outer loop
    vertex 92.42862200712558 106.13330234197282 7.0
    vertex 90.4286220071256 106.13330234197282 4.024999000000007
    vertex 92.4286220071256 106.13330234197282 4.024998999999999
  endloop
endfacet
facet normal 0.0 -1.0 0.0
  outer loop
    vertex 90.4286220071256 106.13330234197282 4.024999000000007
    vertex 92.42862200712558 106.13330234197282 7.0
    vertex 90.4286220071256 106.13330234197282 7.0
  endloop
endfacet
facet normal -0.0 -0.0 1.0
  outer loop
    vertex 113.42862200712557 85.13330234197282 7.0
    vertex 90.4286220071256 87.13330234197282 7.0
    vertex 90.4286220071256 85.13330234197282 7.0
  endloop
endfacet
facet normal -0.0 -0.0 1.0
  outer loop
    vertex 90.4286220071256 87.13330234197282 7.0
    vertex 113.42862200712557 85.13330234197282 7.0
    vertex 92.42862200712558 87.13330234197282 7.0
  endloop
endfacet
facet normal -0.0 -0.0 1.0
  outer loop
    vertex 92.42862200712558 87.13330234197282 7.0
    vertex 113.42862200712557 85.13330234197282 7.0
    vertex 111.42862200712557 87.13330234197282 7.0
  endloop
endfacet
facet normal -0.0 -0.0 1.0
  outer loop
    vertex 111.42862200712557 87.13330234197282 7.0
    vertex 113.42862200712557 85.13330234197282 7.0
    vertex 113.42862200712557 87.13330234197282 7.0
  endloop
endfacet
facet normal -0.0 1.0 -0.0
  outer loop
    vertex 111.42862200712557 87.13330234197282 7.0
    vertex 113.41295348798026 87.13330234197282 4.0406066234351785
    vertex 111.41295348798027 87.13330234197282 4.024937623435178
  endloop
endfacet
facet normal -0.0 1.0 -0.0
  outer loop
    vertex 113.41295348798026 87.13330234197282 4.0406066234351785
    vertex 111.42862200712557 87.13330234197282 7.0
    vertex 113.42862200712557 87.13330234197282 7.0
  endloop
endfacet
facet normal 0.0 -1.0 0.0
  outer loop
    vertex 113.41295348798026 106.13330234197282 4.0406066234351785
    vertex 111.42862200712557 106.13330234197282 7.0
    vertex 111.41295348798027 106.13330234197282 4.024937623435178
  endloop
endfacet
facet normal 0.0 -1.0 0.0
  outer loop
    vertex 111.42862200712557 106.13330234197282 7.0
    vertex 113.41295348798026 106.13330234197282 4.0406066234351785
    vertex 113.42862200712557 106.13330234197282 7.0
  endloop
endfacet
facet normal 0.999969311717589 7.048834945593571e-31 0.00783425957265207
  outer loop
    vertex 113.42862200712557 106.13330234197282 2.040668
    vertex 113.41295348798026 87.13330234197282 4.0406066234351785
    vertex 113.42862200712557 87.13330234197282 2.040668
  endloop
endfacet
facet normal 0.999969311717589 7.048834945593571e-31 0.00783425957265207
  outer loop
    vertex 113.41295348798026 87.13330234197282 4.0406066234351785
    vertex 113.42862200712557 106.13330234197282 2.040668
    vertex 113.41295348798026 106.13330234197282 4.0406066234351785
  endloop
endfacet
facet normal 0.0 -1.0 0.0
  outer loop
    vertex 113.42862200712557 106.13330234197282 2.040668
    vertex 111.41295348798027 106.13330234197282 4.024937623435178
    vertex 111.42862200712557 106.13330234197282 2.0249989999999998
  endloop
endfacet
facet normal 0.0 -1.0 0.0
  outer loop
    vertex 111.41295348798027 106.13330234197282 4.024937623435178
    vertex 113.42862200712557 106.13330234197282 2.040668
    vertex 113.41295348798026 106.13330234197282 4.0406066234351785
  endloop
endfacet
facet normal -0.0 1.0 -0.0
  outer loop
    vertex 111.41295348798027 87.13330234197282 4.024937623435178
    vertex 113.42862200712557 87.13330234197282 2.040668
    vertex 111.42862200712557 87.13330234197282 2.0249989999999998
  endloop
endfacet
facet normal -0.0 1.0 -0.0
  outer loop
    vertex 113.42862200712557 87.13330234197282 2.040668
    vertex 111.41295348798027 87.13330234197282 4.024937623435178
    vertex 113.41295348798026 87.13330234197282 4.0406066234351785
  endloop
endfacet
facet normal -3.877453913503367e-15 0.0 -1.0
  outer loop
    vertex 92.4286220071256 106.13330234197282 4.024998999999999
    vertex 90.4286220071256 87.13330234197282 4.024999000000007
    vertex 90.4286220071256 106.13330234197282 4.024999000000007
  endloop
endfacet
facet normal -3.877453913503367e-15 0.0 -1.0
  outer loop
    vertex 90.4286220071256 87.13330234197282 4.024999000000007
    vertex 92.4286220071256 106.13330234197282 4.024998999999999
    vertex 92.4286220071256 87.13330234197282 4.024998999999999
  endloop
endfacet
facet normal -0.007834259572651736 -0.0 0.999969311717589
  outer loop
    vertex 113.41295348798026 87.13330234197282 4.0406066234351785
    vertex 111.41295348798027 106.13330234197282 4.024937623435178
    vertex 111.41295348798027 87.13330234197282 4.024937623435178
  endloop
endfacet
facet normal -0.007834259572651736 -0.0 0.999969311717589
  outer loop
    vertex 111.41295348798027 106.13330234197282 4.024937623435178
    vertex 113.41295348798026 87.13330234197282 4.0406066234351785
    vertex 113.41295348798026 106.13330234197282 4.0406066234351785
  endloop
endfacet
facet normal -0.0 1.0 -0.0
  outer loop
    vertex 90.4286220071256 87.13330234197282 2.0249990000000073
    vertex 92.4286220071256 87.13330234197282 4.024998999999999
    vertex 92.42862200712558 87.13330234197282 2.0249989999999998
  endloop
endfacet
facet normal -0.0 1.0 -0.0
  outer loop
    vertex 92.4286220071256 87.13330234197282 4.024998999999999
    vertex 90.4286220071256 87.13330234197282 2.0249990000000073
    vertex 90.4286220071256 87.13330234197282 4.024999000000007
  endloop
endfacet
facet normal -1.0 1.242380519498382e-46 5.639932965095796e-15
  outer loop
    vertex 90.4286220071256 106.13330234197282 4.024999000000007
    vertex 90.4286220071256 87.13330234197282 2.0249990000000073
    vertex 90.4286220071256 87.13330234197282 4.024999000000007
  endloop
endfacet
facet normal -1.0 1.242380519498382e-46 5.639932965095796e-15
  outer loop
    vertex 90.4286220071256 87.13330234197282 2.0249990000000073
    vertex 90.4286220071256 106.13330234197282 4.024999000000007
    vertex 90.4286220071256 106.13330234197282 2.0249990000000073
  endloop
endfacet
facet normal 1.0 6.211902597491911e-47 -5.6399329650957965e-15
  outer loop
    vertex 92.42862200712558 106.13330234197282 2.0249989999999998
    vertex 92.4286220071256 87.13330234197282 4.024998999999999
    vertex 92.42862200712558 87.13330234197282 2.0249989999999998
  endloop
endfacet
facet normal 1.0 6.211902597491911e-47 -5.6399329650957965e-15
  outer loop
    vertex 92.4286220071256 87.13330234197282 4.024998999999999
    vertex 92.42862200712558 106.13330234197282 2.0249989999999998
    vertex 92.4286220071256 106.13330234197282 4.024998999999999
  endloop
endfacet
facet normal 0.0 -1.0 0.0
  outer loop
    vertex 92.4286220071256 106.13330234197282 4.024998999999999
    vertex 90.4286220071256 106.13330234197282 2.0249990000000073
    vertex 92.42862200712558 106.13330234197282 2.0249989999999998
  endloop
endfacet
facet normal 0.0 -1.0 0.0
  outer loop
    vertex 90.4286220071256 106.13330234197282 2.0249990000000073
    vertex 92.4286220071256 106.13330234197282 4.024998999999999
    vertex 90.4286220071256 106.13330234197282 4.024999000000007
  endloop
endfacet
facet normal 0.0 0.0 -1.0
  outer loop
    vertex 79.4139378930557 110.33582936376742 0.0
    vertex 60.41393789305571 91.33582936376743 0.0
    vertex 60.41393789305571 110.33582936376742 0.0
  endloop
endfacet
facet normal 0.0 0.0 -1.0
  outer loop
    vertex 60.41393789305571 91.33582936376743 0.0
    vertex 79.4139378930557 110.33582936376742 0.0
    vertex 79.4139378930557 91.33582936376743 0.0
  endloop
endfacet
facet normal -0.0 -0.0 1.0
  outer loop
    vertex 79.4139378930557 91.33582936376743 1.9999999999999998
    vertex 60.41393789305571 110.33582936376742 1.9999999999999998
    vertex 60.41393789305571 91.33582936376743 1.9999999999999998
  endloop
endfacet
facet normal -0.0 -0.0 1.0
  outer loop
    vertex 60.41393789305571 110.33582936376742 1.9999999999999998
    vertex 79.4139378930557 91.33582936376743 1.9999999999999998
    vertex 79.4139378930557 110.33582936376742 1.9999999999999998
  endloop
endfacet
facet normal 0.0 0.0 -1.0
  outer loop
    vertex 111.42862200712557 106.13330234197282 0.0
    vertex 92.42862200712558 87.13330234197282 0.0
    vertex 92.42862200712558 106.13330234197282 0.0
  endloop
endfacet
facet normal 0.0 0.0 -1.0
  outer loop
    vertex 92.42862200712558 87.13330234197282 0.0
    vertex 111.42862200712557 106.13330234197282 0.0
    vertex 111.42862200712557 87.13330234197282 0.0
  endloop
endfacet
facet normal -0.0 -0.0 1.0
  outer loop
    vertex 111.42862200712557 87.13330234197282 2.0249989999999998
    vertex 92.42862200712558 106.13330234197282 2.0249989999999998
    vertex 92.42862200712558 87.13330234197282 2.0249989999999998
  endloop
endfacet
facet normal -0.0 -0.0 1.0
  outer loop
    vertex 92.42862200712558 106.13330234197282 2.0249989999999998
    vertex 111.42862200712557 87.13330234197282 2.0249989999999998
    vertex 111.42862200712557 106.13330234197282 2.0249989999999998
  endloop
endfacet
facet normal 3.7012060083441226e-15 1.1014142607608811e-32 1.0
  outer loop
    vertex 92.42862200712558 87.13330234197282 2.0249989999999998
    vertex 90.4286220071256 106.13330234197282 2.0249990000000073
    vertex 90.4286220071256 87.13330234197282 2.0249990000000073
  endloop
endfacet
facet normal 3.7012060083441226e-15 1.1014142607608811e-32 1.0
  outer loop
    vertex 90.4286220071256 106.13330234197282 2.0249990000000073
    vertex 92.42862200712558 87.13330234197282 2.0249989999999998
    vertex 92.42862200712558 106.13330234197282 2.0249989999999998
  endloop
endfacet
facet normal -0.999969311717589 -7.049697822115154e-31 -0.00783425957265207
  outer loop
    vertex 111.41295348798027 106.13330234197282 4.024937623435178
    vertex 111.42862200712557 87.13330234197282 2.0249989999999998
    vertex 111.41295348798027 87.13330234197282 4.024937623435178
  endloop
endfacet
facet normal -0.999969311717589 -7.049697822115154e-31 -0.00783425957265207
  outer loop
    vertex 111.42862200712557 87.13330234197282 2.0249989999999998
    vertex 111.41295348798027 106.13330234197282 4.024937623435178
    vertex 111.42862200712557 106.13330234197282 2.0249989999999998
  endloop
endfacet
facet normal -1.0 0.0 0.0
  outer loop
    vertex 111.42862200712557 106.13330234197282 2.0249989999999998
    vertex 111.42862200712557 87.13330234197282 0.0
    vertex 111.42862200712557 87.13330234197282 2.0249989999999998
  endloop
endfacet
facet normal -1.0 0.0 0.0
  outer loop
    vertex 111.42862200712557 87.13330234197282 0.0
    vertex 111.42862200712557 106.13330234197282 2.0249989999999998
    vertex 111.42862200712557 106.13330234197282 0.0
  endloop
endfacet
facet normal -0.007834259572651561 -2.4219612452970046e-20 0.999969311717589
  outer loop
    vertex 113.42862200712557 87.13330234197282 2.040668
    vertex 111.42862200712557 106.13330234197282 2.0249989999999998
    vertex 111.42862200712557 87.13330234197282 2.0249989999999998
  endloop
endfacet
facet normal -0.007834259572651561 -2.4219612452970046e-20 0.999969311717589
  outer loop
    vertex 111.42862200712557 106.13330234197282 2.0249989999999998
    vertex 113.42862200712557 87.13330234197282 2.040668
    vertex 113.42862200712557 106.13330234197282 2.040668
  endloop
endfacet
endsolid Untitled
