solid Untitled
facet normal -0.0 1.0 -0.0
  outer loop
    vertex 66.19772108653757 106.12790893100237 1.960929962345503
    vertex 85.19772108653757 106.12790893100237 0.26092996234550214
    vertex 66.19772108653757 106.12790893100237 0.26092996234550214
  endloop
endfacet
facet normal -0.0 1.0 -0.0
  outer loop
    vertex 85.19772108653757 106.12790893100237 0.26092996234550214
    vertex 66.19772108653757 106.12790893100237 1.960929962345503
    vertex 85.19772108653757 106.12790893100237 1.960929962345503
  endloop
endfacet
facet normal -0.0 1.0 -0.0
  outer loop
    vertex 85.19772108653757 106.12790893100237 1.960929962345503
    vertex 66.19772108653757 106.12790893100237 1.960929962345503
    vertex 66.49772108653758 106.12790893100237 2.2609299623455033
  endloop
endfacet
facet normal -0.0 1.0 -0.0
  outer loop
    vertex 85.19772108653757 106.12790893100237 1.960929962345503
    vertex 66.49772108653758 106.12790893100237 2.2609299623455033
    vertex 84.89772108653757 106.12790893100237 2.2609299623455033
  endloop
endfacet
facet normal 0.0 -1.0 0.0
  outer loop
    vertex 85.19772108653757 87.37361393100231 1.960929962345503
    vertex 66.19772108653757 87.37361393100231 0.26092996234550214
    vertex 85.19772108653757 87.37361393100231 0.26092996234550214
  endloop
endfacet
facet normal 0.0 -1.0 0.0
  outer loop
    vertex 66.19772108653757 87.37361393100231 0.26092996234550214
    vertex 85.19772108653757 87.37361393100231 1.960929962345503
    vertex 66.19772108653757 87.37361393100231 1.960929962345503
  endloop
endfacet
facet normal 0.0 -1.0 0.0
  outer loop
    vertex 66.19772108653757 87.37361393100231 1.960929962345503
    vertex 85.19772108653757 87.37361393100231 1.960929962345503
    vertex 84.89772108653757 87.37361393100231 2.2609299623455033
  endloop
endfacet
facet normal 0.0 -1.0 0.0
  outer loop
    vertex 66.19772108653757 87.37361393100231 1.960929962345503
    vertex 84.89772108653757 87.37361393100231 2.2609299623455033
    vertex 66.49772108653758 87.37361393100231 2.2609299623455033
  endloop
endfacet
facet normal 0.0 0.0 -1.0
  outer loop
    vertex 85.19772108653757 106.12790893100237 0.26092996234550214
    vertex 66.19772108653757 87.37361393100231 0.26092996234550214
    vertex 66.19772108653757 106.12790893100237 0.26092996234550214
  endloop
endfacet
facet normal 0.0 0.0 -1.0
  outer loop
    vertex 66.19772108653757 87.37361393100231 0.26092996234550214
    vertex 85.19772108653757 106.12790893100237 0.26092996234550214
    vertex 85.19772108653757 87.37361393100231 0.26092996234550214
  endloop
endfacet
facet normal -0.0 -0.0 1.0
  outer loop
    vertex 84.89772108653757 87.37361393100231 2.2609299623455033
    vertex 66.49772108653758 106.12790893100237 2.2609299623455033
    vertex 66.49772108653758 87.37361393100231 2.2609299623455033
  endloop
endfacet
facet normal -0.0 -0.0 1.0
  outer loop
    vertex 66.49772108653758 106.12790893100237 2.2609299623455033
    vertex 84.89772108653757 87.37361393100231 2.2609299623455033
    vertex 84.89772108653757 106.12790893100237 2.2609299623455033
  endloop
endfacet
facet normal 0.0 0.0 -1.0
  outer loop
    vertex 111.42862200712557 106.13330234197282 0.0
    vertex 92.42862200712558 87.13330234197282 0.0
    vertex 92.42862200712558 106.13330234197282 0.0
  endloop
endfacet
facet normal 0.0 0.0 -1.0
  outer loop
    vertex 92.42862200712558 87.13330234197282 0.0
    vertex 111.42862200712557 106.13330234197282 0.0
    vertex 111.42862200712557 87.13330234197282 0.0
  endloop
endfacet
facet normal -0.0 -0.0 1.0
  outer loop
    vertex 113.12862200711032 85.43330234197282 7.0
    vertex 90.7286220071256 87.13330234197282 7.0
    vertex 90.7286220071256 85.43330234197282 7.0
  endloop
endfacet
facet normal -0.0 -0.0 1.0
  outer loop
    vertex 90.7286220071256 87.13330234197282 7.0
    vertex 113.12862200711032 85.43330234197282 7.0
    vertex 92.42862200712558 87.13330234197282 7.0
  endloop
endfacet
facet normal -0.0 -0.0 1.0
  outer loop
    vertex 92.42862200712558 87.13330234197282 7.0
    vertex 113.12862200711032 85.43330234197282 7.0
    vertex 111.42862200712557 87.13330234197282 7.0
  endloop
endfacet
facet normal -0.0 -0.0 1.0
  outer loop
    vertex 111.42862200712557 87.13330234197282 7.0
    vertex 113.12862200711032 85.43330234197282 7.0
    vertex 113.12862200711032 87.13330234197282 7.0
  endloop
endfacet
facet normal -0.0 1.0 -0.0
  outer loop
    vertex 111.42862200712557 87.13330234197282 7.0
    vertex 113.41407384193899 87.13330234197282 3.8976040120743805
    vertex 111.41407384193899 87.13330234197282 3.8819350120743796
  endloop
endfacet
facet normal -0.0 1.0 -0.0
  outer loop
    vertex 113.41407384193899 87.13330234197282 3.8976040120743805
    vertex 111.42862200712557 87.13330234197282 7.0
    vertex 113.42782936641079 87.13330234197282 6.7000042126554264
  endloop
endfacet
facet normal -0.0 1.0 -0.0
  outer loop
    vertex 113.42782936641079 87.13330234197282 6.7000042126554264
    vertex 111.42862200712557 87.13330234197282 7.0
    vertex 113.12862200711032 87.13330234197282 7.0
  endloop
endfacet
facet normal -0.0 1.0 -0.0
  outer loop
    vertex 92.4286220071256 87.13330234197282 3.881472
    vertex 111.42862200712557 87.13330234197282 2.0249989999999998
    vertex 92.42862200712558 87.13330234197282 2.0249989999999998
  endloop
endfacet
facet normal -0.0 1.0 -0.0
  outer loop
    vertex 111.42862200712557 87.13330234197282 2.0249989999999998
    vertex 92.4286220071256 87.13330234197282 3.881472
    vertex 111.41407384193899 87.13330234197282 3.8819350120743796
  endloop
endfacet
facet normal -0.0 1.0 -0.0
  outer loop
    vertex 111.41407384193899 87.13330234197282 3.8819350120743796
    vertex 92.4286220071256 87.13330234197282 3.881472
    vertex 92.42862200712558 87.13330234197282 7.0
  endloop
endfacet
facet normal -0.0 1.0 -0.0
  outer loop
    vertex 111.41407384193899 87.13330234197282 3.8819350120743796
    vertex 92.42862200712558 87.13330234197282 7.0
    vertex 111.42862200712557 87.13330234197282 7.0
  endloop
endfacet
facet normal -0.0 1.0 -0.0
  outer loop
    vertex 90.4286220071256 87.13330234197282 3.881472000000007
    vertex 92.42862200712558 87.13330234197282 7.0
    vertex 92.4286220071256 87.13330234197282 3.881472
  endloop
endfacet
facet normal -0.0 1.0 -0.0
  outer loop
    vertex 92.42862200712558 87.13330234197282 7.0
    vertex 90.4286220071256 87.13330234197282 3.881472000000007
    vertex 90.4286220071256 87.13330234197282 6.7
  endloop
endfacet
facet normal -0.0 1.0 -0.0
  outer loop
    vertex 92.42862200712558 87.13330234197282 7.0
    vertex 90.4286220071256 87.13330234197282 6.7
    vertex 90.7286220071256 87.13330234197282 7.0
  endloop
endfacet
facet normal 0.0 -1.0 0.0
  outer loop
    vertex 111.41407384193899 106.13330234197282 3.8819350120743796
    vertex 92.42862200712558 106.13330234197282 2.0249989999999998
    vertex 111.42862200712557 106.13330234197282 2.0249989999999998
  endloop
endfacet
facet normal 0.0 -1.0 0.0
  outer loop
    vertex 92.42862200712558 106.13330234197282 2.0249989999999998
    vertex 111.41407384193899 106.13330234197282 3.8819350120743796
    vertex 92.4286220071256 106.13330234197282 3.881472
  endloop
endfacet
facet normal 0.0 -1.0 0.0
  outer loop
    vertex 92.4286220071256 106.13330234197282 3.881472
    vertex 111.41407384193899 106.13330234197282 3.8819350120743796
    vertex 92.42862200712558 106.13330234197282 7.0
  endloop
endfacet
facet normal 0.0 -1.0 0.0
  outer loop
    vertex 92.42862200712558 106.13330234197282 7.0
    vertex 111.41407384193899 106.13330234197282 3.8819350120743796
    vertex 111.42862200712557 106.13330234197282 7.0
  endloop
endfacet
facet normal 0.0 -1.0 0.0
  outer loop
    vertex 113.41407384193899 106.13330234197282 3.8976040120743805
    vertex 111.42862200712557 106.13330234197282 7.0
    vertex 111.41407384193899 106.13330234197282 3.8819350120743796
  endloop
endfacet
facet normal 0.0 -1.0 0.0
  outer loop
    vertex 111.42862200712557 106.13330234197282 7.0
    vertex 113.41407384193899 106.13330234197282 3.8976040120743805
    vertex 113.42782936641079 106.13330234197282 6.7000042126554264
  endloop
endfacet
facet normal 0.0 -1.0 0.0
  outer loop
    vertex 111.42862200712557 106.13330234197282 7.0
    vertex 113.42782936641079 106.13330234197282 6.7000042126554264
    vertex 113.12862200711032 106.13330234197282 7.0
  endloop
endfacet
facet normal -3.877453913503367e-15 0.0 -1.0
  outer loop
    vertex 92.4286220071256 106.13330234197282 3.881472
    vertex 90.4286220071256 87.13330234197282 3.881472000000007
    vertex 90.4286220071256 106.13330234197282 3.881472000000007
  endloop
endfacet
facet normal -3.877453913503367e-15 0.0 -1.0
  outer loop
    vertex 90.4286220071256 87.13330234197282 3.881472000000007
    vertex 92.4286220071256 106.13330234197282 3.881472
    vertex 92.4286220071256 87.13330234197282 3.881472
  endloop
endfacet
facet normal -1.0 1.242380519498382e-46 5.639932965095796e-15
  outer loop
    vertex 90.4286220071256 106.13330234197282 3.881472000000007
    vertex 90.4286220071256 87.13330234197282 2.0249990000000073
    vertex 90.4286220071256 87.13330234197282 3.881472000000007
  endloop
endfacet
facet normal -1.0 1.242380519498382e-46 5.639932965095796e-15
  outer loop
    vertex 90.4286220071256 87.13330234197282 2.0249990000000073
    vertex 90.4286220071256 106.13330234197282 3.881472000000007
    vertex 90.4286220071256 106.13330234197282 2.0249990000000073
  endloop
endfacet
facet normal -0.0 1.0 -0.0
  outer loop
    vertex 90.4286220071256 87.13330234197282 2.0249990000000073
    vertex 92.4286220071256 87.13330234197282 3.881472
    vertex 92.42862200712558 87.13330234197282 2.0249989999999998
  endloop
endfacet
facet normal -0.0 1.0 -0.0
  outer loop
    vertex 92.4286220071256 87.13330234197282 3.881472
    vertex 90.4286220071256 87.13330234197282 2.0249990000000073
    vertex 90.4286220071256 87.13330234197282 3.881472000000007
  endloop
endfacet
facet normal 0.0 -1.0 0.0
  outer loop
    vertex 92.4286220071256 106.13330234197282 3.881472
    vertex 90.4286220071256 106.13330234197282 2.0249990000000073
    vertex 92.42862200712558 106.13330234197282 2.0249989999999998
  endloop
endfacet
facet normal 0.0 -1.0 0.0
  outer loop
    vertex 90.4286220071256 106.13330234197282 2.0249990000000073
    vertex 92.4286220071256 106.13330234197282 3.881472
    vertex 90.4286220071256 106.13330234197282 3.881472000000007
  endloop
endfacet
facet normal 0.999969311717589 7.048834945593571e-31 0.00783425957265207
  outer loop
    vertex 113.42862200712557 106.13330234197282 2.040668
    vertex 113.41407384193899 87.13330234197282 3.8976040120743805
    vertex 113.42862200712557 87.13330234197282 2.040668
  endloop
endfacet
facet normal 0.999969311717589 7.048834945593571e-31 0.00783425957265207
  outer loop
    vertex 113.41407384193899 87.13330234197282 3.8976040120743805
    vertex 113.42862200712557 106.13330234197282 2.040668
    vertex 113.41407384193899 106.13330234197282 3.8976040120743805
  endloop
endfacet
facet normal 0.0 -1.0 0.0
  outer loop
    vertex 113.42862200712557 106.13330234197282 2.040668
    vertex 111.41407384193899 106.13330234197282 3.8819350120743796
    vertex 111.42862200712557 106.13330234197282 2.0249989999999998
  endloop
endfacet
facet normal 0.0 -1.0 0.0
  outer loop
    vertex 111.41407384193899 106.13330234197282 3.8819350120743796
    vertex 113.42862200712557 106.13330234197282 2.040668
    vertex 113.41407384193899 106.13330234197282 3.8976040120743805
  endloop
endfacet
facet normal -0.0 1.0 -0.0
  outer loop
    vertex 111.41407384193899 87.13330234197282 3.8819350120743796
    vertex 113.42862200712557 87.13330234197282 2.040668
    vertex 111.42862200712557 87.13330234197282 2.0249989999999998
  endloop
endfacet
facet normal -0.0 1.0 -0.0
  outer loop
    vertex 113.42862200712557 87.13330234197282 2.040668
    vertex 111.41407384193899 87.13330234197282 3.8819350120743796
    vertex 113.41407384193899 87.13330234197282 3.8976040120743805
  endloop
endfacet
facet normal -0.007834259572651561 -2.4219612452970046e-20 0.999969311717589
  outer loop
    vertex 113.42862200712557 87.13330234197282 2.040668
    vertex 111.42862200712557 106.13330234197282 2.0249989999999998
    vertex 111.42862200712557 87.13330234197282 2.0249989999999998
  endloop
endfacet
facet normal -0.007834259572651561 -2.4219612452970046e-20 0.999969311717589
  outer loop
    vertex 111.42862200712557 106.13330234197282 2.0249989999999998
    vertex 113.42862200712557 87.13330234197282 2.040668
    vertex 113.42862200712557 106.13330234197282 2.040668
  endloop
endfacet
facet normal 0.0 -1.0 0.0
  outer loop
    vertex 111.42862200712557 106.13330234197282 2.0249989999999998
    vertex 92.42862200712558 106.13330234197282 0.0
    vertex 111.42862200712557 106.13330234197282 0.0
  endloop
endfacet
facet normal 0.0 -1.0 0.0
  outer loop
    vertex 92.42862200712558 106.13330234197282 0.0
    vertex 111.42862200712557 106.13330234197282 2.0249989999999998
    vertex 92.42862200712558 106.13330234197282 2.0249989999999998
  endloop
endfacet
facet normal -0.0 -0.0 1.0
  outer loop
    vertex 111.42862200712557 87.13330234197282 2.0249989999999998
    vertex 92.42862200712558 106.13330234197282 2.0249989999999998
    vertex 92.42862200712558 87.13330234197282 2.0249989999999998
  endloop
endfacet
facet normal -0.0 -0.0 1.0
  outer loop
    vertex 92.42862200712558 106.13330234197282 2.0249989999999998
    vertex 111.42862200712557 87.13330234197282 2.0249989999999998
    vertex 111.42862200712557 106.13330234197282 2.0249989999999998
  endloop
endfacet
facet normal -0.999969311717589 -7.049697822115154e-31 -0.00783425957265207
  outer loop
    vertex 111.41407384193899 106.13330234197282 3.8819350120743796
    vertex 111.42862200712557 87.13330234197282 2.0249989999999998
    vertex 111.41407384193899 87.13330234197282 3.8819350120743796
  endloop
endfacet
facet normal -0.999969311717589 -7.049697822115154e-31 -0.00783425957265207
  outer loop
    vertex 111.42862200712557 87.13330234197282 2.0249989999999998
    vertex 111.41407384193899 106.13330234197282 3.8819350120743796
    vertex 111.42862200712557 106.13330234197282 2.0249989999999998
  endloop
endfacet
facet normal 1.0 -0.0 -0.0
  outer loop
    vertex 111.42862200712557 106.13330234197282 0.0
    vertex 111.42862200712557 87.13330234197282 2.0249989999999998
    vertex 111.42862200712557 87.13330234197282 0.0
  endloop
endfacet
facet normal 1.0 -0.0 -0.0
  outer loop
    vertex 111.42862200712557 87.13330234197282 2.0249989999999998
    vertex 111.42862200712557 106.13330234197282 0.0
    vertex 111.42862200712557 106.13330234197282 2.0249989999999998
  endloop
endfacet
facet normal -0.0 1.0 -0.0
  outer loop
    vertex 92.42862200712558 87.13330234197282 2.0249989999999998
    vertex 111.42862200712557 87.13330234197282 0.0
    vertex 92.42862200712558 87.13330234197282 0.0
  endloop
endfacet
facet normal -0.0 1.0 -0.0
  outer loop
    vertex 111.42862200712557 87.13330234197282 0.0
    vertex 92.42862200712558 87.13330234197282 2.0249989999999998
    vertex 111.42862200712557 87.13330234197282 2.0249989999999998
  endloop
endfacet
facet normal 1.0 6.211902597491911e-47 -5.6399329650957965e-15
  outer loop
    vertex 92.42862200712558 106.13330234197282 2.0249989999999998
    vertex 92.4286220071256 87.13330234197282 3.881472
    vertex 92.42862200712558 87.13330234197282 2.0249989999999998
  endloop
endfacet
facet normal 1.0 6.211902597491911e-47 -5.6399329650957965e-15
  outer loop
    vertex 92.4286220071256 87.13330234197282 3.881472
    vertex 92.42862200712558 106.13330234197282 2.0249989999999998
    vertex 92.4286220071256 106.13330234197282 3.881472
  endloop
endfacet
facet normal 3.7012060083441226e-15 1.1014142607608811e-32 1.0
  outer loop
    vertex 92.42862200712558 87.13330234197282 2.0249989999999998
    vertex 90.4286220071256 106.13330234197282 2.0249990000000073
    vertex 90.4286220071256 87.13330234197282 2.0249990000000073
  endloop
endfacet
facet normal 3.7012060083441226e-15 1.1014142607608811e-32 1.0
  outer loop
    vertex 90.4286220071256 106.13330234197282 2.0249990000000073
    vertex 92.42862200712558 87.13330234197282 2.0249989999999998
    vertex 92.42862200712558 106.13330234197282 2.0249989999999998
  endloop
endfacet
facet normal -1.0 0.0 0.0
  outer loop
    vertex 92.42862200712558 106.13330234197282 2.0249989999999998
    vertex 92.42862200712558 87.13330234197282 0.0
    vertex 92.42862200712558 87.13330234197282 2.0249989999999998
  endloop
endfacet
facet normal -1.0 0.0 0.0
  outer loop
    vertex 92.42862200712558 87.13330234197282 0.0
    vertex 92.42862200712558 106.13330234197282 2.0249989999999998
    vertex 92.42862200712558 106.13330234197282 0.0
  endloop
endfacet
facet normal -0.0 -0.0 1.0
  outer loop
    vertex 92.42862200712558 106.13330234197282 7.0
    vertex 90.7286220071256 107.83330234197282 7.0
    vertex 90.7286220071256 106.13330234197282 7.0
  endloop
endfacet
facet normal -0.0 -0.0 1.0
  outer loop
    vertex 90.7286220071256 107.83330234197282 7.0
    vertex 92.42862200712558 106.13330234197282 7.0
    vertex 113.12862200711032 107.83330234197282 7.0
  endloop
endfacet
facet normal -0.0 -0.0 1.0
  outer loop
    vertex 113.12862200711032 107.83330234197282 7.0
    vertex 92.42862200712558 106.13330234197282 7.0
    vertex 111.42862200712557 106.13330234197282 7.0
  endloop
endfacet
facet normal -0.0 -0.0 1.0
  outer loop
    vertex 113.12862200711032 107.83330234197282 7.0
    vertex 111.42862200712557 106.13330234197282 7.0
    vertex 113.12862200711032 106.13330234197282 7.0
  endloop
endfacet
facet normal 0.0 -1.0 0.0
  outer loop
    vertex 92.42862200712558 106.13330234197282 7.0
    vertex 90.4286220071256 106.13330234197282 3.881472000000007
    vertex 92.4286220071256 106.13330234197282 3.881472
  endloop
endfacet
facet normal 0.0 -1.0 0.0
  outer loop
    vertex 90.4286220071256 106.13330234197282 3.881472000000007
    vertex 92.42862200712558 106.13330234197282 7.0
    vertex 90.4286220071256 106.13330234197282 6.7
  endloop
endfacet
facet normal 0.0 -1.0 0.0
  outer loop
    vertex 90.4286220071256 106.13330234197282 6.7
    vertex 92.42862200712558 106.13330234197282 7.0
    vertex 90.7286220071256 106.13330234197282 7.0
  endloop
endfacet
facet normal 0.0 0.0 -1.0
  outer loop
    vertex 90.7286220071256 107.83330234197282 0.0
    vertex 92.42862200712558 106.13330234197282 0.0
    vertex 90.7286220071256 85.43330234197282 0.0
  endloop
endfacet
facet normal 0.0 0.0 -1.0
  outer loop
    vertex 92.42862200712558 106.13330234197282 0.0
    vertex 90.7286220071256 107.83330234197282 0.0
    vertex 113.12862200711032 107.83330234197282 0.0
  endloop
endfacet
facet normal 0.0 0.0 -1.0
  outer loop
    vertex 92.42862200712558 106.13330234197282 0.0
    vertex 113.12862200711032 107.83330234197282 0.0
    vertex 111.42862200712557 106.13330234197282 0.0
  endloop
endfacet
facet normal 0.0 0.0 -1.0
  outer loop
    vertex 111.42862200712557 106.13330234197282 0.0
    vertex 113.12862200711032 107.83330234197282 0.0
    vertex 111.42862200712557 87.13330234197282 0.0
  endloop
endfacet
facet normal 0.0 0.0 -1.0
  outer loop
    vertex 90.7286220071256 85.43330234197282 0.0
    vertex 92.42862200712558 87.13330234197282 0.0
    vertex 113.12862200711032 85.43330234197282 0.0
  endloop
endfacet
facet normal 0.0 0.0 -1.0
  outer loop
    vertex 92.42862200712558 87.13330234197282 0.0
    vertex 90.7286220071256 85.43330234197282 0.0
    vertex 92.42862200712558 106.13330234197282 0.0
  endloop
endfacet
facet normal 0.0 0.0 -1.0
  outer loop
    vertex 113.12862200711032 85.43330234197282 0.0
    vertex 92.42862200712558 87.13330234197282 0.0
    vertex 111.42862200712557 87.13330234197282 0.0
  endloop
endfacet
facet normal 0.0 0.0 -1.0
  outer loop
    vertex 113.12862200711032 85.43330234197282 0.0
    vertex 111.42862200712557 87.13330234197282 0.0
    vertex 113.12862200711032 107.83330234197282 0.0
  endloop
endfacet
facet normal 0.0 -1.0 0.0
  outer loop
    vertex 113.12862200712557 85.13330234197282 6.7
    vertex 90.7286220071256 85.13330234197282 0.30000000000000004
    vertex 113.12862200712557 85.13330234197282 0.30000000000000004
  endloop
endfacet
facet normal 0.0 -1.0 0.0
  outer loop
    vertex 90.7286220071256 85.13330234197282 0.30000000000000004
    vertex 113.12862200712557 85.13330234197282 6.7
    vertex 90.7286220071256 85.13330234197282 6.7
  endloop
endfacet
facet normal -1.0 5.644138285656245e-35 2.6306466498570368e-17
  outer loop
    vertex 90.4286220071256 107.83330234197282 6.7
    vertex 90.4286220071256 106.13330234197282 3.881472000000007
    vertex 90.4286220071256 106.13330234197282 6.7
  endloop
endfacet
facet normal -1.0 5.644138285656245e-35 2.6306466498570368e-17
  outer loop
    vertex 90.4286220071256 106.13330234197282 3.881472000000007
    vertex 90.4286220071256 107.83330234197282 6.7
    vertex 90.4286220071256 106.13330234197282 2.0249990000000073
  endloop
endfacet
facet normal -1.0 5.644138285656245e-35 2.6306466498570368e-17
  outer loop
    vertex 90.4286220071256 87.13330234197282 6.7
    vertex 90.4286220071256 85.43330234197282 0.30000000000000004
    vertex 90.4286220071256 85.43330234197282 6.7
  endloop
endfacet
facet normal -1.0 5.644138285656245e-35 2.6306466498570368e-17
  outer loop
    vertex 90.4286220071256 85.43330234197282 0.30000000000000004
    vertex 90.4286220071256 87.13330234197282 6.7
    vertex 90.4286220071256 87.13330234197282 2.0249990000000073
  endloop
endfacet
facet normal -1.0 5.644138285656245e-35 2.6306466498570368e-17
  outer loop
    vertex 90.4286220071256 85.43330234197282 0.30000000000000004
    vertex 90.4286220071256 87.13330234197282 2.0249990000000073
    vertex 90.4286220071256 107.83330234197282 0.30000000000000004
  endloop
endfacet
facet normal -1.0 5.644138285656245e-35 2.6306466498570368e-17
  outer loop
    vertex 90.4286220071256 87.13330234197282 2.0249990000000073
    vertex 90.4286220071256 87.13330234197282 6.7
    vertex 90.4286220071256 87.13330234197282 3.881472000000007
  endloop
endfacet
facet normal -1.0 5.644138285656245e-35 2.6306466498570368e-17
  outer loop
    vertex 90.4286220071256 107.83330234197282 0.30000000000000004
    vertex 90.4286220071256 87.13330234197282 2.0249990000000073
    vertex 90.4286220071256 106.13330234197282 2.0249990000000073
  endloop
endfacet
facet normal -1.0 5.644138285656245e-35 2.6306466498570368e-17
  outer loop
    vertex 90.4286220071256 107.83330234197282 0.30000000000000004
    vertex 90.4286220071256 106.13330234197282 2.0249990000000073
    vertex 90.4286220071256 107.83330234197282 6.7
  endloop
endfacet
facet normal -0.0 1.0 -0.0
  outer loop
    vertex 90.7286220071256 108.13330234197282 6.7
    vertex 113.12862200712557 108.13330234197282 0.30000000000000004
    vertex 90.7286220071256 108.13330234197282 0.30000000000000004
  endloop
endfacet
facet normal -0.0 1.0 -0.0
  outer loop
    vertex 113.12862200712557 108.13330234197282 0.30000000000000004
    vertex 90.7286220071256 108.13330234197282 6.7
    vertex 113.12862200712557 108.13330234197282 6.7
  endloop
endfacet
facet normal 0.9999999941009847 -2.330450534080035e-22 0.00010861874023441928
  outer loop
    vertex 113.42862049459113 85.43330234197282 0.30000000000000004
    vertex 113.42862200712557 87.13330234197282 2.040668
    vertex 113.42862351966001 85.43330234197282 6.7
  endloop
endfacet
facet normal 0.9999999941009847 -2.330450534080035e-22 0.00010861874023441928
  outer loop
    vertex 113.42862200712557 87.13330234197282 2.040668
    vertex 113.42862049459113 85.43330234197282 0.30000000000000004
    vertex 113.42862049459113 107.83330234197282 0.30000000000000004
  endloop
endfacet
facet normal 0.9999999941009847 -2.330450534080035e-22 0.00010861874023441928
  outer loop
    vertex 113.42862200712557 87.13330234197282 2.040668
    vertex 113.42862049459113 107.83330234197282 0.30000000000000004
    vertex 113.42862200712557 106.13330234197282 2.040668
  endloop
endfacet
facet normal 0.9999999941009847 -2.330450534080035e-22 0.00010861874023441928
  outer loop
    vertex 113.42862200712557 106.13330234197282 2.040668
    vertex 113.42862049459113 107.83330234197282 0.30000000000000004
    vertex 113.41407384193899 106.13330234197282 3.8976040120743805
  endloop
endfacet
facet normal 0.9999999941009847 -2.330450534080035e-22 0.00010861874023441928
  outer loop
    vertex 113.41407384193899 106.13330234197282 3.8976040120743805
    vertex 113.42862049459113 107.83330234197282 0.30000000000000004
    vertex 113.42782936641079 106.13330234197282 6.7000042126554264
  endloop
endfacet
facet normal 0.9999999941009847 -2.330450534080035e-22 0.00010861874023441928
  outer loop
    vertex 113.42782936641079 106.13330234197282 6.7000042126554264
    vertex 113.42862049459113 107.83330234197282 0.30000000000000004
    vertex 113.42862351966001 107.83330234197282 6.7
  endloop
endfacet
facet normal 0.9999999941009847 -2.330450534080035e-22 0.00010861874023441928
  outer loop
    vertex 113.42862200712557 87.13330234197282 2.040668
    vertex 113.42782936641079 87.13330234197282 6.7000042126554264
    vertex 113.42862351966001 85.43330234197282 6.7
  endloop
endfacet
facet normal 0.9999999941009847 -2.330450534080035e-22 0.00010861874023441928
  outer loop
    vertex 113.42782936641079 87.13330234197282 6.7000042126554264
    vertex 113.42862200712557 87.13330234197282 2.040668
    vertex 113.41407384193899 87.13330234197282 3.8976040120743805
  endloop
endfacet
facet normal -1.0 0.0 0.0
  outer loop
    vertex 66.19772108653757 106.12790893100237 1.960929962345503
    vertex 66.19772108653757 87.37361393100231 0.26092996234550214
    vertex 66.19772108653757 87.37361393100231 1.960929962345503
  endloop
endfacet
facet normal -1.0 0.0 0.0
  outer loop
    vertex 66.19772108653757 87.37361393100231 0.26092996234550214
    vertex 66.19772108653757 106.12790893100237 1.960929962345503
    vertex 66.19772108653757 106.12790893100237 0.26092996234550214
  endloop
endfacet
facet normal 1.0 -0.0 -0.0
  outer loop
    vertex 85.19772108653757 106.12790893100237 0.26092996234550214
    vertex 85.19772108653757 87.37361393100231 1.960929962345503
    vertex 85.19772108653757 87.37361393100231 0.26092996234550214
  endloop
endfacet
facet normal 1.0 -0.0 -0.0
  outer loop
    vertex 85.19772108653757 87.37361393100231 1.960929962345503
    vertex 85.19772108653757 106.12790893100237 0.26092996234550214
    vertex 85.19772108653757 106.12790893100237 1.960929962345503
  endloop
endfacet
facet normal -0.7071067811865476 -0.7071067811865476 2.745635887278624e-31
  outer loop
    vertex 90.4286220071256 85.43330234197282 6.7
    vertex 90.7286220071256 85.13330234197282 0.30000000000000004
    vertex 90.7286220071256 85.13330234197282 6.7
  endloop
endfacet
facet normal -0.7071067811865476 -0.7071067811865476 2.745635887278624e-31
  outer loop
    vertex 90.7286220071256 85.13330234197282 0.30000000000000004
    vertex 90.4286220071256 85.43330234197282 6.7
    vertex 90.4286220071256 85.43330234197282 0.30000000000000004
  endloop
endfacet
facet normal -0.7071067811865476 -1.2452456298179417e-28 0.7071067811865476
  outer loop
    vertex 90.7286220071256 107.83330234197282 7.0
    vertex 90.4286220071256 106.13330234197282 6.7
    vertex 90.7286220071256 106.13330234197282 7.0
  endloop
endfacet
facet normal -0.7071067811865476 -1.2452456298179417e-28 0.7071067811865476
  outer loop
    vertex 90.4286220071256 106.13330234197282 6.7
    vertex 90.7286220071256 107.83330234197282 7.0
    vertex 90.4286220071256 107.83330234197282 6.7
  endloop
endfacet
facet normal 0.7075706179515034 0.00016439490100602803 0.7066426208388821
  outer loop
    vertex 113.42782936641079 87.13330234197282 6.7000042126554264
    vertex 113.12862200711032 85.43330234197282 7.0
    vertex 113.42862351966001 85.43330234197282 6.7
  endloop
endfacet
facet normal 0.7075706179515034 0.00016439490100602803 0.7066426208388821
  outer loop
    vertex 113.12862200711032 85.43330234197282 7.0
    vertex 113.42782936641079 87.13330234197282 6.7000042126554264
    vertex 113.12862200711032 87.13330234197282 7.0
  endloop
endfacet
facet normal -3.9429989664642876e-19 0.7071067811865476 0.7071067811865476
  outer loop
    vertex 90.7286220071256 107.83330234197282 7.0
    vertex 113.12862200712557 108.13330234197282 6.7
    vertex 90.7286220071256 108.13330234197282 6.7
  endloop
endfacet
facet normal -3.9429989664642876e-19 0.7071067811865476 0.7071067811865476
  outer loop
    vertex 113.12862200712557 108.13330234197282 6.7
    vertex 90.7286220071256 107.83330234197282 7.0
    vertex 113.12862200711032 107.83330234197282 7.0
  endloop
endfacet
facet normal 0.7075706179515036 -0.00016439490100602809 0.7066426208388821
  outer loop
    vertex 113.42862351966001 107.83330234197282 6.7
    vertex 113.12862200711032 106.13330234197282 7.0
    vertex 113.42782936641079 106.13330234197282 6.7000042126554264
  endloop
endfacet
facet normal 0.7075706179515036 -0.00016439490100602809 0.7066426208388821
  outer loop
    vertex 113.12862200711032 106.13330234197282 7.0
    vertex 113.42862351966001 107.83330234197282 6.7
    vertex 113.12862200711032 107.83330234197282 7.0
  endloop
endfacet
facet normal -0.7071067811865485 0.0 0.7071067811865466
  outer loop
    vertex 66.49772108653758 106.12790893100237 2.2609299623455033
    vertex 66.19772108653757 87.37361393100231 1.960929962345503
    vertex 66.49772108653758 87.37361393100231 2.2609299623455033
  endloop
endfacet
facet normal -0.7071067811865485 0.0 0.7071067811865466
  outer loop
    vertex 66.19772108653757 87.37361393100231 1.960929962345503
    vertex 66.49772108653758 106.12790893100237 2.2609299623455033
    vertex 66.19772108653757 106.12790893100237 1.960929962345503
  endloop
endfacet
facet normal 0.7071067811865485 -0.0 0.7071067811865466
  outer loop
    vertex 85.19772108653757 106.12790893100237 1.960929962345503
    vertex 84.89772108653757 87.37361393100231 2.2609299623455033
    vertex 85.19772108653757 87.37361393100231 1.960929962345503
  endloop
endfacet
facet normal 0.7071067811865485 -0.0 0.7071067811865466
  outer loop
    vertex 84.89772108653757 87.37361393100231 2.2609299623455033
    vertex 85.19772108653757 106.12790893100237 1.960929962345503
    vertex 84.89772108653757 106.12790893100237 2.2609299623455033
  endloop
endfacet
facet normal 0.5773522097673207 -0.5773492988836582 -0.5773492989130063
  outer loop
    vertex 113.42862049459113 85.43330234197282 0.30000000000000004
    vertex 113.12862200712557 85.13330234197282 0.30000000000000004
    vertex 113.12862200711032 85.43330234197282 0.0
  endloop
endfacet
facet normal 0.5773522097673207 0.5773492988836582 -0.5773492989130065
  outer loop
    vertex 113.12862200712557 108.13330234197282 0.30000000000000004
    vertex 113.42862049459113 107.83330234197282 0.30000000000000004
    vertex 113.12862200711032 107.83330234197282 0.0
  endloop
endfacet
facet normal -0.5773502691896262 0.5773502691896261 -0.5773502691896251
  outer loop
    vertex 90.7286220071256 108.13330234197282 0.30000000000000004
    vertex 90.7286220071256 107.83330234197282 0.0
    vertex 90.4286220071256 107.83330234197282 0.30000000000000004
  endloop
endfacet
facet normal -0.5773502691896262 -0.5773502691896261 -0.5773502691896251
  outer loop
    vertex 90.7286220071256 85.43330234197282 0.0
    vertex 90.7286220071256 85.13330234197282 0.30000000000000004
    vertex 90.4286220071256 85.43330234197282 0.30000000000000004
  endloop
endfacet
facet normal -0.5773502691896258 -0.5773502691896258 0.5773502691896258
  outer loop
    vertex 90.4286220071256 85.43330234197282 6.7
    vertex 90.7286220071256 85.13330234197282 6.7
    vertex 90.7286220071256 85.43330234197282 7.0
  endloop
endfacet
facet normal 0.577348328602149 -0.5773512394662437 0.5773512394955929
  outer loop
    vertex 113.42862351966001 85.43330234197282 6.7
    vertex 113.12862200711032 85.43330234197282 7.0
    vertex 113.12862200712557 85.13330234197282 6.7
  endloop
endfacet
facet normal -0.5773502691896258 0.5773502691896258 0.5773502691896258
  outer loop
    vertex 90.7286220071256 108.13330234197282 6.7
    vertex 90.4286220071256 107.83330234197282 6.7
    vertex 90.7286220071256 107.83330234197282 7.0
  endloop
endfacet
facet normal 0.577348328602149 0.5773512394662434 0.5773512394955927
  outer loop
    vertex 113.42862351966001 107.83330234197282 6.7
    vertex 113.12862200712557 108.13330234197282 6.7
    vertex 113.12862200711032 107.83330234197282 7.0
  endloop
endfacet
facet normal 0.7071085637097494 -0.0 -0.7071049986588522
  outer loop
    vertex 113.12862200711032 107.83330234197282 0.0
    vertex 113.42862049459113 85.43330234197282 0.30000000000000004
    vertex 113.12862200711032 85.43330234197282 0.0
  endloop
endfacet
facet normal 0.7071085637097494 -0.0 -0.7071049986588522
  outer loop
    vertex 113.42862049459113 85.43330234197282 0.30000000000000004
    vertex 113.12862200711032 107.83330234197282 0.0
    vertex 113.42862049459113 107.83330234197282 0.30000000000000004
  endloop
endfacet
facet normal -7.531353949991013e-30 0.7071067811865483 -0.7071067811865468
  outer loop
    vertex 90.7286220071256 108.13330234197282 0.30000000000000004
    vertex 113.12862200711032 107.83330234197282 0.0
    vertex 90.7286220071256 107.83330234197282 0.0
  endloop
endfacet
facet normal -7.531353949991013e-30 0.7071067811865483 -0.7071067811865468
  outer loop
    vertex 113.12862200711032 107.83330234197282 0.0
    vertex 90.7286220071256 108.13330234197282 0.30000000000000004
    vertex 113.12862200712557 108.13330234197282 0.30000000000000004
  endloop
endfacet
facet normal -0.7071067811865482 3.5861366690986157e-31 -0.7071067811865468
  outer loop
    vertex 90.4286220071256 107.83330234197282 0.30000000000000004
    vertex 90.7286220071256 85.43330234197282 0.0
    vertex 90.4286220071256 85.43330234197282 0.30000000000000004
  endloop
endfacet
facet normal -0.7071067811865482 3.5861366690986157e-31 -0.7071067811865468
  outer loop
    vertex 90.7286220071256 85.43330234197282 0.0
    vertex 90.4286220071256 107.83330234197282 0.30000000000000004
    vertex 90.7286220071256 107.83330234197282 0.0
  endloop
endfacet
facet normal 3.942998966401513e-19 -0.7071067811865483 -0.7071067811865468
  outer loop
    vertex 113.12862200712557 85.13330234197282 0.30000000000000004
    vertex 90.7286220071256 85.43330234197282 0.0
    vertex 113.12862200711032 85.43330234197282 0.0
  endloop
endfacet
facet normal 3.942998966401513e-19 -0.7071067811865483 -0.7071067811865468
  outer loop
    vertex 90.7286220071256 85.43330234197282 0.0
    vertex 113.12862200712557 85.13330234197282 0.30000000000000004
    vertex 90.7286220071256 85.13330234197282 0.30000000000000004
  endloop
endfacet
facet normal -0.0 -0.7071067811865476 0.7071067811865476
  outer loop
    vertex 113.12862200711032 85.43330234197282 7.0
    vertex 90.7286220071256 85.13330234197282 6.7
    vertex 113.12862200712557 85.13330234197282 6.7
  endloop
endfacet
facet normal -0.0 -0.7071067811865476 0.7071067811865476
  outer loop
    vertex 90.7286220071256 85.13330234197282 6.7
    vertex 113.12862200711032 85.43330234197282 7.0
    vertex 90.7286220071256 85.43330234197282 7.0
  endloop
endfacet
facet normal 0.7071067811775504 -0.707106781195525 -1.671130244096069e-07
  outer loop
    vertex 113.42862351966001 85.43330234197282 6.7
    vertex 113.12862200712557 85.13330234197282 0.30000000000000004
    vertex 113.42862049459113 85.43330234197282 0.30000000000000004
  endloop
endfacet
facet normal 0.7071067811775504 -0.707106781195525 -1.671130244096069e-07
  outer loop
    vertex 113.12862200712557 85.13330234197282 0.30000000000000004
    vertex 113.42862351966001 85.43330234197282 6.7
    vertex 113.12862200712557 85.13330234197282 6.7
  endloop
endfacet
facet normal -0.7071067811865476 0.7071067811865476 -2.745635887278624e-31
  outer loop
    vertex 90.7286220071256 108.13330234197282 6.7
    vertex 90.4286220071256 107.83330234197282 0.30000000000000004
    vertex 90.4286220071256 107.83330234197282 6.7
  endloop
endfacet
facet normal -0.7071067811865476 0.7071067811865476 -2.745635887278624e-31
  outer loop
    vertex 90.4286220071256 107.83330234197282 0.30000000000000004
    vertex 90.7286220071256 108.13330234197282 6.7
    vertex 90.7286220071256 108.13330234197282 0.30000000000000004
  endloop
endfacet
facet normal -0.7071067811865476 -0.0 0.7071067811865476
  outer loop
    vertex 90.7286220071256 87.13330234197282 7.0
    vertex 90.4286220071256 85.43330234197282 6.7
    vertex 90.7286220071256 85.43330234197282 7.0
  endloop
endfacet
facet normal -0.7071067811865476 -0.0 0.7071067811865476
  outer loop
    vertex 90.4286220071256 85.43330234197282 6.7
    vertex 90.7286220071256 87.13330234197282 7.0
    vertex 90.4286220071256 87.13330234197282 6.7
  endloop
endfacet
facet normal 0.7071067811775504 0.707106781195525 -1.671130244096069e-07
  outer loop
    vertex 113.12862200712557 108.13330234197282 6.7
    vertex 113.42862049459113 107.83330234197282 0.30000000000000004
    vertex 113.12862200712557 108.13330234197282 0.30000000000000004
  endloop
endfacet
facet normal 0.7071067811775504 0.707106781195525 -1.671130244096069e-07
  outer loop
    vertex 113.42862049459113 107.83330234197282 0.30000000000000004
    vertex 113.12862200712557 108.13330234197282 6.7
    vertex 113.42862351966001 107.83330234197282 6.7
  endloop
endfacet
facet normal -0.007834259572651736 0.0 0.999969311717589
  outer loop
    vertex 113.41407384193899 87.13330234197282 3.8976040120743805
    vertex 111.41407384193899 106.13330234197282 3.8819350120743796
    vertex 111.41407384193899 87.13330234197282 3.8819350120743796
  endloop
endfacet
facet normal -0.007834259572651736 0.0 0.999969311717589
  outer loop
    vertex 111.41407384193899 106.13330234197282 3.8819350120743796
    vertex 113.41407384193899 87.13330234197282 3.8976040120743805
    vertex 113.41407384193899 106.13330234197282 3.8976040120743805
  endloop
endfacet
endsolid Untitled
