solid pcb enclosure 1
facet normal -6.11760213555138e-17 -6.545358754207815e-17 1.0
  outer loop
    vertex 119.13897702611054 5.0871424698549745 0.0
    vertex 80.43122196286153 39.31653146985497 0.0
    vertex 80.43122196286153 5.087142469854973 0.0
  endloop
endfacet
facet normal -6.11760213555138e-17 -6.545358754207815e-17 1.0
  outer loop
    vertex 80.43122196286153 39.31653146985497 0.0
    vertex 119.13897702611054 5.0871424698549745 0.0
    vertex 80.43122196286153 47.36843457577457 0.0
  endloop
endfacet
facet normal -6.11760213555138e-17 -6.545358754207815e-17 1.0
  outer loop
    vertex 80.43122196286153 47.36843457577457 0.0
    vertex 119.13897702611054 5.0871424698549745 0.0
    vertex 80.43122196286153 58.0648020217035 0.0
  endloop
endfacet
facet normal -6.11760213555138e-17 -6.545358754207815e-17 1.0
  outer loop
    vertex 80.43122196286153 58.0648020217035 0.0
    vertex 119.13897702611054 5.0871424698549745 0.0
    vertex 80.43122196286153 65.36029029562017 0.0
  endloop
endfacet
facet normal -6.11760213555138e-17 -6.545358754207815e-17 1.0
  outer loop
    vertex 80.43122196286153 65.36029029562017 0.0
    vertex 119.13897702611054 5.0871424698549745 0.0
    vertex 80.43122196286153 74.02923246985497 0.0
  endloop
endfacet
facet normal -6.11760213555138e-17 -6.545358754207815e-17 1.0
  outer loop
    vertex 80.43122196286153 74.02923246985497 0.0
    vertex 119.13897702611054 5.0871424698549745 0.0
    vertex 80.43122196286153 75.20774746985492 0.0
  endloop
endfacet
facet normal -6.11760213555138e-17 -6.545358754207815e-17 1.0
  outer loop
    vertex 80.43122196286153 75.20774746985492 0.0
    vertex 119.13897702611054 5.0871424698549745 0.0
    vertex 81.43122196286151 75.20774746985492 1.127986593019159e-14
  endloop
endfacet
facet normal -6.11760213555138e-17 -6.545358754207815e-17 1.0
  outer loop
    vertex 81.43122196286151 75.20774746985492 1.127986593019159e-14
    vertex 119.13897702611054 5.0871424698549745 0.0
    vertex 129.43122196286146 75.20774746985497 1.6919798895287383e-14
  endloop
endfacet
facet normal -6.11760213555138e-17 -6.545358754207815e-17 1.0
  outer loop
    vertex 129.43122196286146 75.20774746985497 1.6919798895287383e-14
    vertex 119.13897702611054 5.0871424698549745 0.0
    vertex 127.29653579517 5.0871424698549745 -1.127986593019159e-14
  endloop
endfacet
facet normal -6.11760213555138e-17 -6.545358754207815e-17 1.0
  outer loop
    vertex 129.43122196286146 75.20774746985497 1.6919798895287383e-14
    vertex 127.29653579517 5.0871424698549745 -1.127986593019159e-14
    vertex 129.43122196286146 5.0871424698549745 1.6919798895287383e-14
  endloop
endfacet
facet normal -6.11760213555138e-17 -6.545358754207815e-17 1.0
  outer loop
    vertex 129.43122196286146 75.20774746985497 1.6919798895287383e-14
    vertex 129.43122196286146 5.0871424698549745 1.6919798895287383e-14
    vertex 130.43122196286143 5.0871424698549745 0.0
  endloop
endfacet
facet normal -6.11760213555138e-17 -6.545358754207815e-17 1.0
  outer loop
    vertex 129.43122196286146 75.20774746985497 1.6919798895287383e-14
    vertex 130.43122196286143 5.0871424698549745 0.0
    vertex 130.43122196286143 75.20774746985497 0.0
  endloop
endfacet
facet normal -6.11760213555138e-17 -6.545358754207815e-17 1.0
  outer loop
    vertex 130.43122196286143 75.20774746985497 0.0
    vertex 130.43122196286143 5.0871424698549745 0.0
    vertex 130.43122196286143 38.88496418591986 0.0
  endloop
endfacet
facet normal -6.11760213555138e-17 -6.545358754207815e-17 1.0
  outer loop
    vertex 130.43122196286143 75.20774746985497 0.0
    vertex 130.43122196286143 38.88496418591986 0.0
    vertex 130.43122196286143 59.901802314912665 0.0
  endloop
endfacet
facet normal -5.1874451564621264e-17 -1.2588350369114284e-16 -1.0
  outer loop
    vertex 81.43122196286154 75.20774746985492 -2.0000000000000133
    vertex 80.43122196286156 74.02923246985497 -2.000000000000019
    vertex 80.43122196286156 75.20774746985492 -2.000000000000019
  endloop
endfacet
facet normal -5.1874451564621264e-17 -1.2588350369114284e-16 -1.0
  outer loop
    vertex 80.43122196286156 74.02923246985497 -2.000000000000019
    vertex 81.43122196286154 75.20774746985492 -2.0000000000000133
    vertex 80.43122196286156 65.36029029562017 -2.000000000000019
  endloop
endfacet
facet normal -5.1874451564621264e-17 -1.2588350369114284e-16 -1.0
  outer loop
    vertex 80.43122196286156 65.36029029562017 -2.000000000000019
    vertex 81.43122196286154 75.20774746985492 -2.0000000000000133
    vertex 80.43122196286156 58.0648020217035 -2.000000000000019
  endloop
endfacet
facet normal -5.1874451564621264e-17 -1.2588350369114284e-16 -1.0
  outer loop
    vertex 80.43122196286156 58.0648020217035 -2.000000000000019
    vertex 81.43122196286154 75.20774746985492 -2.0000000000000133
    vertex 80.43122196286156 47.36843457577457 -2.000000000000019
  endloop
endfacet
facet normal -5.1874451564621264e-17 -1.2588350369114284e-16 -1.0
  outer loop
    vertex 80.43122196286156 47.36843457577457 -2.000000000000019
    vertex 81.43122196286154 75.20774746985492 -2.0000000000000133
    vertex 80.43122196286156 39.31653146985497 -2.000000000000019
  endloop
endfacet
facet normal -5.1874451564621264e-17 -1.2588350369114284e-16 -1.0
  outer loop
    vertex 80.43122196286156 39.31653146985497 -2.000000000000019
    vertex 81.43122196286154 75.20774746985492 -2.0000000000000133
    vertex 80.43122196286156 5.087142469854973 -2.000000000000019
  endloop
endfacet
facet normal -5.1874451564621264e-17 -1.2588350369114284e-16 -1.0
  outer loop
    vertex 80.43122196286156 5.087142469854973 -2.000000000000019
    vertex 81.43122196286154 75.20774746985492 -2.0000000000000133
    vertex 119.1389770261105 5.0871424698549745 -1.9999999999999962
  endloop
endfacet
facet normal -5.1874451564621264e-17 -1.2588350369114284e-16 -1.0
  outer loop
    vertex 119.1389770261105 5.0871424698549745 -1.9999999999999962
    vertex 81.43122196286154 75.20774746985492 -2.0000000000000133
    vertex 129.43122196286143 75.20774746985497 -2.0000000000000075
  endloop
endfacet
facet normal -5.1874451564621264e-17 -1.2588350369114284e-16 -1.0
  outer loop
    vertex 119.1389770261105 5.0871424698549745 -1.9999999999999962
    vertex 129.43122196286143 75.20774746985497 -2.0000000000000075
    vertex 127.29653579517 5.0871424698549745 -2.0000000000000018
  endloop
endfacet
facet normal -5.1874451564621264e-17 -1.2588350369114284e-16 -1.0
  outer loop
    vertex 127.29653579517 5.0871424698549745 -2.0000000000000018
    vertex 129.43122196286143 75.20774746985497 -2.0000000000000075
    vertex 129.43122196286143 5.0871424698549745 -2.0000000000000075
  endloop
endfacet
facet normal -5.1874451564621264e-17 -1.2588350369114284e-16 -1.0
  outer loop
    vertex 129.43122196286143 5.0871424698549745 -2.0000000000000075
    vertex 129.43122196286143 75.20774746985497 -2.0000000000000075
    vertex 130.43122196286143 75.20774746985497 -2.00000000000003
  endloop
endfacet
facet normal -5.1874451564621264e-17 -1.2588350369114284e-16 -1.0
  outer loop
    vertex 129.43122196286143 5.0871424698549745 -2.0000000000000075
    vertex 130.43122196286143 75.20774746985497 -2.00000000000003
    vertex 130.43122196286143 5.0871424698549745 -2.00000000000003
  endloop
endfacet
facet normal -5.1874451564621264e-17 -1.2588350369114284e-16 -1.0
  outer loop
    vertex 130.43122196286143 5.0871424698549745 -2.00000000000003
    vertex 130.43122196286143 75.20774746985497 -2.00000000000003
    vertex 130.43122196286143 59.901802314912665 -2.00000000000003
  endloop
endfacet
facet normal -5.1874451564621264e-17 -1.2588350369114284e-16 -1.0
  outer loop
    vertex 130.43122196286143 5.0871424698549745 -2.00000000000003
    vertex 130.43122196286143 59.901802314912665 -2.00000000000003
    vertex 130.43122196286143 38.88496418591986 -2.00000000000003
  endloop
endfacet
facet normal 1.0 -0.0 -0.0
  outer loop
    vertex 130.43122196286143 38.88496418591986 -2.00000000000003
    vertex 130.43122196286143 5.0871424698549745 0.0
    vertex 130.43122196286143 5.0871424698549745 -2.00000000000003
  endloop
endfacet
facet normal 1.0 -0.0 -0.0
  outer loop
    vertex 130.43122196286143 5.0871424698549745 0.0
    vertex 130.43122196286143 38.88496418591986 -2.00000000000003
    vertex 130.43122196286143 38.88496418591986 0.0
  endloop
endfacet
facet normal 0.0 -1.0 0.0
  outer loop
    vertex 130.43122196286143 5.0871424698549745 0.0
    vertex 129.43122196286143 5.0871424698549745 -2.0000000000000075
    vertex 130.43122196286143 5.0871424698549745 -2.00000000000003
  endloop
endfacet
facet normal 0.0 -1.0 0.0
  outer loop
    vertex 129.43122196286143 5.0871424698549745 -2.0000000000000075
    vertex 130.43122196286143 5.0871424698549745 0.0
    vertex 129.43122196286146 5.0871424698549745 1.6919798895287383e-14
  endloop
endfacet
facet normal 1.651276968265961e-16 -1.0 1.7624790515923957e-16
  outer loop
    vertex 129.43122196286146 5.0871424698549745 1.6919798895287383e-14
    vertex 127.29653579517 5.0871424698549745 -2.0000000000000018
    vertex 129.43122196286143 5.0871424698549745 -2.0000000000000075
  endloop
endfacet
facet normal 1.651276968265961e-16 -1.0 1.7624790515923957e-16
  outer loop
    vertex 127.29653579517 5.0871424698549745 -2.0000000000000018
    vertex 129.43122196286146 5.0871424698549745 1.6919798895287383e-14
    vertex 127.29653579517 5.0871424698549745 -1.127986593019159e-14
  endloop
endfacet
facet normal 3.642637603162514e-17 -1.0 -2.0255918633874722e-31
  outer loop
    vertex 119.1389770261105 5.0871424698549745 -1.9999999999999962
    vertex 80.43122196286153 5.087142469854973 0.0
    vertex 80.43122196286156 5.087142469854973 -2.000000000000019
  endloop
endfacet
facet normal 3.642637603162514e-17 -1.0 -2.0255918633874722e-31
  outer loop
    vertex 80.43122196286153 5.087142469854973 0.0
    vertex 119.1389770261105 5.0871424698549745 -1.9999999999999962
    vertex 119.13897702611054 5.0871424698549745 0.0
  endloop
endfacet
facet normal -1.0 0.0 -1.1279865930191483e-14
  outer loop
    vertex 80.43122196286153 39.31653146985497 0.0
    vertex 80.43122196286156 5.087142469854973 -2.000000000000019
    vertex 80.43122196286153 5.087142469854973 0.0
  endloop
endfacet
facet normal -1.0 0.0 -1.1279865930191483e-14
  outer loop
    vertex 80.43122196286156 5.087142469854973 -2.000000000000019
    vertex 80.43122196286153 39.31653146985497 0.0
    vertex 80.43122196286156 39.31653146985497 -2.000000000000019
  endloop
endfacet
facet normal -1.0 0.0 -1.1279865930191483e-14
  outer loop
    vertex 80.43122196286153 47.36843457577457 0.0
    vertex 80.43122196286156 39.31653146985497 -2.000000000000019
    vertex 80.43122196286153 39.31653146985497 0.0
  endloop
endfacet
facet normal -1.0 0.0 -1.1279865930191483e-14
  outer loop
    vertex 80.43122196286156 39.31653146985497 -2.000000000000019
    vertex 80.43122196286153 47.36843457577457 0.0
    vertex 80.43122196286156 47.36843457577457 -2.000000000000019
  endloop
endfacet
facet normal -1.0 0.0 -1.1279865930191483e-14
  outer loop
    vertex 80.43122196286153 58.0648020217035 0.0
    vertex 80.43122196286156 47.36843457577457 -2.000000000000019
    vertex 80.43122196286153 47.36843457577457 0.0
  endloop
endfacet
facet normal -1.0 0.0 -1.1279865930191483e-14
  outer loop
    vertex 80.43122196286156 47.36843457577457 -2.000000000000019
    vertex 80.43122196286153 58.0648020217035 0.0
    vertex 80.43122196286156 58.0648020217035 -2.000000000000019
  endloop
endfacet
facet normal -1.0 0.0 -1.1279865930191483e-14
  outer loop
    vertex 80.43122196286153 65.36029029562017 0.0
    vertex 80.43122196286156 58.0648020217035 -2.000000000000019
    vertex 80.43122196286153 58.0648020217035 0.0
  endloop
endfacet
facet normal -1.0 0.0 -1.1279865930191483e-14
  outer loop
    vertex 80.43122196286156 58.0648020217035 -2.000000000000019
    vertex 80.43122196286153 65.36029029562017 0.0
    vertex 80.43122196286156 65.36029029562017 -2.000000000000019
  endloop
endfacet
facet normal -1.0 0.0 -1.1279865930191483e-14
  outer loop
    vertex 80.43122196286153 74.02923246985497 0.0
    vertex 80.43122196286156 65.36029029562017 -2.000000000000019
    vertex 80.43122196286153 65.36029029562017 0.0
  endloop
endfacet
facet normal -1.0 0.0 -1.1279865930191483e-14
  outer loop
    vertex 80.43122196286156 65.36029029562017 -2.000000000000019
    vertex 80.43122196286153 74.02923246985497 0.0
    vertex 80.43122196286156 74.02923246985497 -2.000000000000019
  endloop
endfacet
facet normal -1.0 0.0 -1.1279865930191483e-14
  outer loop
    vertex 80.43122196286153 75.20774746985492 0.0
    vertex 80.43122196286156 74.02923246985497 -2.000000000000019
    vertex 80.43122196286153 74.02923246985497 0.0
  endloop
endfacet
facet normal -1.0 0.0 -1.1279865930191483e-14
  outer loop
    vertex 80.43122196286156 74.02923246985497 -2.000000000000019
    vertex 80.43122196286153 75.20774746985492 0.0
    vertex 80.43122196286156 75.20774746985492 -2.000000000000019
  endloop
endfacet
facet normal -0.0 1.0 -0.0
  outer loop
    vertex 80.43122196286153 75.20774746985492 0.0
    vertex 81.43122196286154 75.20774746985492 -2.0000000000000133
    vertex 80.43122196286156 75.20774746985492 -2.000000000000019
  endloop
endfacet
facet normal -0.0 1.0 -0.0
  outer loop
    vertex 81.43122196286154 75.20774746985492 -2.0000000000000133
    vertex 80.43122196286153 75.20774746985492 0.0
    vertex 81.43122196286151 75.20774746985492 1.127986593019159e-14
  endloop
endfacet
facet normal -9.399888275159675e-16 1.0 4.763043024530002e-30
  outer loop
    vertex 81.43122196286151 75.20774746985492 1.127986593019159e-14
    vertex 129.43122196286143 75.20774746985497 -2.0000000000000075
    vertex 81.43122196286154 75.20774746985492 -2.0000000000000133
  endloop
endfacet
facet normal -9.399888275159675e-16 1.0 4.763043024530002e-30
  outer loop
    vertex 129.43122196286143 75.20774746985497 -2.0000000000000075
    vertex 81.43122196286151 75.20774746985492 1.127986593019159e-14
    vertex 129.43122196286146 75.20774746985497 1.6919798895287383e-14
  endloop
endfacet
facet normal -0.0 1.0 -0.0
  outer loop
    vertex 129.43122196286143 75.20774746985497 -2.0000000000000075
    vertex 130.43122196286143 75.20774746985497 0.0
    vertex 130.43122196286143 75.20774746985497 -2.00000000000003
  endloop
endfacet
facet normal -0.0 1.0 -0.0
  outer loop
    vertex 130.43122196286143 75.20774746985497 0.0
    vertex 129.43122196286143 75.20774746985497 -2.0000000000000075
    vertex 129.43122196286146 75.20774746985497 1.6919798895287383e-14
  endloop
endfacet
facet normal 1.0 -0.0 -0.0
  outer loop
    vertex 130.43122196286143 75.20774746985497 -2.00000000000003
    vertex 130.43122196286143 59.901802314912665 0.0
    vertex 130.43122196286143 59.901802314912665 -2.00000000000003
  endloop
endfacet
facet normal 1.0 -0.0 -0.0
  outer loop
    vertex 130.43122196286143 59.901802314912665 0.0
    vertex 130.43122196286143 75.20774746985497 -2.00000000000003
    vertex 130.43122196286143 75.20774746985497 0.0
  endloop
endfacet
facet normal -6.913750945303985e-16 0.0 -1.0
  outer loop
    vertex 127.29653579517 5.0871424698549745 -2.0000000000000018
    vertex 119.1389770261105 4.0855442168772 -1.9999999999999962
    vertex 119.1389770261105 5.0871424698549745 -1.9999999999999962
  endloop
endfacet
facet normal -6.913750945303985e-16 0.0 -1.0
  outer loop
    vertex 119.1389770261105 4.0855442168772 -1.9999999999999962
    vertex 127.29653579517 5.0871424698549745 -2.0000000000000018
    vertex 127.29653579517 4.0855442168772 -2.0000000000000018
  endloop
endfacet
facet normal 4.3210943408150085e-17 -1.0 1.7624790515924344e-16
  outer loop
    vertex 127.29653579517 5.0871424698549745 -1.127986593019159e-14
    vertex 119.1389770261105 5.0871424698549745 -1.9999999999999962
    vertex 127.29653579517 5.0871424698549745 -2.0000000000000018
  endloop
endfacet
facet normal 4.3210943408150085e-17 -1.0 1.7624790515924344e-16
  outer loop
    vertex 119.1389770261105 5.0871424698549745 -1.9999999999999962
    vertex 127.29653579517 5.0871424698549745 -1.127986593019159e-14
    vertex 119.13897702611054 5.0871424698549745 0.0
  endloop
endfacet
facet normal 1.0370626417955993e-15 6.334799972812595e-15 1.0
  outer loop
    vertex 127.29653579517 4.0855442168772 -2.114974861910923e-15
    vertex 119.13897702611054 5.0871424698549745 0.0
    vertex 119.1389770261105 4.0855442168772 3.524958103184872e-15
  endloop
endfacet
facet normal 1.0370626417955993e-15 6.334799972812595e-15 1.0
  outer loop
    vertex 119.13897702611054 5.0871424698549745 0.0
    vertex 127.29653579517 4.0855442168772 -2.114974861910923e-15
    vertex 127.29653579517 5.0871424698549745 -1.127986593019159e-14
  endloop
endfacet
facet normal 1.0 -0.0 -0.0
  outer loop
    vertex 127.29653579517 5.0871424698549745 -2.0000000000000018
    vertex 127.29653579517 4.0855442168772 -2.114974861910923e-15
    vertex 127.29653579517 4.0855442168772 -2.0000000000000018
  endloop
endfacet
facet normal 1.0 -0.0 -0.0
  outer loop
    vertex 127.29653579517 4.0855442168772 -2.114974861910923e-15
    vertex 127.29653579517 5.0871424698549745 -2.0000000000000018
    vertex 127.29653579517 5.0871424698549745 -1.127986593019159e-14
  endloop
endfacet
facet normal -0.0 -1.0 0.0
  outer loop
    vertex 127.29653579517 4.0855442168772 -2.114974861910923e-15
    vertex 119.1389770261105 4.0855442168772 -1.9999999999999962
    vertex 127.29653579517 4.0855442168772 -2.0000000000000018
  endloop
endfacet
facet normal -0.0 -1.0 0.0
  outer loop
    vertex 119.1389770261105 4.0855442168772 -1.9999999999999962
    vertex 127.29653579517 4.0855442168772 -2.114974861910923e-15
    vertex 119.1389770261105 4.0855442168772 3.524958103184872e-15
  endloop
endfacet
facet normal -1.0 2.2523733236667105e-14 1.127986593019159e-14
  outer loop
    vertex 119.13897702611054 5.0871424698549745 0.0
    vertex 119.1389770261105 4.0855442168772 -1.9999999999999962
    vertex 119.1389770261105 4.0855442168772 3.524958103184872e-15
  endloop
endfacet
facet normal -1.0 2.2523733236667105e-14 1.127986593019159e-14
  outer loop
    vertex 119.1389770261105 4.0855442168772 -1.9999999999999962
    vertex 119.13897702611054 5.0871424698549745 0.0
    vertex 119.1389770261105 5.0871424698549745 -1.9999999999999962
  endloop
endfacet
facet normal 1.0 -0.0 -0.0
  outer loop
    vertex 130.43122196286143 59.901802314912665 -2.00000000000003
    vertex 130.43122196286143 38.88496418591986 0.0
    vertex 130.43122196286143 38.88496418591986 -2.00000000000003
  endloop
endfacet
facet normal 1.0 -0.0 -0.0
  outer loop
    vertex 130.43122196286143 38.88496418591986 0.0
    vertex 130.43122196286143 59.901802314912665 -2.00000000000003
    vertex 130.43122196286143 59.901802314912665 0.0
  endloop
endfacet
facet normal 0.0 0.0 -1.0
  outer loop
    vertex 80.43122196286156 47.36843457577457 -2.000000000000019
    vertex 79.43122196286156 39.31653146985497 -2.000000000000019
    vertex 79.43122196286156 47.36843457577457 -2.000000000000019
  endloop
endfacet
facet normal 0.0 0.0 -1.0
  outer loop
    vertex 79.43122196286156 39.31653146985497 -2.000000000000019
    vertex 80.43122196286156 47.36843457577457 -2.000000000000019
    vertex 80.43122196286156 39.31653146985497 -2.000000000000019
  endloop
endfacet
facet normal -1.903477375719877e-14 -0.0 1.0
  outer loop
    vertex 80.43122196286153 39.31653146985497 0.0
    vertex 79.43122196286156 47.36843457577457 -1.9034773757198308e-14
    vertex 79.43122196286156 39.31653146985497 -1.9034773757198308e-14
  endloop
endfacet
facet normal -1.903477375719877e-14 -0.0 1.0
  outer loop
    vertex 79.43122196286156 47.36843457577457 -1.9034773757198308e-14
    vertex 80.43122196286153 39.31653146985497 0.0
    vertex 80.43122196286153 47.36843457577457 0.0
  endloop
endfacet
facet normal 0.0 -1.0 0.0
  outer loop
    vertex 80.43122196286153 39.31653146985497 0.0
    vertex 79.43122196286156 39.31653146985497 -2.000000000000019
    vertex 80.43122196286156 39.31653146985497 -2.000000000000019
  endloop
endfacet
facet normal 0.0 -1.0 0.0
  outer loop
    vertex 79.43122196286156 39.31653146985497 -2.000000000000019
    vertex 80.43122196286153 39.31653146985497 0.0
    vertex 79.43122196286156 39.31653146985497 -1.9034773757198308e-14
  endloop
endfacet
facet normal -1.0 0.0 0.0
  outer loop
    vertex 79.43122196286156 47.36843457577457 -1.9034773757198308e-14
    vertex 79.43122196286156 39.31653146985497 -2.000000000000019
    vertex 79.43122196286156 39.31653146985497 -1.9034773757198308e-14
  endloop
endfacet
facet normal -1.0 0.0 0.0
  outer loop
    vertex 79.43122196286156 39.31653146985497 -2.000000000000019
    vertex 79.43122196286156 47.36843457577457 -1.9034773757198308e-14
    vertex 79.43122196286156 47.36843457577457 -2.000000000000019
  endloop
endfacet
facet normal -0.0 1.0 -0.0
  outer loop
    vertex 79.43122196286156 47.36843457577457 -1.9034773757198308e-14
    vertex 80.43122196286156 47.36843457577457 -2.000000000000019
    vertex 79.43122196286156 47.36843457577457 -2.000000000000019
  endloop
endfacet
facet normal -0.0 1.0 -0.0
  outer loop
    vertex 80.43122196286156 47.36843457577457 -2.000000000000019
    vertex 79.43122196286156 47.36843457577457 -1.9034773757198308e-14
    vertex 80.43122196286153 47.36843457577457 0.0
  endloop
endfacet
facet normal 0.0 0.0 -1.0
  outer loop
    vertex 80.43122196286156 65.36029029562017 -2.000000000000019
    vertex 79.43122196286156 58.0648020217035 -2.000000000000019
    vertex 79.43122196286156 65.36029029562017 -2.000000000000019
  endloop
endfacet
facet normal 0.0 0.0 -1.0
  outer loop
    vertex 79.43122196286156 58.0648020217035 -2.000000000000019
    vertex 80.43122196286156 65.36029029562017 -2.000000000000019
    vertex 80.43122196286156 58.0648020217035 -2.000000000000019
  endloop
endfacet
facet normal -1.9034773757198775e-14 -0.0 1.0
  outer loop
    vertex 80.43122196286153 58.0648020217035 0.0
    vertex 79.43122196286156 65.36029029562017 -1.9034773757198308e-14
    vertex 79.43122196286156 58.0648020217035 -1.9034773757198308e-14
  endloop
endfacet
facet normal -1.9034773757198775e-14 -0.0 1.0
  outer loop
    vertex 79.43122196286156 65.36029029562017 -1.9034773757198308e-14
    vertex 80.43122196286153 58.0648020217035 0.0
    vertex 80.43122196286153 65.36029029562017 0.0
  endloop
endfacet
facet normal -0.0 1.0 -0.0
  outer loop
    vertex 79.43122196286156 65.36029029562017 -1.9034773757198308e-14
    vertex 80.43122196286156 65.36029029562017 -2.000000000000019
    vertex 79.43122196286156 65.36029029562017 -2.000000000000019
  endloop
endfacet
facet normal -0.0 1.0 -0.0
  outer loop
    vertex 80.43122196286156 65.36029029562017 -2.000000000000019
    vertex 79.43122196286156 65.36029029562017 -1.9034773757198308e-14
    vertex 80.43122196286153 65.36029029562017 0.0
  endloop
endfacet
facet normal 0.0 -1.0 0.0
  outer loop
    vertex 80.43122196286153 58.0648020217035 0.0
    vertex 79.43122196286156 58.0648020217035 -2.000000000000019
    vertex 80.43122196286156 58.0648020217035 -2.000000000000019
  endloop
endfacet
facet normal 0.0 -1.0 0.0
  outer loop
    vertex 79.43122196286156 58.0648020217035 -2.000000000000019
    vertex 80.43122196286153 58.0648020217035 0.0
    vertex 79.43122196286156 58.0648020217035 -1.9034773757198308e-14
  endloop
endfacet
facet normal -1.0 0.0 0.0
  outer loop
    vertex 79.43122196286156 65.36029029562017 -1.9034773757198308e-14
    vertex 79.43122196286156 58.0648020217035 -2.000000000000019
    vertex 79.43122196286156 58.0648020217035 -1.9034773757198308e-14
  endloop
endfacet
facet normal -1.0 0.0 0.0
  outer loop
    vertex 79.43122196286156 58.0648020217035 -2.000000000000019
    vertex 79.43122196286156 65.36029029562017 -1.9034773757198308e-14
    vertex 79.43122196286156 65.36029029562017 -2.000000000000019
  endloop
endfacet
facet normal 0.0 0.0 -1.0
  outer loop
    vertex 131.43122196286143 59.901802314912665 -2.00000000000003
    vertex 130.43122196286143 38.88496418591986 -2.00000000000003
    vertex 130.43122196286143 59.901802314912665 -2.00000000000003
  endloop
endfacet
facet normal 0.0 0.0 -1.0
  outer loop
    vertex 130.43122196286143 38.88496418591986 -2.00000000000003
    vertex 131.43122196286143 59.901802314912665 -2.00000000000003
    vertex 131.43122196286143 38.88496418591986 -2.00000000000003
  endloop
endfacet
facet normal 3.031463968738996e-14 -0.0 1.0
  outer loop
    vertex 131.43122196286143 38.88496418591986 -3.03146396873899e-14
    vertex 130.43122196286143 59.901802314912665 0.0
    vertex 130.43122196286143 38.88496418591986 0.0
  endloop
endfacet
facet normal 3.031463968738996e-14 -0.0 1.0
  outer loop
    vertex 130.43122196286143 59.901802314912665 0.0
    vertex 131.43122196286143 38.88496418591986 -3.03146396873899e-14
    vertex 131.43122196286143 59.901802314912665 -3.03146396873899e-14
  endloop
endfacet
facet normal 1.0 -0.0 -0.0
  outer loop
    vertex 131.43122196286143 59.901802314912665 -2.00000000000003
    vertex 131.43122196286143 38.88496418591986 -3.03146396873899e-14
    vertex 131.43122196286143 38.88496418591986 -2.00000000000003
  endloop
endfacet
facet normal 1.0 -0.0 -0.0
  outer loop
    vertex 131.43122196286143 38.88496418591986 -3.03146396873899e-14
    vertex 131.43122196286143 59.901802314912665 -2.00000000000003
    vertex 131.43122196286143 59.901802314912665 -3.03146396873899e-14
  endloop
endfacet
facet normal 0.0 -1.0 0.0
  outer loop
    vertex 131.43122196286143 38.88496418591986 -3.03146396873899e-14
    vertex 130.43122196286143 38.88496418591986 -2.00000000000003
    vertex 131.43122196286143 38.88496418591986 -2.00000000000003
  endloop
endfacet
facet normal 0.0 -1.0 0.0
  outer loop
    vertex 130.43122196286143 38.88496418591986 -2.00000000000003
    vertex 131.43122196286143 38.88496418591986 -3.03146396873899e-14
    vertex 130.43122196286143 38.88496418591986 0.0
  endloop
endfacet
facet normal -0.0 1.0 -0.0
  outer loop
    vertex 130.43122196286143 59.901802314912665 0.0
    vertex 131.43122196286143 59.901802314912665 -2.00000000000003
    vertex 130.43122196286143 59.901802314912665 -2.00000000000003
  endloop
endfacet
facet normal -0.0 1.0 -0.0
  outer loop
    vertex 131.43122196286143 59.901802314912665 -2.00000000000003
    vertex 130.43122196286143 59.901802314912665 0.0
    vertex 131.43122196286143 59.901802314912665 -3.03146396873899e-14
  endloop
endfacet
endsolid pcb enclosure 1
