solid pcb enclosure 1
facet normal 0.0 0.0 -1.0
  outer loop
    vertex 51.99999999999999 68.5 0.0
    vertex 0.0 -4.028509 0.0
    vertex 0.0 68.5 0.0
  endloop
endfacet
facet normal 0.0 0.0 -1.0
  outer loop
    vertex 0.0 -4.028509 0.0
    vertex 51.99999999999999 68.5 0.0
    vertex 51.99999999999999 -4.028509 0.0
  endloop
endfacet
facet normal -0.0 1.0 -0.0
  outer loop
    vertex 0.0 68.5 15.999999999999998
    vertex 51.99999999999999 68.5 0.0
    vertex 0.0 68.5 0.0
  endloop
endfacet
facet normal -0.0 1.0 -0.0
  outer loop
    vertex 51.99999999999999 68.5 0.0
    vertex 0.0 68.5 15.999999999999998
    vertex 51.99999999999999 68.5 15.999999999999998
  endloop
endfacet
facet normal -0.0 1.0 -0.0
  outer loop
    vertex 51.99999999999999 68.5 15.999999999999998
    vertex 0.0 68.5 15.999999999999998
    vertex 0.9999999999999981 68.5 15.999999999999998
  endloop
endfacet
facet normal -0.0 1.0 -0.0
  outer loop
    vertex 51.99999999999999 68.5 15.999999999999998
    vertex 0.9999999999999981 68.5 15.999999999999998
    vertex 2.0000000000000018 68.5 15.999999999999998
  endloop
endfacet
facet normal -0.0 1.0 -0.0
  outer loop
    vertex 51.99999999999999 68.5 15.999999999999998
    vertex 2.0000000000000018 68.5 15.999999999999998
    vertex 49.99999999999999 68.5 15.999999999999998
  endloop
endfacet
facet normal -0.0 1.0 -0.0
  outer loop
    vertex 51.99999999999999 68.5 15.999999999999998
    vertex 49.99999999999999 68.5 15.999999999999998
    vertex 51.0 68.5 15.999999999999998
  endloop
endfacet
facet normal 1.0 -0.0 -0.0
  outer loop
    vertex 51.99999999999999 68.5 0.0
    vertex 51.99999999999999 -4.028509 15.999999999999998
    vertex 51.99999999999999 -4.028509 0.0
  endloop
endfacet
facet normal 1.0 -0.0 -0.0
  outer loop
    vertex 51.99999999999999 -4.028509 15.999999999999998
    vertex 51.99999999999999 68.5 0.0
    vertex 51.99999999999999 31.430269000000003 8.968249000000007
  endloop
endfacet
facet normal 1.0 -0.0 -0.0
  outer loop
    vertex 51.99999999999999 31.430269000000003 8.968249000000007
    vertex 51.99999999999999 68.5 0.0
    vertex 51.99999999999999 39.482172105919595 8.968249000000007
  endloop
endfacet
facet normal 1.0 -0.0 -0.0
  outer loop
    vertex 51.99999999999999 39.482172105919595 8.968249000000007
    vertex 51.99999999999999 68.5 0.0
    vertex 51.99999999999999 50.17853955184852 8.957329999999999
  endloop
endfacet
facet normal 1.0 -0.0 -0.0
  outer loop
    vertex 51.99999999999999 39.482172105919595 8.968249000000007
    vertex 51.99999999999999 50.17853955184852 8.957329999999999
    vertex 51.99999999999999 39.482172105919595 15.999999999999998
  endloop
endfacet
facet normal 1.0 -0.0 -0.0
  outer loop
    vertex 51.99999999999999 50.17853955184852 8.957329999999999
    vertex 51.99999999999999 68.5 0.0
    vertex 51.99999999999999 57.4740278257652 8.957329999999999
  endloop
endfacet
facet normal 1.0 -0.0 -0.0
  outer loop
    vertex 51.99999999999999 57.4740278257652 8.957329999999999
    vertex 51.99999999999999 68.5 0.0
    vertex 51.99999999999999 57.4740278257652 15.999999999999998
  endloop
endfacet
facet normal 1.0 -0.0 -0.0
  outer loop
    vertex 51.99999999999999 57.4740278257652 15.999999999999998
    vertex 51.99999999999999 68.5 0.0
    vertex 51.99999999999999 66.14296999999999 15.999999999999998
  endloop
endfacet
facet normal 1.0 -0.0 -0.0
  outer loop
    vertex 51.99999999999999 66.14296999999999 15.999999999999998
    vertex 51.99999999999999 68.5 0.0
    vertex 51.99999999999999 68.5 15.999999999999998
  endloop
endfacet
facet normal 1.0 -0.0 -0.0
  outer loop
    vertex 51.99999999999999 50.17853955184852 15.999999999999998
    vertex 51.99999999999999 39.482172105919595 15.999999999999998
    vertex 51.99999999999999 50.17853955184852 8.957329999999999
  endloop
endfacet
facet normal 1.0 -0.0 -0.0
  outer loop
    vertex 51.99999999999999 31.430269000000003 15.999999999999998
    vertex 51.99999999999999 -4.028509 15.999999999999998
    vertex 51.99999999999999 31.430269000000003 8.968249000000007
  endloop
endfacet
facet normal 0.0 -1.0 0.0
  outer loop
    vertex 51.99999999999999 -4.028509 15.999999999999998
    vertex 0.0 -4.028509 0.0
    vertex 51.99999999999999 -4.028509 0.0
  endloop
endfacet
facet normal 0.0 -1.0 0.0
  outer loop
    vertex 0.0 -4.028509 0.0
    vertex 51.99999999999999 -4.028509 15.999999999999998
    vertex 12.292244936750933 -4.028509 8.952814803778663
  endloop
endfacet
facet normal 0.0 -1.0 0.0
  outer loop
    vertex 12.292244936750933 -4.028509 8.952814803778663
    vertex 51.99999999999999 -4.028509 15.999999999999998
    vertex 12.292244936750933 -4.028509 15.999999999999998
  endloop
endfacet
facet normal 0.0 -1.0 0.0
  outer loop
    vertex 4.994872854082684 -4.028509 8.966927
    vertex 4.134686167691426 -4.028509 8.952814803778663
    vertex 12.292244936750933 -4.028509 8.952814803778663
  endloop
endfacet
facet normal 0.0 -1.0 0.0
  outer loop
    vertex 0.0 -4.028509 0.0
    vertex 4.134686167691426 -4.028509 8.952814803778663
    vertex 0.0 -4.028509 15.999999999999998
  endloop
endfacet
facet normal 0.0 -1.0 0.0
  outer loop
    vertex 4.134686167691426 -4.028509 8.952814803778663
    vertex 0.0 -4.028509 0.0
    vertex 12.292244936750933 -4.028509 8.952814803778663
  endloop
endfacet
facet normal 0.0 -1.0 0.0
  outer loop
    vertex 0.0 -4.028509 15.999999999999998
    vertex 4.134686167691426 -4.028509 8.952814803778663
    vertex 4.134686167691426 -4.028509 15.999999999999998
  endloop
endfacet
facet normal 0.0 -1.0 0.0
  outer loop
    vertex 0.0 -4.028509 15.999999999999998
    vertex 4.134686167691426 -4.028509 15.999999999999998
    vertex 1.9999999999999998 -4.028509 15.999999999999998
  endloop
endfacet
facet normal 0.0 -1.0 0.0
  outer loop
    vertex 0.0 -4.028509 15.999999999999998
    vertex 1.9999999999999998 -4.028509 15.999999999999998
    vertex 0.9999999999999999 -4.028509 15.999999999999998
  endloop
endfacet
facet normal -1.0 0.0 0.0
  outer loop
    vertex 0.0 68.5 15.999999999999998
    vertex 0.0 52.01553984505768 8.94785700000001
    vertex 0.0 52.01553984505768 15.999999999999998
  endloop
endfacet
facet normal -1.0 0.0 0.0
  outer loop
    vertex 0.0 30.99870171606489 15.999999999999998
    vertex 0.0 -4.028509 0.0
    vertex 0.0 -4.028509 15.999999999999998
  endloop
endfacet
facet normal -1.0 0.0 0.0
  outer loop
    vertex 0.0 -4.028509 0.0
    vertex 0.0 30.99870171606489 15.999999999999998
    vertex 0.0 30.99870171606489 8.94785700000001
  endloop
endfacet
facet normal -1.0 0.0 0.0
  outer loop
    vertex 0.0 -4.028509 0.0
    vertex 0.0 30.99870171606489 8.94785700000001
    vertex 0.0 68.5 0.0
  endloop
endfacet
facet normal -1.0 0.0 0.0
  outer loop
    vertex 0.0 68.5 0.0
    vertex 0.0 30.99870171606489 8.94785700000001
    vertex 0.0 52.01553984505768 8.94785700000001
  endloop
endfacet
facet normal -1.0 0.0 0.0
  outer loop
    vertex 0.0 68.5 0.0
    vertex 0.0 52.01553984505768 8.94785700000001
    vertex 0.0 68.5 15.999999999999998
  endloop
endfacet
facet normal 0.0 -1.0 0.0
  outer loop
    vertex 49.99999999999999 66.14296999999999 14.0
    vertex 1.9999999999999998 66.14296999999999 8.966927000000002
    vertex 49.99999999999999 66.14296999999999 8.966927000000002
  endloop
endfacet
facet normal 0.0 -1.0 0.0
  outer loop
    vertex 1.9999999999999998 66.14296999999999 8.966927000000002
    vertex 49.99999999999999 66.14296999999999 14.0
    vertex 1.9999999999999998 66.14296999999999 14.0
  endloop
endfacet
facet normal 1.0 -0.0 -0.0
  outer loop
    vertex 1.9999999999999998 30.99870171606489 8.966927000000002
    vertex 1.9999999999999998 -1.5697309999999998 14.0
    vertex 1.9999999999999998 -1.5697309999999998 8.966927000000002
  endloop
endfacet
facet normal 1.0 -0.0 -0.0
  outer loop
    vertex 1.9999999999999998 -1.5697309999999998 14.0
    vertex 1.9999999999999998 30.99870171606489 8.966927000000002
    vertex 1.9999999999999998 30.99870171606489 14.0
  endloop
endfacet
facet normal 7.251503388918666e-18 -7.719510491520378e-18 1.0
  outer loop
    vertex 49.99999999999999 57.4740278257652 8.966927000000002
    vertex 47.994872854082686 63.00205415442739 8.966926999999998
    vertex 47.994872854082686 57.4740278257652 8.966927
  endloop
endfacet
facet normal 7.251503388918666e-18 -7.719510491520378e-18 1.0
  outer loop
    vertex 4.134686167691426 -1.5697310000000009 8.966927
    vertex 1.9999999999999998 30.99870171606489 8.966927000000002
    vertex 1.9999999999999998 -1.5697309999999998 8.966927000000002
  endloop
endfacet
facet normal 7.251503388918666e-18 -7.719510491520378e-18 1.0
  outer loop
    vertex 1.9999999999999998 30.99870171606489 8.966927000000002
    vertex 4.134686167691426 -1.5697310000000009 8.966927
    vertex 1.9999999999999998 52.01553984505768 8.966927000000002
  endloop
endfacet
facet normal 7.251503388918666e-18 -7.719510491520378e-18 1.0
  outer loop
    vertex 1.9999999999999998 52.01553984505768 8.966927000000002
    vertex 4.134686167691426 -1.5697310000000009 8.966927
    vertex 1.9999999999999998 66.14296999999999 8.966927000000002
  endloop
endfacet
facet normal 7.251503388918666e-18 -7.719510491520378e-18 1.0
  outer loop
    vertex 1.9999999999999998 66.14296999999999 8.966927000000002
    vertex 4.134686167691426 -1.5697310000000009 8.966927
    vertex 4.994872854082684 63.00205415442739 8.966926999999998
  endloop
endfacet
facet normal 7.251503388918666e-18 -7.719510491520378e-18 1.0
  outer loop
    vertex 1.9999999999999998 66.14296999999999 8.966927000000002
    vertex 4.994872854082684 63.00205415442739 8.966926999999998
    vertex 49.99999999999999 66.14296999999999 8.966927000000002
  endloop
endfacet
facet normal 7.251503388918666e-18 -7.719510491520378e-18 1.0
  outer loop
    vertex 4.994872854082684 63.00205415442739 8.966926999999998
    vertex 4.134686167691426 -1.5697310000000009 8.966927
    vertex 4.994872854082684 -1.569731000000001 8.966927
  endloop
endfacet
facet normal 7.251503388918666e-18 -7.719510491520378e-18 1.0
  outer loop
    vertex 4.994872854082684 63.00205415442739 8.966926999999998
    vertex 4.994872854082684 -1.569731000000001 8.966927
    vertex 4.994872854082684 -0.9979458455726011 8.966926999999998
  endloop
endfacet
facet normal 7.251503388918666e-18 -7.719510491520378e-18 1.0
  outer loop
    vertex 49.99999999999999 66.14296999999999 8.966927000000002
    vertex 4.994872854082684 63.00205415442739 8.966926999999998
    vertex 47.994872854082686 63.00205415442739 8.966926999999998
  endloop
endfacet
facet normal 7.251503388918666e-18 -7.719510491520378e-18 1.0
  outer loop
    vertex 49.99999999999999 66.14296999999999 8.966927000000002
    vertex 47.994872854082686 63.00205415442739 8.966926999999998
    vertex 49.99999999999999 57.4740278257652 8.966927000000002
  endloop
endfacet
facet normal -1.606132240996736e-17 1.0 -8.795823433684663e-17
  outer loop
    vertex 12.292244936750933 -1.5697309999999998 14.0
    vertex 47.994872854082686 -1.5697309999999998 8.966927
    vertex 12.292244936750933 -1.5697310000000009 8.966927
  endloop
endfacet
facet normal -1.606132240996736e-17 1.0 -8.795823433684663e-17
  outer loop
    vertex 47.994872854082686 -1.5697309999999998 8.966927
    vertex 12.292244936750933 -1.5697309999999998 14.0
    vertex 49.99999999999999 -1.5697309999999998 8.966927000000002
  endloop
endfacet
facet normal -1.606132240996736e-17 1.0 -8.795823433684663e-17
  outer loop
    vertex 49.99999999999999 -1.5697309999999998 8.966927000000002
    vertex 12.292244936750933 -1.5697309999999998 14.0
    vertex 49.99999999999999 -1.5697309999999998 14.0
  endloop
endfacet
facet normal -0.0 -0.0 1.0
  outer loop
    vertex 49.93979685408268 -0.9979458455726011 2.1567459999999983
    vertex 4.994872854082684 63.00205415442739 2.1567459999999983
    vertex 4.994872854082684 -0.9979458455726011 2.1567459999999983
  endloop
endfacet
facet normal -0.0 -0.0 1.0
  outer loop
    vertex 4.994872854082684 63.00205415442739 2.1567459999999983
    vertex 49.93979685408268 -0.9979458455726011 2.1567459999999983
    vertex 47.994872854082686 4.77191771331071 2.1567459999999983
  endloop
endfacet
facet normal -0.0 -0.0 1.0
  outer loop
    vertex 47.994872854082686 4.77191771331071 2.1567459999999983
    vertex 49.93979685408268 -0.9979458455726011 2.1567459999999983
    vertex 49.93979685408268 4.77191771331071 2.1567459999999983
  endloop
endfacet
facet normal -0.0 -0.0 1.0
  outer loop
    vertex 47.994872854082686 63.00205415442739 2.1567459999999983
    vertex 4.994872854082684 63.00205415442739 2.1567459999999983
    vertex 47.994872854082686 4.77191771331071 2.1567459999999983
  endloop
endfacet
facet normal 1.0 0.0 -0.0
  outer loop
    vertex 4.994872854082684 63.00205415442739 2.1567459999999983
    vertex 4.994872854082684 -0.9979458455726011 8.966926999999998
    vertex 4.994872854082684 -0.9979458455726011 2.1567459999999983
  endloop
endfacet
facet normal 1.0 0.0 -0.0
  outer loop
    vertex 4.994872854082684 -0.9979458455726011 8.966926999999998
    vertex 4.994872854082684 63.00205415442739 2.1567459999999983
    vertex 4.994872854082684 63.00205415442739 8.966926999999998
  endloop
endfacet
facet normal -0.0 1.0 -0.0
  outer loop
    vertex 4.994872854082684 -0.9979458455726011 8.966926999999998
    vertex 49.93979685408268 -0.9979458455726011 2.1567459999999983
    vertex 4.994872854082684 -0.9979458455726011 2.1567459999999983
  endloop
endfacet
facet normal -0.0 1.0 -0.0
  outer loop
    vertex 49.93979685408268 -0.9979458455726011 2.1567459999999983
    vertex 4.994872854082684 -0.9979458455726011 8.966926999999998
    vertex 49.93979685408268 -0.9979458455726011 8.966926999999998
  endloop
endfacet
facet normal -0.0 1.0 -0.0
  outer loop
    vertex 49.93979685408268 -0.9979458455726011 8.966926999999998
    vertex 4.994872854082684 -0.9979458455726011 8.966926999999998
    vertex 47.994872854082686 -0.9979458455726011 8.966926999999998
  endloop
endfacet
facet normal -0.0 -1.0 1.1112157506859746e-17
  outer loop
    vertex 47.994872854082686 63.00205415442739 8.966926999999998
    vertex 4.994872854082684 63.00205415442739 2.1567459999999983
    vertex 47.994872854082686 63.00205415442739 2.1567459999999983
  endloop
endfacet
facet normal -0.0 -1.0 1.1112157506859746e-17
  outer loop
    vertex 4.994872854082684 63.00205415442739 2.1567459999999983
    vertex 47.994872854082686 63.00205415442739 8.966926999999998
    vertex 4.994872854082684 63.00205415442739 8.966926999999998
  endloop
endfacet
facet normal 2.4769154523990045e-16 1.0 -1.050538538737131e-16
  outer loop
    vertex 1.9999999999999998 -1.5697309999999998 8.966927000000002
    vertex 4.134686167691426 -1.5697309999999998 14.0
    vertex 4.134686167691426 -1.5697310000000009 8.966927
  endloop
endfacet
facet normal 2.4769154523990045e-16 1.0 -1.050538538737131e-16
  outer loop
    vertex 4.134686167691426 -1.5697309999999998 14.0
    vertex 1.9999999999999998 -1.5697309999999998 8.966927000000002
    vertex 1.9999999999999998 -1.5697309999999998 14.0
  endloop
endfacet
facet normal 1.0 -0.0 -0.0
  outer loop
    vertex 1.9999999999999998 66.14296999999999 8.966927000000002
    vertex 1.9999999999999998 52.01553984505768 14.0
    vertex 1.9999999999999998 52.01553984505768 8.966927000000002
  endloop
endfacet
facet normal 1.0 -0.0 -0.0
  outer loop
    vertex 1.9999999999999998 52.01553984505768 14.0
    vertex 1.9999999999999998 66.14296999999999 8.966927000000002
    vertex 1.9999999999999998 66.14296999999999 14.0
  endloop
endfacet
facet normal -1.0 0.0 0.0
  outer loop
    vertex 49.99999999999999 31.430269000000003 14.0
    vertex 49.99999999999999 -1.5697309999999998 8.966927000000002
    vertex 49.99999999999999 -1.5697309999999998 14.0
  endloop
endfacet
facet normal -1.0 0.0 0.0
  outer loop
    vertex 49.99999999999999 -1.5697309999999998 8.966927000000002
    vertex 49.99999999999999 31.430269000000003 14.0
    vertex 49.99999999999999 31.430269000000003 8.966927000000002
  endloop
endfacet
facet normal 0.0 -1.0 0.0
  outer loop
    vertex 51.99999999999999 39.482172105919595 15.999999999999998
    vertex 51.0 39.482172105919595 14.0
    vertex 51.99999999999999 39.482172105919595 8.968249000000007
  endloop
endfacet
facet normal 0.0 -1.0 0.0
  outer loop
    vertex 51.0 39.482172105919595 14.0
    vertex 51.99999999999999 39.482172105919595 15.999999999999998
    vertex 51.0 39.482172105919595 15.999999999999998
  endloop
endfacet
facet normal 0.0 -1.0 0.0
  outer loop
    vertex 51.99999999999999 39.482172105919595 8.968249000000007
    vertex 49.99999999999999 39.482172105919595 14.0
    vertex 49.99999999999999 39.482172105919595 8.966927000000002
  endloop
endfacet
facet normal 0.0 -1.0 0.0
  outer loop
    vertex 49.99999999999999 39.482172105919595 14.0
    vertex 51.99999999999999 39.482172105919595 8.968249000000007
    vertex 51.0 39.482172105919595 14.0
  endloop
endfacet
facet normal -0.0 1.0 -0.0
  outer loop
    vertex 49.99999999999999 31.430269000000003 14.0
    vertex 51.99999999999999 31.430269000000003 8.968249000000007
    vertex 49.99999999999999 31.430269000000003 8.966927000000002
  endloop
endfacet
facet normal -0.0 1.0 -0.0
  outer loop
    vertex 51.99999999999999 31.430269000000003 8.968249000000007
    vertex 49.99999999999999 31.430269000000003 14.0
    vertex 51.0 31.430269000000003 14.0
  endloop
endfacet
facet normal -0.0 1.0 -0.0
  outer loop
    vertex 51.99999999999999 31.430269000000003 8.968249000000007
    vertex 51.0 31.430269000000003 14.0
    vertex 51.99999999999999 31.430269000000003 15.999999999999998
  endloop
endfacet
facet normal -0.0 1.0 -0.0
  outer loop
    vertex 51.99999999999999 31.430269000000003 15.999999999999998
    vertex 51.0 31.430269000000003 14.0
    vertex 51.0 31.430269000000003 15.999999999999998
  endloop
endfacet
facet normal -0.009534566586446112 -0.0 0.9999545449869253
  outer loop
    vertex 1.9999999999999998 30.99870171606489 8.966927000000002
    vertex 0.0 52.01553984505768 8.94785700000001
    vertex 0.0 30.99870171606489 8.94785700000001
  endloop
endfacet
facet normal -0.009534566586446112 -0.0 0.9999545449869253
  outer loop
    vertex 0.0 52.01553984505768 8.94785700000001
    vertex 1.9999999999999998 30.99870171606489 8.966927000000002
    vertex 1.9999999999999998 52.01553984505768 8.966927000000002
  endloop
endfacet
facet normal 0.0 -1.0 0.0
  outer loop
    vertex 1.9999999999999998 52.01553984505768 8.966927000000002
    vertex 0.0 52.01553984505768 15.999999999999998
    vertex 0.0 52.01553984505768 8.94785700000001
  endloop
endfacet
facet normal 0.0 -1.0 0.0
  outer loop
    vertex 0.0 52.01553984505768 15.999999999999998
    vertex 1.9999999999999998 52.01553984505768 8.966927000000002
    vertex 0.9999999999999981 52.01553984505768 14.0
  endloop
endfacet
facet normal 0.0 -1.0 0.0
  outer loop
    vertex 0.9999999999999981 52.01553984505768 14.0
    vertex 1.9999999999999998 52.01553984505768 8.966927000000002
    vertex 1.9999999999999998 52.01553984505768 14.0
  endloop
endfacet
facet normal 0.0 -1.0 0.0
  outer loop
    vertex 0.0 52.01553984505768 15.999999999999998
    vertex 0.9999999999999981 52.01553984505768 14.0
    vertex 0.9999999999999981 52.01553984505768 15.999999999999998
  endloop
endfacet
facet normal -0.0 1.0 -0.0
  outer loop
    vertex 0.0 30.99870171606489 15.999999999999998
    vertex 1.9999999999999998 30.99870171606489 8.966927000000002
    vertex 0.0 30.99870171606489 8.94785700000001
  endloop
endfacet
facet normal -0.0 1.0 -0.0
  outer loop
    vertex 1.9999999999999998 30.99870171606489 8.966927000000002
    vertex 0.0 30.99870171606489 15.999999999999998
    vertex 0.9999999999999999 30.99870171606489 14.0
  endloop
endfacet
facet normal -0.0 1.0 -0.0
  outer loop
    vertex 0.9999999999999999 30.99870171606489 14.0
    vertex 0.0 30.99870171606489 15.999999999999998
    vertex 0.9999999999999999 30.99870171606489 15.999999999999998
  endloop
endfacet
facet normal -0.0 1.0 -0.0
  outer loop
    vertex 1.9999999999999998 30.99870171606489 14.0
    vertex 1.9999999999999998 30.99870171606489 8.966927000000002
    vertex 0.9999999999999999 30.99870171606489 14.0
  endloop
endfacet
facet normal -0.000660999855600199 -3.2430389791212736e-34 0.9999997815395716
  outer loop
    vertex 51.99999999999999 31.430269000000003 8.968249000000007
    vertex 49.99999999999999 39.482172105919595 8.966927000000002
    vertex 49.99999999999999 31.430269000000003 8.966927000000002
  endloop
endfacet
facet normal -0.000660999855600199 -3.2430389791212736e-34 0.9999997815395716
  outer loop
    vertex 49.99999999999999 39.482172105919595 8.966927000000002
    vertex 51.99999999999999 31.430269000000003 8.968249000000007
    vertex 51.99999999999999 39.482172105919595 8.968249000000007
  endloop
endfacet
facet normal -9.721766093316733e-16 -8.087953629458568e-18 1.0
  outer loop
    vertex 49.99999999999999 -1.5697309999999998 8.966927000000002
    vertex 47.994872854082686 -0.9979458455726011 8.966926999999998
    vertex 47.994872854082686 -1.5697309999999998 8.966927
  endloop
endfacet
facet normal -9.721766093316733e-16 -8.087953629458568e-18 1.0
  outer loop
    vertex 47.994872854082686 -0.9979458455726011 8.966926999999998
    vertex 49.99999999999999 -1.5697309999999998 8.966927000000002
    vertex 49.93979685408268 -0.9979458455726011 8.966926999999998
  endloop
endfacet
facet normal -9.721766093316733e-16 -8.087953629458568e-18 1.0
  outer loop
    vertex 49.93979685408268 -0.9979458455726011 8.966926999999998
    vertex 49.99999999999999 -1.5697309999999998 8.966927000000002
    vertex 49.93979685408268 4.77191771331071 8.966926999999998
  endloop
endfacet
facet normal -9.721766093316733e-16 -8.087953629458568e-18 1.0
  outer loop
    vertex 49.93979685408268 4.77191771331071 8.966926999999998
    vertex 47.994872854082686 57.4740278257652 8.966927
    vertex 47.994872854082686 4.77191771331071 8.966926999999998
  endloop
endfacet
facet normal -9.721766093316733e-16 -8.087953629458568e-18 1.0
  outer loop
    vertex 47.994872854082686 57.4740278257652 8.966927
    vertex 49.93979685408268 4.77191771331071 8.966926999999998
    vertex 49.99999999999999 57.4740278257652 8.966927000000002
  endloop
endfacet
facet normal -9.721766093316733e-16 -8.087953629458568e-18 1.0
  outer loop
    vertex 49.99999999999999 57.4740278257652 8.966927000000002
    vertex 49.93979685408268 4.77191771331071 8.966926999999998
    vertex 49.99999999999999 -1.5697309999999998 8.966927000000002
  endloop
endfacet
facet normal -9.721766093316733e-16 -8.087953629458568e-18 1.0
  outer loop
    vertex 49.99999999999999 57.4740278257652 8.966927000000002
    vertex 49.99999999999999 -1.5697309999999998 8.966927000000002
    vertex 49.99999999999999 31.430269000000003 8.966927000000002
  endloop
endfacet
facet normal -9.721766093316733e-16 -8.087953629458568e-18 1.0
  outer loop
    vertex 49.99999999999999 57.4740278257652 8.966927000000002
    vertex 49.99999999999999 31.430269000000003 8.966927000000002
    vertex 49.99999999999999 39.482172105919595 8.966927000000002
  endloop
endfacet
facet normal -9.721766093316733e-16 -8.087953629458568e-18 1.0
  outer loop
    vertex 49.99999999999999 57.4740278257652 8.966927000000002
    vertex 49.99999999999999 39.482172105919595 8.966927000000002
    vertex 49.99999999999999 50.17853955184852 8.966927000000002
  endloop
endfacet
facet normal -1.0 0.0 0.0
  outer loop
    vertex 49.99999999999999 66.14296999999999 14.0
    vertex 49.99999999999999 57.4740278257652 8.966927000000002
    vertex 49.99999999999999 57.4740278257652 14.0
  endloop
endfacet
facet normal -1.0 0.0 0.0
  outer loop
    vertex 49.99999999999999 57.4740278257652 8.966927000000002
    vertex 49.99999999999999 66.14296999999999 14.0
    vertex 49.99999999999999 66.14296999999999 8.966927000000002
  endloop
endfacet
facet normal -1.0 0.0 0.0
  outer loop
    vertex 49.99999999999999 50.17853955184852 14.0
    vertex 49.99999999999999 39.482172105919595 8.966927000000002
    vertex 49.99999999999999 39.482172105919595 14.0
  endloop
endfacet
facet normal -1.0 0.0 0.0
  outer loop
    vertex 49.99999999999999 39.482172105919595 8.966927000000002
    vertex 49.99999999999999 50.17853955184852 14.0
    vertex 49.99999999999999 50.17853955184852 8.966927000000002
  endloop
endfacet
facet normal -0.0 -0.0 1.0
  outer loop
    vertex 51.99999999999999 39.482172105919595 15.999999999999998
    vertex 51.0 50.17853955184852 15.999999999999998
    vertex 51.0 39.482172105919595 15.999999999999998
  endloop
endfacet
facet normal -0.0 -0.0 1.0
  outer loop
    vertex 51.0 50.17853955184852 15.999999999999998
    vertex 51.99999999999999 39.482172105919595 15.999999999999998
    vertex 51.99999999999999 50.17853955184852 15.999999999999998
  endloop
endfacet
facet normal -0.0 -0.0 1.0
  outer loop
    vertex 51.99999999999999 57.4740278257652 15.999999999999998
    vertex 51.0 66.14296999999999 15.999999999999998
    vertex 51.0 57.4740278257652 15.999999999999998
  endloop
endfacet
facet normal -0.0 -0.0 1.0
  outer loop
    vertex 51.0 66.14296999999999 15.999999999999998
    vertex 51.99999999999999 57.4740278257652 15.999999999999998
    vertex 51.99999999999999 66.14296999999999 15.999999999999998
  endloop
endfacet
facet normal 0.004798444756778834 -0.0 0.9999884873976881
  outer loop
    vertex 51.99999999999999 50.17853955184852 8.957329999999999
    vertex 49.99999999999999 57.4740278257652 8.966927000000002
    vertex 49.99999999999999 50.17853955184852 8.966927000000002
  endloop
endfacet
facet normal 0.004798444756778834 -0.0 0.9999884873976881
  outer loop
    vertex 49.99999999999999 57.4740278257652 8.966927000000002
    vertex 51.99999999999999 50.17853955184852 8.957329999999999
    vertex 51.99999999999999 57.4740278257652 8.957329999999999
  endloop
endfacet
facet normal 0.0 -1.0 0.0
  outer loop
    vertex 51.99999999999999 57.4740278257652 15.999999999999998
    vertex 49.99999999999999 57.4740278257652 8.966927000000002
    vertex 51.99999999999999 57.4740278257652 8.957329999999999
  endloop
endfacet
facet normal 0.0 -1.0 0.0
  outer loop
    vertex 49.99999999999999 57.4740278257652 8.966927000000002
    vertex 51.99999999999999 57.4740278257652 15.999999999999998
    vertex 51.0 57.4740278257652 14.0
  endloop
endfacet
facet normal 0.0 -1.0 0.0
  outer loop
    vertex 51.0 57.4740278257652 14.0
    vertex 51.99999999999999 57.4740278257652 15.999999999999998
    vertex 51.0 57.4740278257652 15.999999999999998
  endloop
endfacet
facet normal 0.0 -1.0 0.0
  outer loop
    vertex 49.99999999999999 57.4740278257652 14.0
    vertex 49.99999999999999 57.4740278257652 8.966927000000002
    vertex 51.0 57.4740278257652 14.0
  endloop
endfacet
facet normal -0.0 1.0 -0.0
  outer loop
    vertex 49.99999999999999 50.17853955184852 8.966927000000002
    vertex 51.99999999999999 50.17853955184852 15.999999999999998
    vertex 51.99999999999999 50.17853955184852 8.957329999999999
  endloop
endfacet
facet normal -0.0 1.0 -0.0
  outer loop
    vertex 51.99999999999999 50.17853955184852 15.999999999999998
    vertex 49.99999999999999 50.17853955184852 8.966927000000002
    vertex 51.0 50.17853955184852 14.0
  endloop
endfacet
facet normal -0.0 1.0 -0.0
  outer loop
    vertex 51.0 50.17853955184852 14.0
    vertex 49.99999999999999 50.17853955184852 8.966927000000002
    vertex 49.99999999999999 50.17853955184852 14.0
  endloop
endfacet
facet normal -0.0 1.0 -0.0
  outer loop
    vertex 51.99999999999999 50.17853955184852 15.999999999999998
    vertex 51.0 50.17853955184852 14.0
    vertex 51.0 50.17853955184852 15.999999999999998
  endloop
endfacet
facet normal -1.0 0.0 0.0
  outer loop
    vertex 47.994872854082686 57.4740278257652 8.966927
    vertex 47.994872854082686 4.77191771331071 2.1567459999999983
    vertex 47.994872854082686 4.77191771331071 8.966926999999998
  endloop
endfacet
facet normal -1.0 0.0 0.0
  outer loop
    vertex 47.994872854082686 4.77191771331071 2.1567459999999983
    vertex 47.994872854082686 57.4740278257652 8.966927
    vertex 47.994872854082686 63.00205415442739 2.1567459999999983
  endloop
endfacet
facet normal -1.0 0.0 0.0
  outer loop
    vertex 47.994872854082686 63.00205415442739 2.1567459999999983
    vertex 47.994872854082686 57.4740278257652 8.966927
    vertex 47.994872854082686 63.00205415442739 8.966926999999998
  endloop
endfacet
facet normal -1.0 0.0 0.0
  outer loop
    vertex 49.93979685408268 4.77191771331071 8.966926999999998
    vertex 49.93979685408268 -0.9979458455726011 2.1567459999999983
    vertex 49.93979685408268 -0.9979458455726011 8.966926999999998
  endloop
endfacet
facet normal -1.0 0.0 0.0
  outer loop
    vertex 49.93979685408268 -0.9979458455726011 2.1567459999999983
    vertex 49.93979685408268 4.77191771331071 8.966926999999998
    vertex 49.93979685408268 4.77191771331071 2.1567459999999983
  endloop
endfacet
facet normal -0.0 -1.0 -0.0
  outer loop
    vertex 49.93979685408268 4.77191771331071 8.966926999999998
    vertex 47.994872854082686 4.77191771331071 2.1567459999999983
    vertex 49.93979685408268 4.77191771331071 2.1567459999999983
  endloop
endfacet
facet normal -0.0 -1.0 -0.0
  outer loop
    vertex 47.994872854082686 4.77191771331071 2.1567459999999983
    vertex 49.93979685408268 4.77191771331071 8.966926999999998
    vertex 47.994872854082686 4.77191771331071 8.966926999999998
  endloop
endfacet
facet normal -0.0 -0.0 1.0
  outer loop
    vertex 0.9999999999999981 52.01553984505768 15.999999999999998
    vertex 0.0 68.5 15.999999999999998
    vertex 0.0 52.01553984505768 15.999999999999998
  endloop
endfacet
facet normal -0.0 -0.0 1.0
  outer loop
    vertex 0.0 68.5 15.999999999999998
    vertex 0.9999999999999981 52.01553984505768 15.999999999999998
    vertex 0.9999999999999981 68.5 15.999999999999998
  endloop
endfacet
facet normal -0.0 -0.0 1.0
  outer loop
    vertex 0.9999999999999981 68.5 15.999999999999998
    vertex 0.9999999999999981 52.01553984505768 15.999999999999998
    vertex 0.9999999999999981 67.321485 15.999999999999998
  endloop
endfacet
facet normal -0.0 -0.0 1.0
  outer loop
    vertex 2.000000000000001 67.321485 15.999999999999998
    vertex 0.9999999999999981 68.5 15.999999999999998
    vertex 0.9999999999999981 67.321485 15.999999999999998
  endloop
endfacet
facet normal -0.0 -0.0 1.0
  outer loop
    vertex 0.9999999999999981 68.5 15.999999999999998
    vertex 2.000000000000001 67.321485 15.999999999999998
    vertex 2.0000000000000018 68.5 15.999999999999998
  endloop
endfacet
facet normal -0.0 -0.0 1.0
  outer loop
    vertex 49.99999999999999 67.32148499999995 15.999999999999998
    vertex 2.0000000000000018 68.5 15.999999999999998
    vertex 2.000000000000001 67.321485 15.999999999999998
  endloop
endfacet
facet normal -0.0 -0.0 1.0
  outer loop
    vertex 2.0000000000000018 68.5 15.999999999999998
    vertex 49.99999999999999 67.32148499999995 15.999999999999998
    vertex 49.99999999999999 68.5 15.999999999999998
  endloop
endfacet
facet normal -0.0 -0.0 1.0
  outer loop
    vertex 51.0 67.32148499999995 15.999999999999998
    vertex 49.99999999999999 68.5 15.999999999999998
    vertex 49.99999999999999 67.32148499999995 15.999999999999998
  endloop
endfacet
facet normal -0.0 -0.0 1.0
  outer loop
    vertex 49.99999999999999 68.5 15.999999999999998
    vertex 51.0 67.32148499999995 15.999999999999998
    vertex 51.0 68.5 15.999999999999998
  endloop
endfacet
facet normal -0.0 -0.0 1.0
  outer loop
    vertex 51.99999999999999 66.14296999999999 15.999999999999998
    vertex 51.0 67.32148499999995 15.999999999999998
    vertex 51.0 66.14296999999999 15.999999999999998
  endloop
endfacet
facet normal -0.0 -0.0 1.0
  outer loop
    vertex 51.0 67.32148499999995 15.999999999999998
    vertex 51.99999999999999 66.14296999999999 15.999999999999998
    vertex 51.0 68.5 15.999999999999998
  endloop
endfacet
facet normal -0.0 -0.0 1.0
  outer loop
    vertex 51.0 68.5 15.999999999999998
    vertex 51.99999999999999 66.14296999999999 15.999999999999998
    vertex 51.99999999999999 68.5 15.999999999999998
  endloop
endfacet
facet normal -0.0 -0.0 1.0
  outer loop
    vertex 0.9999999999999999 -4.028509 15.999999999999998
    vertex 0.0 30.99870171606489 15.999999999999998
    vertex 0.0 -4.028509 15.999999999999998
  endloop
endfacet
facet normal -0.0 -0.0 1.0
  outer loop
    vertex 0.0 30.99870171606489 15.999999999999998
    vertex 0.9999999999999999 -4.028509 15.999999999999998
    vertex 0.9999999999999999 30.99870171606489 15.999999999999998
  endloop
endfacet
facet normal -0.0 -0.0 1.0
  outer loop
    vertex 0.9999999999999999 30.99870171606489 15.999999999999998
    vertex 0.9999999999999999 -4.028509 15.999999999999998
    vertex 0.9999999999999999 -2.79912 15.999999999999998
  endloop
endfacet
facet normal -0.0 -0.0 1.0
  outer loop
    vertex 1.9999999999999998 -4.028509 15.999999999999998
    vertex 0.9999999999999999 -2.79912 15.999999999999998
    vertex 0.9999999999999999 -4.028509 15.999999999999998
  endloop
endfacet
facet normal -0.0 -0.0 1.0
  outer loop
    vertex 0.9999999999999999 -2.79912 15.999999999999998
    vertex 1.9999999999999998 -4.028509 15.999999999999998
    vertex 1.9999999999999998 -2.79912 15.999999999999998
  endloop
endfacet
facet normal -1.0 0.0 -0.0
  outer loop
    vertex 51.0 31.430269000000003 15.999999999999998
    vertex 51.0 -2.7991199999999976 14.0
    vertex 51.0 -2.7991199999999976 15.999999999999998
  endloop
endfacet
facet normal -1.0 0.0 -0.0
  outer loop
    vertex 51.0 -2.7991199999999976 14.0
    vertex 51.0 31.430269000000003 15.999999999999998
    vertex 51.0 31.430269000000003 14.0
  endloop
endfacet
facet normal 1.0 0.0 0.0
  outer loop
    vertex 0.9999999999999999 30.99870171606489 14.0
    vertex 0.9999999999999999 -2.79912 15.999999999999998
    vertex 0.9999999999999999 -2.79912 14.0
  endloop
endfacet
facet normal 1.0 0.0 0.0
  outer loop
    vertex 0.9999999999999999 -2.79912 15.999999999999998
    vertex 0.9999999999999999 30.99870171606489 14.0
    vertex 0.9999999999999999 30.99870171606489 15.999999999999998
  endloop
endfacet
facet normal -0.0 1.0 -0.0
  outer loop
    vertex 0.9999999999999999 -2.79912 15.999999999999998
    vertex 1.9999999999999998 -2.79912 14.0
    vertex 0.9999999999999999 -2.79912 14.0
  endloop
endfacet
facet normal -0.0 1.0 -0.0
  outer loop
    vertex 1.9999999999999998 -2.79912 14.0
    vertex 0.9999999999999999 -2.79912 15.999999999999998
    vertex 1.9999999999999998 -2.79912 15.999999999999998
  endloop
endfacet
facet normal 0.0 0.0 1.0
  outer loop
    vertex 51.0 57.4740278257652 14.0
    vertex 49.99999999999999 66.14296999999999 14.0
    vertex 49.99999999999999 57.4740278257652 14.0
  endloop
endfacet
facet normal 0.0 0.0 1.0
  outer loop
    vertex 49.99999999999999 66.14296999999999 14.0
    vertex 51.0 57.4740278257652 14.0
    vertex 49.99999999999999 67.32148499999995 14.0
  endloop
endfacet
facet normal 0.0 0.0 1.0
  outer loop
    vertex 49.99999999999999 67.32148499999995 14.0
    vertex 51.0 57.4740278257652 14.0
    vertex 51.0 67.32148499999995 14.0
  endloop
endfacet
facet normal 0.0 0.0 1.0
  outer loop
    vertex 51.0 67.32148499999995 14.0
    vertex 51.0 57.4740278257652 14.0
    vertex 51.0 66.14296999999999 14.0
  endloop
endfacet
facet normal 0.0 0.0 1.0
  outer loop
    vertex 1.9999999999999998 52.01553984505768 14.0
    vertex 0.9999999999999981 67.321485 14.0
    vertex 0.9999999999999981 52.01553984505768 14.0
  endloop
endfacet
facet normal 0.0 0.0 1.0
  outer loop
    vertex 0.9999999999999981 67.321485 14.0
    vertex 1.9999999999999998 52.01553984505768 14.0
    vertex 1.9999999999999998 66.14296999999999 14.0
  endloop
endfacet
facet normal 0.0 0.0 1.0
  outer loop
    vertex 0.9999999999999981 67.321485 14.0
    vertex 1.9999999999999998 66.14296999999999 14.0
    vertex 2.000000000000001 67.321485 14.0
  endloop
endfacet
facet normal 0.0 0.0 1.0
  outer loop
    vertex 2.000000000000001 67.321485 14.0
    vertex 1.9999999999999998 66.14296999999999 14.0
    vertex 49.99999999999999 66.14296999999999 14.0
  endloop
endfacet
facet normal 0.0 0.0 1.0
  outer loop
    vertex 2.000000000000001 67.321485 14.0
    vertex 49.99999999999999 66.14296999999999 14.0
    vertex 49.99999999999999 67.32148499999995 14.0
  endloop
endfacet
facet normal -9.39988827515966e-16 -1.0 -0.0
  outer loop
    vertex 49.99999999999999 67.32148499999995 15.999999999999998
    vertex 2.000000000000001 67.321485 14.0
    vertex 49.99999999999999 67.32148499999995 14.0
  endloop
endfacet
facet normal -9.39988827515966e-16 -1.0 -0.0
  outer loop
    vertex 2.000000000000001 67.321485 14.0
    vertex 49.99999999999999 67.32148499999995 15.999999999999998
    vertex 2.000000000000001 67.321485 15.999999999999998
  endloop
endfacet
facet normal -0.0 -1.0 -0.0
  outer loop
    vertex 2.000000000000001 67.321485 15.999999999999998
    vertex 0.9999999999999981 67.321485 14.0
    vertex 2.000000000000001 67.321485 14.0
  endloop
endfacet
facet normal -0.0 -1.0 -0.0
  outer loop
    vertex 0.9999999999999981 67.321485 14.0
    vertex 2.000000000000001 67.321485 15.999999999999998
    vertex 0.9999999999999981 67.321485 15.999999999999998
  endloop
endfacet
facet normal 1.0 0.0 0.0
  outer loop
    vertex 0.9999999999999981 67.321485 14.0
    vertex 0.9999999999999981 52.01553984505768 15.999999999999998
    vertex 0.9999999999999981 52.01553984505768 14.0
  endloop
endfacet
facet normal 1.0 0.0 0.0
  outer loop
    vertex 0.9999999999999981 52.01553984505768 15.999999999999998
    vertex 0.9999999999999981 67.321485 14.0
    vertex 0.9999999999999981 67.321485 15.999999999999998
  endloop
endfacet
facet normal -1.0 0.0 -0.0
  outer loop
    vertex 51.0 66.14296999999999 15.999999999999998
    vertex 51.0 57.4740278257652 14.0
    vertex 51.0 57.4740278257652 15.999999999999998
  endloop
endfacet
facet normal -1.0 0.0 -0.0
  outer loop
    vertex 51.0 57.4740278257652 14.0
    vertex 51.0 66.14296999999999 15.999999999999998
    vertex 51.0 66.14296999999999 14.0
  endloop
endfacet
facet normal -1.0 0.0 -0.0
  outer loop
    vertex 51.0 67.32148499999995 15.999999999999998
    vertex 51.0 66.14296999999999 14.0
    vertex 51.0 66.14296999999999 15.999999999999998
  endloop
endfacet
facet normal -1.0 0.0 -0.0
  outer loop
    vertex 51.0 66.14296999999999 14.0
    vertex 51.0 67.32148499999995 15.999999999999998
    vertex 51.0 67.32148499999995 14.0
  endloop
endfacet
facet normal -0.0 -1.0 -0.0
  outer loop
    vertex 51.0 67.32148499999995 15.999999999999998
    vertex 49.99999999999999 67.32148499999995 14.0
    vertex 51.0 67.32148499999995 14.0
  endloop
endfacet
facet normal -0.0 -1.0 -0.0
  outer loop
    vertex 49.99999999999999 67.32148499999995 14.0
    vertex 51.0 67.32148499999995 15.999999999999998
    vertex 49.99999999999999 67.32148499999995 15.999999999999998
  endloop
endfacet
facet normal 0.0 0.0 1.0
  outer loop
    vertex 51.0 39.482172105919595 14.0
    vertex 49.99999999999999 50.17853955184852 14.0
    vertex 49.99999999999999 39.482172105919595 14.0
  endloop
endfacet
facet normal 0.0 0.0 1.0
  outer loop
    vertex 49.99999999999999 50.17853955184852 14.0
    vertex 51.0 39.482172105919595 14.0
    vertex 51.0 50.17853955184852 14.0
  endloop
endfacet
facet normal -1.0 0.0 -0.0
  outer loop
    vertex 51.0 50.17853955184852 15.999999999999998
    vertex 51.0 39.482172105919595 14.0
    vertex 51.0 39.482172105919595 15.999999999999998
  endloop
endfacet
facet normal -1.0 0.0 -0.0
  outer loop
    vertex 51.0 39.482172105919595 14.0
    vertex 51.0 50.17853955184852 15.999999999999998
    vertex 51.0 50.17853955184852 14.0
  endloop
endfacet
facet normal -0.0 -0.0 1.0
  outer loop
    vertex 4.134686167691426 -2.79912 14.0
    vertex 1.9999999999999998 -1.5697309999999998 14.0
    vertex 1.9999999999999998 -2.79912 14.0
  endloop
endfacet
facet normal -0.0 -0.0 1.0
  outer loop
    vertex 1.9999999999999998 -1.5697309999999998 14.0
    vertex 4.134686167691426 -2.79912 14.0
    vertex 4.134686167691426 -1.5697309999999998 14.0
  endloop
endfacet
facet normal -0.0 -0.0 1.0
  outer loop
    vertex 1.9999999999999998 -2.79912 14.0
    vertex 0.9999999999999999 30.99870171606489 14.0
    vertex 0.9999999999999999 -2.79912 14.0
  endloop
endfacet
facet normal -0.0 -0.0 1.0
  outer loop
    vertex 0.9999999999999999 30.99870171606489 14.0
    vertex 1.9999999999999998 -2.79912 14.0
    vertex 1.9999999999999998 30.99870171606489 14.0
  endloop
endfacet
facet normal -0.0 -0.0 1.0
  outer loop
    vertex 1.9999999999999998 30.99870171606489 14.0
    vertex 1.9999999999999998 -2.79912 14.0
    vertex 1.9999999999999998 -1.5697309999999998 14.0
  endloop
endfacet
facet normal -0.0 -0.0 1.0
  outer loop
    vertex 51.0 -2.7991199999999976 14.0
    vertex 12.292244936750933 -1.5697309999999998 14.0
    vertex 12.292244936750933 -2.79912 14.0
  endloop
endfacet
facet normal -0.0 -0.0 1.0
  outer loop
    vertex 12.292244936750933 -1.5697309999999998 14.0
    vertex 51.0 -2.7991199999999976 14.0
    vertex 49.99999999999999 -1.5697309999999998 14.0
  endloop
endfacet
facet normal -0.0 -0.0 1.0
  outer loop
    vertex 49.99999999999999 -1.5697309999999998 14.0
    vertex 51.0 -2.7991199999999976 14.0
    vertex 49.99999999999999 31.430269000000003 14.0
  endloop
endfacet
facet normal -0.0 -0.0 1.0
  outer loop
    vertex 49.99999999999999 31.430269000000003 14.0
    vertex 51.0 -2.7991199999999976 14.0
    vertex 51.0 31.430269000000003 14.0
  endloop
endfacet
facet normal -0.0 1.0 -0.0
  outer loop
    vertex 1.9999999999999998 -2.79912 15.999999999999998
    vertex 4.134686167691426 -2.79912 14.0
    vertex 1.9999999999999998 -2.79912 14.0
  endloop
endfacet
facet normal -0.0 1.0 -0.0
  outer loop
    vertex 4.134686167691426 -2.79912 14.0
    vertex 1.9999999999999998 -2.79912 15.999999999999998
    vertex 4.134686167691426 -2.79912 15.999999999999998
  endloop
endfacet
facet normal -5.463956404743755e-17 1.0 -3.0575595129406355e-32
  outer loop
    vertex 12.292244936750933 -2.79912 15.999999999999998
    vertex 51.0 -2.7991199999999976 14.0
    vertex 12.292244936750933 -2.79912 14.0
  endloop
endfacet
facet normal -5.463956404743755e-17 1.0 -3.0575595129406355e-32
  outer loop
    vertex 51.0 -2.7991199999999976 14.0
    vertex 12.292244936750933 -2.79912 15.999999999999998
    vertex 51.0 -2.7991199999999976 15.999999999999998
  endloop
endfacet
facet normal -0.0 -0.0 1.0
  outer loop
    vertex 51.99999999999999 -4.028509 15.999999999999998
    vertex 12.292244936750933 -2.79912 15.999999999999998
    vertex 12.292244936750933 -4.028509 15.999999999999998
  endloop
endfacet
facet normal -0.0 -0.0 1.0
  outer loop
    vertex 12.292244936750933 -2.79912 15.999999999999998
    vertex 51.99999999999999 -4.028509 15.999999999999998
    vertex 51.0 -2.7991199999999976 15.999999999999998
  endloop
endfacet
facet normal -0.0 -0.0 1.0
  outer loop
    vertex 51.0 -2.7991199999999976 15.999999999999998
    vertex 51.99999999999999 -4.028509 15.999999999999998
    vertex 51.0 31.430269000000003 15.999999999999998
  endloop
endfacet
facet normal -0.0 -0.0 1.0
  outer loop
    vertex 51.0 31.430269000000003 15.999999999999998
    vertex 51.99999999999999 -4.028509 15.999999999999998
    vertex 51.99999999999999 31.430269000000003 15.999999999999998
  endloop
endfacet
facet normal -0.0 -0.0 1.0
  outer loop
    vertex 4.134686167691426 -4.028509 15.999999999999998
    vertex 1.9999999999999998 -2.79912 15.999999999999998
    vertex 1.9999999999999998 -4.028509 15.999999999999998
  endloop
endfacet
facet normal -0.0 -0.0 1.0
  outer loop
    vertex 1.9999999999999998 -2.79912 15.999999999999998
    vertex 4.134686167691426 -4.028509 15.999999999999998
    vertex 4.134686167691426 -2.79912 15.999999999999998
  endloop
endfacet
facet normal -1.0 0.0 0.0
  outer loop
    vertex 12.292244936750933 -2.79912 15.999999999999998
    vertex 12.292244936750933 -4.028509 8.952814803778663
    vertex 12.292244936750933 -4.028509 15.999999999999998
  endloop
endfacet
facet normal -1.0 0.0 0.0
  outer loop
    vertex 12.292244936750933 -4.028509 8.952814803778663
    vertex 12.292244936750933 -2.79912 15.999999999999998
    vertex 12.292244936750933 -2.79912 14.0
  endloop
endfacet
facet normal -1.0 0.0 0.0
  outer loop
    vertex 12.292244936750933 -4.028509 8.952814803778663
    vertex 12.292244936750933 -2.79912 14.0
    vertex 12.292244936750933 -1.5697310000000009 8.966927
  endloop
endfacet
facet normal -1.0 0.0 0.0
  outer loop
    vertex 12.292244936750933 -1.5697310000000009 8.966927
    vertex 12.292244936750933 -2.79912 14.0
    vertex 12.292244936750933 -1.5697309999999998 14.0
  endloop
endfacet
facet normal -4.0240312691691007e-32 2.4659318808057254e-15 1.0
  outer loop
    vertex 12.292244936750933 -1.5697310000000009 8.966927
    vertex 4.994872854082684 -0.9979458455726011 8.966926999999998
    vertex 4.994872854082684 -1.569731000000001 8.966927
  endloop
endfacet
facet normal -4.0240312691691007e-32 2.4659318808057254e-15 1.0
  outer loop
    vertex 4.994872854082684 -0.9979458455726011 8.966926999999998
    vertex 12.292244936750933 -1.5697310000000009 8.966927
    vertex 47.994872854082686 -0.9979458455726011 8.966926999999998
  endloop
endfacet
facet normal -4.0240312691691007e-32 2.4659318808057254e-15 1.0
  outer loop
    vertex 47.994872854082686 -0.9979458455726011 8.966926999999998
    vertex 12.292244936750933 -1.5697310000000009 8.966927
    vertex 47.994872854082686 -1.5697309999999998 8.966927
  endloop
endfacet
facet normal 0.0009669324349996561 -0.0028697449533845376 0.9999954147922724
  outer loop
    vertex 12.292244936750933 -4.028509 8.952814803778663
    vertex 4.994872854082684 -1.569731000000001 8.966927
    vertex 4.994872854082684 -4.028509 8.966927
  endloop
endfacet
facet normal 0.0009669324349996561 -0.0028697449533845376 0.9999954147922724
  outer loop
    vertex 4.994872854082684 -1.569731000000001 8.966927
    vertex 12.292244936750933 -4.028509 8.952814803778663
    vertex 12.292244936750933 -1.5697310000000009 8.966927
  endloop
endfacet
facet normal 1.0 -0.0 -0.0
  outer loop
    vertex 4.134686167691426 -1.5697310000000009 8.966927
    vertex 4.134686167691426 -4.028509 15.999999999999998
    vertex 4.134686167691426 -4.028509 8.952814803778663
  endloop
endfacet
facet normal 1.0 -0.0 -0.0
  outer loop
    vertex 4.134686167691426 -4.028509 15.999999999999998
    vertex 4.134686167691426 -1.5697310000000009 8.966927
    vertex 4.134686167691426 -2.79912 14.0
  endloop
endfacet
facet normal 1.0 -0.0 -0.0
  outer loop
    vertex 4.134686167691426 -2.79912 14.0
    vertex 4.134686167691426 -1.5697310000000009 8.966927
    vertex 4.134686167691426 -1.5697309999999998 14.0
  endloop
endfacet
facet normal 1.0 -0.0 -0.0
  outer loop
    vertex 4.134686167691426 -2.79912 15.999999999999998
    vertex 4.134686167691426 -4.028509 15.999999999999998
    vertex 4.134686167691426 -2.79912 14.0
  endloop
endfacet
facet normal -0.008202674818574514 -0.002869649749483126 0.9999622399051556
  outer loop
    vertex 4.994872854082684 -4.028509 8.966927
    vertex 4.134686167691426 -1.5697310000000009 8.966927
    vertex 4.134686167691426 -4.028509 8.952814803778663
  endloop
endfacet
facet normal -0.008202674818574514 -0.002869649749483126 0.9999622399051556
  outer loop
    vertex 4.134686167691426 -1.5697310000000009 8.966927
    vertex 4.994872854082684 -4.028509 8.966927
    vertex 4.994872854082684 -1.569731000000001 8.966927
  endloop
endfacet
facet normal -6.11760213555138e-17 -6.545358754207815e-17 1.0
  outer loop
    vertex 119.13897702611054 5.0871424698549745 0.0
    vertex 80.43122196286153 39.31653146985497 0.0
    vertex 80.43122196286153 5.087142469854973 0.0
  endloop
endfacet
facet normal -6.11760213555138e-17 -6.545358754207815e-17 1.0
  outer loop
    vertex 80.43122196286153 39.31653146985497 0.0
    vertex 119.13897702611054 5.0871424698549745 0.0
    vertex 80.43122196286153 47.36843457577457 0.0
  endloop
endfacet
facet normal -6.11760213555138e-17 -6.545358754207815e-17 1.0
  outer loop
    vertex 80.43122196286153 47.36843457577457 0.0
    vertex 119.13897702611054 5.0871424698549745 0.0
    vertex 80.43122196286153 58.0648020217035 0.0
  endloop
endfacet
facet normal -6.11760213555138e-17 -6.545358754207815e-17 1.0
  outer loop
    vertex 80.43122196286153 58.0648020217035 0.0
    vertex 119.13897702611054 5.0871424698549745 0.0
    vertex 80.43122196286153 65.36029029562017 0.0
  endloop
endfacet
facet normal -6.11760213555138e-17 -6.545358754207815e-17 1.0
  outer loop
    vertex 80.43122196286153 65.36029029562017 0.0
    vertex 119.13897702611054 5.0871424698549745 0.0
    vertex 80.43122196286153 74.02923246985497 0.0
  endloop
endfacet
facet normal -6.11760213555138e-17 -6.545358754207815e-17 1.0
  outer loop
    vertex 80.43122196286153 74.02923246985497 0.0
    vertex 119.13897702611054 5.0871424698549745 0.0
    vertex 80.43122196286153 75.20774746985492 0.0
  endloop
endfacet
facet normal -6.11760213555138e-17 -6.545358754207815e-17 1.0
  outer loop
    vertex 80.43122196286153 75.20774746985492 0.0
    vertex 119.13897702611054 5.0871424698549745 0.0
    vertex 81.43122196286151 75.20774746985492 1.127986593019159e-14
  endloop
endfacet
facet normal -6.11760213555138e-17 -6.545358754207815e-17 1.0
  outer loop
    vertex 81.43122196286151 75.20774746985492 1.127986593019159e-14
    vertex 119.13897702611054 5.0871424698549745 0.0
    vertex 129.43122196286146 75.20774746985497 1.6919798895287383e-14
  endloop
endfacet
facet normal -6.11760213555138e-17 -6.545358754207815e-17 1.0
  outer loop
    vertex 129.43122196286146 75.20774746985497 1.6919798895287383e-14
    vertex 119.13897702611054 5.0871424698549745 0.0
    vertex 127.29653579517 5.0871424698549745 -1.127986593019159e-14
  endloop
endfacet
facet normal -6.11760213555138e-17 -6.545358754207815e-17 1.0
  outer loop
    vertex 129.43122196286146 75.20774746985497 1.6919798895287383e-14
    vertex 127.29653579517 5.0871424698549745 -1.127986593019159e-14
    vertex 129.43122196286146 5.0871424698549745 1.6919798895287383e-14
  endloop
endfacet
facet normal -6.11760213555138e-17 -6.545358754207815e-17 1.0
  outer loop
    vertex 129.43122196286146 75.20774746985497 1.6919798895287383e-14
    vertex 129.43122196286146 5.0871424698549745 1.6919798895287383e-14
    vertex 130.43122196286143 5.0871424698549745 0.0
  endloop
endfacet
facet normal -6.11760213555138e-17 -6.545358754207815e-17 1.0
  outer loop
    vertex 129.43122196286146 75.20774746985497 1.6919798895287383e-14
    vertex 130.43122196286143 5.0871424698549745 0.0
    vertex 130.43122196286143 75.20774746985497 0.0
  endloop
endfacet
facet normal -6.11760213555138e-17 -6.545358754207815e-17 1.0
  outer loop
    vertex 130.43122196286143 75.20774746985497 0.0
    vertex 130.43122196286143 5.0871424698549745 0.0
    vertex 130.43122196286143 38.88496418591986 0.0
  endloop
endfacet
facet normal -6.11760213555138e-17 -6.545358754207815e-17 1.0
  outer loop
    vertex 130.43122196286143 75.20774746985497 0.0
    vertex 130.43122196286143 38.88496418591986 0.0
    vertex 130.43122196286143 59.901802314912665 0.0
  endloop
endfacet
facet normal -5.1874451564621264e-17 -1.2588350369114284e-16 -1.0
  outer loop
    vertex 81.43122196286154 75.20774746985492 -2.0000000000000133
    vertex 80.43122196286156 74.02923246985497 -2.000000000000019
    vertex 80.43122196286156 75.20774746985492 -2.000000000000019
  endloop
endfacet
facet normal -5.1874451564621264e-17 -1.2588350369114284e-16 -1.0
  outer loop
    vertex 80.43122196286156 74.02923246985497 -2.000000000000019
    vertex 81.43122196286154 75.20774746985492 -2.0000000000000133
    vertex 80.43122196286156 65.36029029562017 -2.000000000000019
  endloop
endfacet
facet normal -5.1874451564621264e-17 -1.2588350369114284e-16 -1.0
  outer loop
    vertex 80.43122196286156 65.36029029562017 -2.000000000000019
    vertex 81.43122196286154 75.20774746985492 -2.0000000000000133
    vertex 80.43122196286156 58.0648020217035 -2.000000000000019
  endloop
endfacet
facet normal -5.1874451564621264e-17 -1.2588350369114284e-16 -1.0
  outer loop
    vertex 80.43122196286156 58.0648020217035 -2.000000000000019
    vertex 81.43122196286154 75.20774746985492 -2.0000000000000133
    vertex 80.43122196286156 47.36843457577457 -2.000000000000019
  endloop
endfacet
facet normal -5.1874451564621264e-17 -1.2588350369114284e-16 -1.0
  outer loop
    vertex 80.43122196286156 47.36843457577457 -2.000000000000019
    vertex 81.43122196286154 75.20774746985492 -2.0000000000000133
    vertex 80.43122196286156 39.31653146985497 -2.000000000000019
  endloop
endfacet
facet normal -5.1874451564621264e-17 -1.2588350369114284e-16 -1.0
  outer loop
    vertex 80.43122196286156 39.31653146985497 -2.000000000000019
    vertex 81.43122196286154 75.20774746985492 -2.0000000000000133
    vertex 80.43122196286156 5.087142469854973 -2.000000000000019
  endloop
endfacet
facet normal -5.1874451564621264e-17 -1.2588350369114284e-16 -1.0
  outer loop
    vertex 80.43122196286156 5.087142469854973 -2.000000000000019
    vertex 81.43122196286154 75.20774746985492 -2.0000000000000133
    vertex 119.1389770261105 5.0871424698549745 -1.9999999999999962
  endloop
endfacet
facet normal -5.1874451564621264e-17 -1.2588350369114284e-16 -1.0
  outer loop
    vertex 119.1389770261105 5.0871424698549745 -1.9999999999999962
    vertex 81.43122196286154 75.20774746985492 -2.0000000000000133
    vertex 129.43122196286143 75.20774746985497 -2.0000000000000075
  endloop
endfacet
facet normal -5.1874451564621264e-17 -1.2588350369114284e-16 -1.0
  outer loop
    vertex 119.1389770261105 5.0871424698549745 -1.9999999999999962
    vertex 129.43122196286143 75.20774746985497 -2.0000000000000075
    vertex 127.29653579517 5.0871424698549745 -2.0000000000000018
  endloop
endfacet
facet normal -5.1874451564621264e-17 -1.2588350369114284e-16 -1.0
  outer loop
    vertex 127.29653579517 5.0871424698549745 -2.0000000000000018
    vertex 129.43122196286143 75.20774746985497 -2.0000000000000075
    vertex 129.43122196286143 5.0871424698549745 -2.0000000000000075
  endloop
endfacet
facet normal -5.1874451564621264e-17 -1.2588350369114284e-16 -1.0
  outer loop
    vertex 129.43122196286143 5.0871424698549745 -2.0000000000000075
    vertex 129.43122196286143 75.20774746985497 -2.0000000000000075
    vertex 130.43122196286143 75.20774746985497 -2.00000000000003
  endloop
endfacet
facet normal -5.1874451564621264e-17 -1.2588350369114284e-16 -1.0
  outer loop
    vertex 129.43122196286143 5.0871424698549745 -2.0000000000000075
    vertex 130.43122196286143 75.20774746985497 -2.00000000000003
    vertex 130.43122196286143 5.0871424698549745 -2.00000000000003
  endloop
endfacet
facet normal -5.1874451564621264e-17 -1.2588350369114284e-16 -1.0
  outer loop
    vertex 130.43122196286143 5.0871424698549745 -2.00000000000003
    vertex 130.43122196286143 75.20774746985497 -2.00000000000003
    vertex 130.43122196286143 59.901802314912665 -2.00000000000003
  endloop
endfacet
facet normal -5.1874451564621264e-17 -1.2588350369114284e-16 -1.0
  outer loop
    vertex 130.43122196286143 5.0871424698549745 -2.00000000000003
    vertex 130.43122196286143 59.901802314912665 -2.00000000000003
    vertex 130.43122196286143 38.88496418591986 -2.00000000000003
  endloop
endfacet
facet normal 1.0 -0.0 -0.0
  outer loop
    vertex 130.43122196286143 38.88496418591986 -2.00000000000003
    vertex 130.43122196286143 5.0871424698549745 0.0
    vertex 130.43122196286143 5.0871424698549745 -2.00000000000003
  endloop
endfacet
facet normal 1.0 -0.0 -0.0
  outer loop
    vertex 130.43122196286143 5.0871424698549745 0.0
    vertex 130.43122196286143 38.88496418591986 -2.00000000000003
    vertex 130.43122196286143 38.88496418591986 0.0
  endloop
endfacet
facet normal 0.0 -1.0 0.0
  outer loop
    vertex 130.43122196286143 5.0871424698549745 0.0
    vertex 129.43122196286143 5.0871424698549745 -2.0000000000000075
    vertex 130.43122196286143 5.0871424698549745 -2.00000000000003
  endloop
endfacet
facet normal 0.0 -1.0 0.0
  outer loop
    vertex 129.43122196286143 5.0871424698549745 -2.0000000000000075
    vertex 130.43122196286143 5.0871424698549745 0.0
    vertex 129.43122196286146 5.0871424698549745 1.6919798895287383e-14
  endloop
endfacet
facet normal 1.651276968265961e-16 -1.0 1.7624790515923957e-16
  outer loop
    vertex 129.43122196286146 5.0871424698549745 1.6919798895287383e-14
    vertex 127.29653579517 5.0871424698549745 -2.0000000000000018
    vertex 129.43122196286143 5.0871424698549745 -2.0000000000000075
  endloop
endfacet
facet normal 1.651276968265961e-16 -1.0 1.7624790515923957e-16
  outer loop
    vertex 127.29653579517 5.0871424698549745 -2.0000000000000018
    vertex 129.43122196286146 5.0871424698549745 1.6919798895287383e-14
    vertex 127.29653579517 5.0871424698549745 -1.127986593019159e-14
  endloop
endfacet
facet normal 3.642637603162514e-17 -1.0 -2.0255918633874722e-31
  outer loop
    vertex 119.1389770261105 5.0871424698549745 -1.9999999999999962
    vertex 80.43122196286153 5.087142469854973 0.0
    vertex 80.43122196286156 5.087142469854973 -2.000000000000019
  endloop
endfacet
facet normal 3.642637603162514e-17 -1.0 -2.0255918633874722e-31
  outer loop
    vertex 80.43122196286153 5.087142469854973 0.0
    vertex 119.1389770261105 5.0871424698549745 -1.9999999999999962
    vertex 119.13897702611054 5.0871424698549745 0.0
  endloop
endfacet
facet normal -1.0 0.0 -1.1279865930191483e-14
  outer loop
    vertex 80.43122196286153 39.31653146985497 0.0
    vertex 80.43122196286156 5.087142469854973 -2.000000000000019
    vertex 80.43122196286153 5.087142469854973 0.0
  endloop
endfacet
facet normal -1.0 0.0 -1.1279865930191483e-14
  outer loop
    vertex 80.43122196286156 5.087142469854973 -2.000000000000019
    vertex 80.43122196286153 39.31653146985497 0.0
    vertex 80.43122196286156 39.31653146985497 -2.000000000000019
  endloop
endfacet
facet normal -1.0 0.0 -1.1279865930191483e-14
  outer loop
    vertex 80.43122196286153 47.36843457577457 0.0
    vertex 80.43122196286156 39.31653146985497 -2.000000000000019
    vertex 80.43122196286153 39.31653146985497 0.0
  endloop
endfacet
facet normal -1.0 0.0 -1.1279865930191483e-14
  outer loop
    vertex 80.43122196286156 39.31653146985497 -2.000000000000019
    vertex 80.43122196286153 47.36843457577457 0.0
    vertex 80.43122196286156 47.36843457577457 -2.000000000000019
  endloop
endfacet
facet normal -1.0 0.0 -1.1279865930191483e-14
  outer loop
    vertex 80.43122196286153 58.0648020217035 0.0
    vertex 80.43122196286156 47.36843457577457 -2.000000000000019
    vertex 80.43122196286153 47.36843457577457 0.0
  endloop
endfacet
facet normal -1.0 0.0 -1.1279865930191483e-14
  outer loop
    vertex 80.43122196286156 47.36843457577457 -2.000000000000019
    vertex 80.43122196286153 58.0648020217035 0.0
    vertex 80.43122196286156 58.0648020217035 -2.000000000000019
  endloop
endfacet
facet normal -1.0 0.0 -1.1279865930191483e-14
  outer loop
    vertex 80.43122196286153 65.36029029562017 0.0
    vertex 80.43122196286156 58.0648020217035 -2.000000000000019
    vertex 80.43122196286153 58.0648020217035 0.0
  endloop
endfacet
facet normal -1.0 0.0 -1.1279865930191483e-14
  outer loop
    vertex 80.43122196286156 58.0648020217035 -2.000000000000019
    vertex 80.43122196286153 65.36029029562017 0.0
    vertex 80.43122196286156 65.36029029562017 -2.000000000000019
  endloop
endfacet
facet normal -1.0 0.0 -1.1279865930191483e-14
  outer loop
    vertex 80.43122196286153 74.02923246985497 0.0
    vertex 80.43122196286156 65.36029029562017 -2.000000000000019
    vertex 80.43122196286153 65.36029029562017 0.0
  endloop
endfacet
facet normal -1.0 0.0 -1.1279865930191483e-14
  outer loop
    vertex 80.43122196286156 65.36029029562017 -2.000000000000019
    vertex 80.43122196286153 74.02923246985497 0.0
    vertex 80.43122196286156 74.02923246985497 -2.000000000000019
  endloop
endfacet
facet normal -1.0 0.0 -1.1279865930191483e-14
  outer loop
    vertex 80.43122196286153 75.20774746985492 0.0
    vertex 80.43122196286156 74.02923246985497 -2.000000000000019
    vertex 80.43122196286153 74.02923246985497 0.0
  endloop
endfacet
facet normal -1.0 0.0 -1.1279865930191483e-14
  outer loop
    vertex 80.43122196286156 74.02923246985497 -2.000000000000019
    vertex 80.43122196286153 75.20774746985492 0.0
    vertex 80.43122196286156 75.20774746985492 -2.000000000000019
  endloop
endfacet
facet normal -0.0 1.0 -0.0
  outer loop
    vertex 80.43122196286153 75.20774746985492 0.0
    vertex 81.43122196286154 75.20774746985492 -2.0000000000000133
    vertex 80.43122196286156 75.20774746985492 -2.000000000000019
  endloop
endfacet
facet normal -0.0 1.0 -0.0
  outer loop
    vertex 81.43122196286154 75.20774746985492 -2.0000000000000133
    vertex 80.43122196286153 75.20774746985492 0.0
    vertex 81.43122196286151 75.20774746985492 1.127986593019159e-14
  endloop
endfacet
facet normal -9.399888275159675e-16 1.0 4.763043024530002e-30
  outer loop
    vertex 81.43122196286151 75.20774746985492 1.127986593019159e-14
    vertex 129.43122196286143 75.20774746985497 -2.0000000000000075
    vertex 81.43122196286154 75.20774746985492 -2.0000000000000133
  endloop
endfacet
facet normal -9.399888275159675e-16 1.0 4.763043024530002e-30
  outer loop
    vertex 129.43122196286143 75.20774746985497 -2.0000000000000075
    vertex 81.43122196286151 75.20774746985492 1.127986593019159e-14
    vertex 129.43122196286146 75.20774746985497 1.6919798895287383e-14
  endloop
endfacet
facet normal -0.0 1.0 -0.0
  outer loop
    vertex 129.43122196286143 75.20774746985497 -2.0000000000000075
    vertex 130.43122196286143 75.20774746985497 0.0
    vertex 130.43122196286143 75.20774746985497 -2.00000000000003
  endloop
endfacet
facet normal -0.0 1.0 -0.0
  outer loop
    vertex 130.43122196286143 75.20774746985497 0.0
    vertex 129.43122196286143 75.20774746985497 -2.0000000000000075
    vertex 129.43122196286146 75.20774746985497 1.6919798895287383e-14
  endloop
endfacet
facet normal 1.0 -0.0 -0.0
  outer loop
    vertex 130.43122196286143 75.20774746985497 -2.00000000000003
    vertex 130.43122196286143 59.901802314912665 0.0
    vertex 130.43122196286143 59.901802314912665 -2.00000000000003
  endloop
endfacet
facet normal 1.0 -0.0 -0.0
  outer loop
    vertex 130.43122196286143 59.901802314912665 0.0
    vertex 130.43122196286143 75.20774746985497 -2.00000000000003
    vertex 130.43122196286143 75.20774746985497 0.0
  endloop
endfacet
facet normal -6.913750945303985e-16 0.0 -1.0
  outer loop
    vertex 127.29653579517 5.0871424698549745 -2.0000000000000018
    vertex 119.1389770261105 4.0855442168772 -1.9999999999999962
    vertex 119.1389770261105 5.0871424698549745 -1.9999999999999962
  endloop
endfacet
facet normal -6.913750945303985e-16 0.0 -1.0
  outer loop
    vertex 119.1389770261105 4.0855442168772 -1.9999999999999962
    vertex 127.29653579517 5.0871424698549745 -2.0000000000000018
    vertex 127.29653579517 4.0855442168772 -2.0000000000000018
  endloop
endfacet
facet normal 4.3210943408150085e-17 -1.0 1.7624790515924344e-16
  outer loop
    vertex 127.29653579517 5.0871424698549745 -1.127986593019159e-14
    vertex 119.1389770261105 5.0871424698549745 -1.9999999999999962
    vertex 127.29653579517 5.0871424698549745 -2.0000000000000018
  endloop
endfacet
facet normal 4.3210943408150085e-17 -1.0 1.7624790515924344e-16
  outer loop
    vertex 119.1389770261105 5.0871424698549745 -1.9999999999999962
    vertex 127.29653579517 5.0871424698549745 -1.127986593019159e-14
    vertex 119.13897702611054 5.0871424698549745 0.0
  endloop
endfacet
facet normal 1.0370626417955993e-15 6.334799972812595e-15 1.0
  outer loop
    vertex 127.29653579517 4.0855442168772 -2.114974861910923e-15
    vertex 119.13897702611054 5.0871424698549745 0.0
    vertex 119.1389770261105 4.0855442168772 3.524958103184872e-15
  endloop
endfacet
facet normal 1.0370626417955993e-15 6.334799972812595e-15 1.0
  outer loop
    vertex 119.13897702611054 5.0871424698549745 0.0
    vertex 127.29653579517 4.0855442168772 -2.114974861910923e-15
    vertex 127.29653579517 5.0871424698549745 -1.127986593019159e-14
  endloop
endfacet
facet normal 1.0 -0.0 -0.0
  outer loop
    vertex 127.29653579517 5.0871424698549745 -2.0000000000000018
    vertex 127.29653579517 4.0855442168772 -2.114974861910923e-15
    vertex 127.29653579517 4.0855442168772 -2.0000000000000018
  endloop
endfacet
facet normal 1.0 -0.0 -0.0
  outer loop
    vertex 127.29653579517 4.0855442168772 -2.114974861910923e-15
    vertex 127.29653579517 5.0871424698549745 -2.0000000000000018
    vertex 127.29653579517 5.0871424698549745 -1.127986593019159e-14
  endloop
endfacet
facet normal -0.0 -1.0 0.0
  outer loop
    vertex 127.29653579517 4.0855442168772 -2.114974861910923e-15
    vertex 119.1389770261105 4.0855442168772 -1.9999999999999962
    vertex 127.29653579517 4.0855442168772 -2.0000000000000018
  endloop
endfacet
facet normal -0.0 -1.0 0.0
  outer loop
    vertex 119.1389770261105 4.0855442168772 -1.9999999999999962
    vertex 127.29653579517 4.0855442168772 -2.114974861910923e-15
    vertex 119.1389770261105 4.0855442168772 3.524958103184872e-15
  endloop
endfacet
facet normal -1.0 2.2523733236667105e-14 1.127986593019159e-14
  outer loop
    vertex 119.13897702611054 5.0871424698549745 0.0
    vertex 119.1389770261105 4.0855442168772 -1.9999999999999962
    vertex 119.1389770261105 4.0855442168772 3.524958103184872e-15
  endloop
endfacet
facet normal -1.0 2.2523733236667105e-14 1.127986593019159e-14
  outer loop
    vertex 119.1389770261105 4.0855442168772 -1.9999999999999962
    vertex 119.13897702611054 5.0871424698549745 0.0
    vertex 119.1389770261105 5.0871424698549745 -1.9999999999999962
  endloop
endfacet
facet normal -3.031463968738996e-14 0.0 -1.0
  outer loop
    vertex 131.43122196286143 59.901802314912665 -3.03146396873899e-14
    vertex 130.43122196286143 38.88496418591986 0.0
    vertex 130.43122196286143 59.901802314912665 0.0
  endloop
endfacet
facet normal -3.031463968738996e-14 0.0 -1.0
  outer loop
    vertex 130.43122196286143 38.88496418591986 0.0
    vertex 131.43122196286143 59.901802314912665 -3.03146396873899e-14
    vertex 131.43122196286143 38.88496418591986 -3.03146396873899e-14
  endloop
endfacet
facet normal 1.0 -0.0 -0.0
  outer loop
    vertex 130.43122196286143 59.901802314912665 -2.00000000000003
    vertex 130.43122196286143 38.88496418591986 0.0
    vertex 130.43122196286143 38.88496418591986 -2.00000000000003
  endloop
endfacet
facet normal 1.0 -0.0 -0.0
  outer loop
    vertex 130.43122196286143 38.88496418591986 0.0
    vertex 130.43122196286143 59.901802314912665 -2.00000000000003
    vertex 130.43122196286143 59.901802314912665 0.0
  endloop
endfacet
facet normal 0.0 -1.0 0.0
  outer loop
    vertex 131.43122196286143 59.901802314912665 -3.03146396873899e-14
    vertex 130.43122196286143 59.901802314912665 -2.00000000000003
    vertex 131.43122196286143 59.901802314912665 -2.00000000000003
  endloop
endfacet
facet normal 0.0 -1.0 0.0
  outer loop
    vertex 130.43122196286143 59.901802314912665 -2.00000000000003
    vertex 131.43122196286143 59.901802314912665 -3.03146396873899e-14
    vertex 130.43122196286143 59.901802314912665 0.0
  endloop
endfacet
facet normal -1.0 -0.0 -0.0
  outer loop
    vertex 131.43122196286143 59.901802314912665 -3.03146396873899e-14
    vertex 131.43122196286143 38.88496418591986 -2.00000000000003
    vertex 131.43122196286143 38.88496418591986 -3.03146396873899e-14
  endloop
endfacet
facet normal -1.0 -0.0 -0.0
  outer loop
    vertex 131.43122196286143 38.88496418591986 -2.00000000000003
    vertex 131.43122196286143 59.901802314912665 -3.03146396873899e-14
    vertex 131.43122196286143 59.901802314912665 -2.00000000000003
  endloop
endfacet
facet normal -0.0 1.0 -0.0
  outer loop
    vertex 130.43122196286143 38.88496418591986 0.0
    vertex 131.43122196286143 38.88496418591986 -2.00000000000003
    vertex 130.43122196286143 38.88496418591986 -2.00000000000003
  endloop
endfacet
facet normal -0.0 1.0 -0.0
  outer loop
    vertex 131.43122196286143 38.88496418591986 -2.00000000000003
    vertex 130.43122196286143 38.88496418591986 0.0
    vertex 131.43122196286143 38.88496418591986 -3.03146396873899e-14
  endloop
endfacet
facet normal 0.0 0.0 -1.0
  outer loop
    vertex 80.43122196286156 47.36843457577457 -2.000000000000019
    vertex 79.43122196286156 39.31653146985497 -2.000000000000019
    vertex 79.43122196286156 47.36843457577457 -2.000000000000019
  endloop
endfacet
facet normal 0.0 0.0 -1.0
  outer loop
    vertex 79.43122196286156 39.31653146985497 -2.000000000000019
    vertex 80.43122196286156 47.36843457577457 -2.000000000000019
    vertex 80.43122196286156 39.31653146985497 -2.000000000000019
  endloop
endfacet
facet normal -1.903477375719877e-14 -0.0 1.0
  outer loop
    vertex 80.43122196286153 39.31653146985497 0.0
    vertex 79.43122196286156 47.36843457577457 -1.9034773757198308e-14
    vertex 79.43122196286156 39.31653146985497 -1.9034773757198308e-14
  endloop
endfacet
facet normal -1.903477375719877e-14 -0.0 1.0
  outer loop
    vertex 79.43122196286156 47.36843457577457 -1.9034773757198308e-14
    vertex 80.43122196286153 39.31653146985497 0.0
    vertex 80.43122196286153 47.36843457577457 0.0
  endloop
endfacet
facet normal 0.0 -1.0 0.0
  outer loop
    vertex 80.43122196286153 39.31653146985497 0.0
    vertex 79.43122196286156 39.31653146985497 -2.000000000000019
    vertex 80.43122196286156 39.31653146985497 -2.000000000000019
  endloop
endfacet
facet normal 0.0 -1.0 0.0
  outer loop
    vertex 79.43122196286156 39.31653146985497 -2.000000000000019
    vertex 80.43122196286153 39.31653146985497 0.0
    vertex 79.43122196286156 39.31653146985497 -1.9034773757198308e-14
  endloop
endfacet
facet normal -1.0 0.0 0.0
  outer loop
    vertex 79.43122196286156 47.36843457577457 -1.9034773757198308e-14
    vertex 79.43122196286156 39.31653146985497 -2.000000000000019
    vertex 79.43122196286156 39.31653146985497 -1.9034773757198308e-14
  endloop
endfacet
facet normal -1.0 0.0 0.0
  outer loop
    vertex 79.43122196286156 39.31653146985497 -2.000000000000019
    vertex 79.43122196286156 47.36843457577457 -1.9034773757198308e-14
    vertex 79.43122196286156 47.36843457577457 -2.000000000000019
  endloop
endfacet
facet normal -0.0 1.0 -0.0
  outer loop
    vertex 79.43122196286156 47.36843457577457 -1.9034773757198308e-14
    vertex 80.43122196286156 47.36843457577457 -2.000000000000019
    vertex 79.43122196286156 47.36843457577457 -2.000000000000019
  endloop
endfacet
facet normal -0.0 1.0 -0.0
  outer loop
    vertex 80.43122196286156 47.36843457577457 -2.000000000000019
    vertex 79.43122196286156 47.36843457577457 -1.9034773757198308e-14
    vertex 80.43122196286153 47.36843457577457 0.0
  endloop
endfacet
facet normal 0.0 0.0 -1.0
  outer loop
    vertex 80.43122196286156 65.36029029562017 -2.000000000000019
    vertex 79.43122196286156 58.0648020217035 -2.000000000000019
    vertex 79.43122196286156 65.36029029562017 -2.000000000000019
  endloop
endfacet
facet normal 0.0 0.0 -1.0
  outer loop
    vertex 79.43122196286156 58.0648020217035 -2.000000000000019
    vertex 80.43122196286156 65.36029029562017 -2.000000000000019
    vertex 80.43122196286156 58.0648020217035 -2.000000000000019
  endloop
endfacet
facet normal -1.9034773757198775e-14 -0.0 1.0
  outer loop
    vertex 80.43122196286153 58.0648020217035 0.0
    vertex 79.43122196286156 65.36029029562017 -1.9034773757198308e-14
    vertex 79.43122196286156 58.0648020217035 -1.9034773757198308e-14
  endloop
endfacet
facet normal -1.9034773757198775e-14 -0.0 1.0
  outer loop
    vertex 79.43122196286156 65.36029029562017 -1.9034773757198308e-14
    vertex 80.43122196286153 58.0648020217035 0.0
    vertex 80.43122196286153 65.36029029562017 0.0
  endloop
endfacet
facet normal -0.0 1.0 -0.0
  outer loop
    vertex 79.43122196286156 65.36029029562017 -1.9034773757198308e-14
    vertex 80.43122196286156 65.36029029562017 -2.000000000000019
    vertex 79.43122196286156 65.36029029562017 -2.000000000000019
  endloop
endfacet
facet normal -0.0 1.0 -0.0
  outer loop
    vertex 80.43122196286156 65.36029029562017 -2.000000000000019
    vertex 79.43122196286156 65.36029029562017 -1.9034773757198308e-14
    vertex 80.43122196286153 65.36029029562017 0.0
  endloop
endfacet
facet normal 0.0 -1.0 0.0
  outer loop
    vertex 80.43122196286153 58.0648020217035 0.0
    vertex 79.43122196286156 58.0648020217035 -2.000000000000019
    vertex 80.43122196286156 58.0648020217035 -2.000000000000019
  endloop
endfacet
facet normal 0.0 -1.0 0.0
  outer loop
    vertex 79.43122196286156 58.0648020217035 -2.000000000000019
    vertex 80.43122196286153 58.0648020217035 0.0
    vertex 79.43122196286156 58.0648020217035 -1.9034773757198308e-14
  endloop
endfacet
facet normal -1.0 0.0 0.0
  outer loop
    vertex 79.43122196286156 65.36029029562017 -1.9034773757198308e-14
    vertex 79.43122196286156 58.0648020217035 -2.000000000000019
    vertex 79.43122196286156 58.0648020217035 -1.9034773757198308e-14
  endloop
endfacet
facet normal -1.0 0.0 0.0
  outer loop
    vertex 79.43122196286156 58.0648020217035 -2.000000000000019
    vertex 79.43122196286156 65.36029029562017 -1.9034773757198308e-14
    vertex 79.43122196286156 65.36029029562017 -2.000000000000019
  endloop
endfacet
endsolid pcb enclosure 1
