G04 #@! TF.FileFunction,Legend,Bot*
%FSLAX46Y46*%
G04 Gerber Fmt 4.6, Leading zero omitted, Abs format (unit mm)*
G04 Created by KiCad (PCBNEW 4.0.6) date 08/10/17 19:56:54*
%MOMM*%
%LPD*%
G01*
G04 APERTURE LIST*
%ADD10C,0.100000*%
%ADD11C,0.375000*%
%ADD12C,0.010000*%
%ADD13R,1.802000X1.802000*%
%ADD14O,1.802000X1.802000*%
%ADD15R,1.302000X1.802000*%
%ADD16O,1.302000X1.802000*%
%ADD17C,1.552000*%
G04 APERTURE END LIST*
D10*
X118110000Y-59690000D02*
G75*
G03X116840000Y-60960000I0J-1270000D01*
G01*
X116840000Y-119380000D02*
G75*
G03X118110000Y-120650000I1270000J0D01*
G01*
X165100000Y-120650000D02*
G75*
G03X166370000Y-119380000I0J1270000D01*
G01*
X166370000Y-60960000D02*
G75*
G03X165100000Y-59690000I-1270000J0D01*
G01*
X165100000Y-120650000D02*
X118110000Y-120650000D01*
X166370000Y-60960000D02*
X166370000Y-119380000D01*
X118110000Y-59690000D02*
X165100000Y-59690000D01*
X116840000Y-60960000D02*
X116840000Y-119380000D01*
D11*
X163778429Y-61906333D02*
X163778429Y-60739666D01*
X165087952Y-60739666D02*
X162587952Y-60739666D01*
X162587952Y-62406333D01*
X163421286Y-65239666D02*
X165087952Y-65239666D01*
X163421286Y-63739666D02*
X164730810Y-63739666D01*
X164968905Y-63906333D01*
X165087952Y-64239666D01*
X165087952Y-64739666D01*
X164968905Y-65073000D01*
X164849857Y-65239666D01*
X163421286Y-66406333D02*
X163421286Y-67739667D01*
X162587952Y-66906333D02*
X164730810Y-66906333D01*
X164968905Y-67073000D01*
X165087952Y-67406333D01*
X165087952Y-67739667D01*
X163421286Y-70406333D02*
X165087952Y-70406333D01*
X163421286Y-68906333D02*
X164730810Y-68906333D01*
X164968905Y-69073000D01*
X165087952Y-69406333D01*
X165087952Y-69906333D01*
X164968905Y-70239667D01*
X164849857Y-70406333D01*
X163421286Y-71739667D02*
X165087952Y-72406334D01*
X163897476Y-73073000D01*
X165087952Y-73739667D01*
X163421286Y-74406334D01*
X164968905Y-77073001D02*
X165087952Y-76739667D01*
X165087952Y-76073001D01*
X164968905Y-75739667D01*
X164730810Y-75573001D01*
X163778429Y-75573001D01*
X163540333Y-75739667D01*
X163421286Y-76073001D01*
X163421286Y-76739667D01*
X163540333Y-77073001D01*
X163778429Y-77239667D01*
X164016524Y-77239667D01*
X164254619Y-75573001D01*
X165087952Y-80239667D02*
X163778429Y-80239667D01*
X163540333Y-80073001D01*
X163421286Y-79739667D01*
X163421286Y-79073001D01*
X163540333Y-78739667D01*
X164968905Y-80239667D02*
X165087952Y-79906334D01*
X165087952Y-79073001D01*
X164968905Y-78739667D01*
X164730810Y-78573001D01*
X164492714Y-78573001D01*
X164254619Y-78739667D01*
X164135571Y-79073001D01*
X164135571Y-79906334D01*
X164016524Y-80239667D01*
X165087952Y-81906334D02*
X163421286Y-81906334D01*
X163897476Y-81906334D02*
X163659381Y-82073001D01*
X163540333Y-82239668D01*
X163421286Y-82573001D01*
X163421286Y-82906334D01*
X162587952Y-86239668D02*
X165087952Y-87406335D01*
X162587952Y-88573002D01*
X162826048Y-89573002D02*
X162707000Y-89739668D01*
X162587952Y-90073002D01*
X162587952Y-90906335D01*
X162707000Y-91239668D01*
X162826048Y-91406335D01*
X163064143Y-91573002D01*
X163302238Y-91573002D01*
X163659381Y-91406335D01*
X165087952Y-89406335D01*
X165087952Y-91573002D01*
D12*
G36*
X152451903Y-68831900D02*
X152507522Y-68943450D01*
X152609931Y-69041908D01*
X152647864Y-69069023D01*
X152697500Y-69098562D01*
X152751412Y-69117728D01*
X152823364Y-69128693D01*
X152927122Y-69133629D01*
X153064101Y-69134713D01*
X153251815Y-69129818D01*
X153392758Y-69112804D01*
X153497908Y-69080177D01*
X153578243Y-69028442D01*
X153644741Y-68954104D01*
X153648678Y-68948642D01*
X153688953Y-68875380D01*
X153708880Y-68787160D01*
X153713793Y-68674962D01*
X153713793Y-68492567D01*
X153890857Y-68492491D01*
X153989470Y-68490793D01*
X154047314Y-68480450D01*
X154082006Y-68453422D01*
X154111164Y-68401668D01*
X154117121Y-68389239D01*
X154145039Y-68331077D01*
X154162672Y-68286044D01*
X154164194Y-68252559D01*
X154143781Y-68229038D01*
X154095607Y-68213900D01*
X154013846Y-68205563D01*
X153892672Y-68202444D01*
X153726260Y-68202960D01*
X153508785Y-68205529D01*
X153443736Y-68206332D01*
X153219502Y-68209222D01*
X153072821Y-68211812D01*
X153072821Y-68492414D01*
X153197326Y-68493991D01*
X153278787Y-68501000D01*
X153332515Y-68516858D01*
X153373823Y-68544981D01*
X153393971Y-68564075D01*
X153452921Y-68642135D01*
X153457720Y-68711247D01*
X153409038Y-68782560D01*
X153407241Y-68784368D01*
X153369618Y-68813383D01*
X153318484Y-68831033D01*
X153239738Y-68839936D01*
X153119276Y-68842709D01*
X153092588Y-68842759D01*
X152926583Y-68836058D01*
X152811505Y-68814248D01*
X152741254Y-68774765D01*
X152709729Y-68715044D01*
X152706552Y-68680528D01*
X152721460Y-68598611D01*
X152770548Y-68542421D01*
X152860362Y-68508598D01*
X152997445Y-68493780D01*
X153072821Y-68492414D01*
X153072821Y-68211812D01*
X153045952Y-68212287D01*
X152915382Y-68216247D01*
X152820087Y-68221826D01*
X152752364Y-68229746D01*
X152704507Y-68240731D01*
X152668813Y-68255501D01*
X152637578Y-68274782D01*
X152625824Y-68283049D01*
X152514797Y-68392712D01*
X152451847Y-68531365D01*
X152434297Y-68691754D01*
X152451903Y-68831900D01*
X152451903Y-68831900D01*
G37*
X152451903Y-68831900D02*
X152507522Y-68943450D01*
X152609931Y-69041908D01*
X152647864Y-69069023D01*
X152697500Y-69098562D01*
X152751412Y-69117728D01*
X152823364Y-69128693D01*
X152927122Y-69133629D01*
X153064101Y-69134713D01*
X153251815Y-69129818D01*
X153392758Y-69112804D01*
X153497908Y-69080177D01*
X153578243Y-69028442D01*
X153644741Y-68954104D01*
X153648678Y-68948642D01*
X153688953Y-68875380D01*
X153708880Y-68787160D01*
X153713793Y-68674962D01*
X153713793Y-68492567D01*
X153890857Y-68492491D01*
X153989470Y-68490793D01*
X154047314Y-68480450D01*
X154082006Y-68453422D01*
X154111164Y-68401668D01*
X154117121Y-68389239D01*
X154145039Y-68331077D01*
X154162672Y-68286044D01*
X154164194Y-68252559D01*
X154143781Y-68229038D01*
X154095607Y-68213900D01*
X154013846Y-68205563D01*
X153892672Y-68202444D01*
X153726260Y-68202960D01*
X153508785Y-68205529D01*
X153443736Y-68206332D01*
X153219502Y-68209222D01*
X153072821Y-68211812D01*
X153072821Y-68492414D01*
X153197326Y-68493991D01*
X153278787Y-68501000D01*
X153332515Y-68516858D01*
X153373823Y-68544981D01*
X153393971Y-68564075D01*
X153452921Y-68642135D01*
X153457720Y-68711247D01*
X153409038Y-68782560D01*
X153407241Y-68784368D01*
X153369618Y-68813383D01*
X153318484Y-68831033D01*
X153239738Y-68839936D01*
X153119276Y-68842709D01*
X153092588Y-68842759D01*
X152926583Y-68836058D01*
X152811505Y-68814248D01*
X152741254Y-68774765D01*
X152709729Y-68715044D01*
X152706552Y-68680528D01*
X152721460Y-68598611D01*
X152770548Y-68542421D01*
X152860362Y-68508598D01*
X152997445Y-68493780D01*
X153072821Y-68492414D01*
X153072821Y-68211812D01*
X153045952Y-68212287D01*
X152915382Y-68216247D01*
X152820087Y-68221826D01*
X152752364Y-68229746D01*
X152704507Y-68240731D01*
X152668813Y-68255501D01*
X152637578Y-68274782D01*
X152625824Y-68283049D01*
X152514797Y-68392712D01*
X152451847Y-68531365D01*
X152434297Y-68691754D01*
X152451903Y-68831900D01*
G36*
X152467719Y-71077429D02*
X152521914Y-71171123D01*
X152575707Y-71236264D01*
X152632066Y-71283907D01*
X152700987Y-71316728D01*
X152792468Y-71337406D01*
X152916506Y-71348620D01*
X153083098Y-71353049D01*
X153202851Y-71353563D01*
X153643659Y-71353563D01*
X153699283Y-71229483D01*
X153754907Y-71105402D01*
X153272095Y-71090805D01*
X153091779Y-71084773D01*
X152960901Y-71078445D01*
X152870511Y-71070606D01*
X152811664Y-71060037D01*
X152775413Y-71045523D01*
X152752810Y-71025848D01*
X152747917Y-71019535D01*
X152709706Y-70923888D01*
X152724827Y-70827207D01*
X152764943Y-70769655D01*
X152793370Y-70746245D01*
X152830672Y-70730039D01*
X152887223Y-70719741D01*
X152973394Y-70714049D01*
X153099558Y-70711664D01*
X153231042Y-70711264D01*
X153395999Y-70711186D01*
X153512761Y-70708361D01*
X153591510Y-70698907D01*
X153642431Y-70678940D01*
X153675706Y-70644576D01*
X153701520Y-70591932D01*
X153728344Y-70521617D01*
X153757542Y-70444820D01*
X153239346Y-70453962D01*
X153052539Y-70457643D01*
X152914490Y-70461950D01*
X152815568Y-70468123D01*
X152746145Y-70477402D01*
X152696590Y-70491027D01*
X152657273Y-70510239D01*
X152622584Y-70533402D01*
X152511770Y-70645152D01*
X152447689Y-70781513D01*
X152432339Y-70929825D01*
X152467719Y-71077429D01*
X152467719Y-71077429D01*
G37*
X152467719Y-71077429D02*
X152521914Y-71171123D01*
X152575707Y-71236264D01*
X152632066Y-71283907D01*
X152700987Y-71316728D01*
X152792468Y-71337406D01*
X152916506Y-71348620D01*
X153083098Y-71353049D01*
X153202851Y-71353563D01*
X153643659Y-71353563D01*
X153699283Y-71229483D01*
X153754907Y-71105402D01*
X153272095Y-71090805D01*
X153091779Y-71084773D01*
X152960901Y-71078445D01*
X152870511Y-71070606D01*
X152811664Y-71060037D01*
X152775413Y-71045523D01*
X152752810Y-71025848D01*
X152747917Y-71019535D01*
X152709706Y-70923888D01*
X152724827Y-70827207D01*
X152764943Y-70769655D01*
X152793370Y-70746245D01*
X152830672Y-70730039D01*
X152887223Y-70719741D01*
X152973394Y-70714049D01*
X153099558Y-70711664D01*
X153231042Y-70711264D01*
X153395999Y-70711186D01*
X153512761Y-70708361D01*
X153591510Y-70698907D01*
X153642431Y-70678940D01*
X153675706Y-70644576D01*
X153701520Y-70591932D01*
X153728344Y-70521617D01*
X153757542Y-70444820D01*
X153239346Y-70453962D01*
X153052539Y-70457643D01*
X152914490Y-70461950D01*
X152815568Y-70468123D01*
X152746145Y-70477402D01*
X152696590Y-70491027D01*
X152657273Y-70510239D01*
X152622584Y-70533402D01*
X152511770Y-70645152D01*
X152447689Y-70781513D01*
X152432339Y-70929825D01*
X152467719Y-71077429D01*
G36*
X152456015Y-67708221D02*
X152527968Y-67845061D01*
X152643766Y-67946051D01*
X152718213Y-67981925D01*
X152829992Y-68009839D01*
X152971227Y-68024129D01*
X153125371Y-68025484D01*
X153275879Y-68014595D01*
X153406205Y-67992153D01*
X153499803Y-67958850D01*
X153515922Y-67948615D01*
X153636249Y-67827382D01*
X153708317Y-67683387D01*
X153729408Y-67527139D01*
X153696802Y-67369148D01*
X153677253Y-67325180D01*
X153617012Y-67239556D01*
X153537135Y-67164408D01*
X153527004Y-67157306D01*
X153478181Y-67128439D01*
X153425990Y-67109357D01*
X153357285Y-67098084D01*
X153258918Y-67092645D01*
X153117744Y-67091062D01*
X153086092Y-67091035D01*
X153076019Y-67091107D01*
X153076019Y-67382989D01*
X153209256Y-67384687D01*
X153297674Y-67391372D01*
X153354785Y-67405425D01*
X153394102Y-67429229D01*
X153407241Y-67441379D01*
X153457172Y-67511236D01*
X153454895Y-67579059D01*
X153411584Y-67647635D01*
X153365346Y-67688535D01*
X153297857Y-67712758D01*
X153191433Y-67726361D01*
X153179020Y-67727294D01*
X152986147Y-67729616D01*
X152842900Y-67705350D01*
X152750160Y-67654824D01*
X152708807Y-67578368D01*
X152706552Y-67551076D01*
X152717893Y-67479411D01*
X152757184Y-67430390D01*
X152832326Y-67400418D01*
X152951222Y-67385899D01*
X153076019Y-67382989D01*
X153076019Y-67091107D01*
X152935659Y-67092122D01*
X152830549Y-67096688D01*
X152757714Y-67106688D01*
X152704108Y-67124079D01*
X152656681Y-67150816D01*
X152647864Y-67156724D01*
X152529007Y-67256032D01*
X152460008Y-67364242D01*
X152432619Y-67495981D01*
X152431281Y-67540717D01*
X152456015Y-67708221D01*
X152456015Y-67708221D01*
G37*
X152456015Y-67708221D02*
X152527968Y-67845061D01*
X152643766Y-67946051D01*
X152718213Y-67981925D01*
X152829992Y-68009839D01*
X152971227Y-68024129D01*
X153125371Y-68025484D01*
X153275879Y-68014595D01*
X153406205Y-67992153D01*
X153499803Y-67958850D01*
X153515922Y-67948615D01*
X153636249Y-67827382D01*
X153708317Y-67683387D01*
X153729408Y-67527139D01*
X153696802Y-67369148D01*
X153677253Y-67325180D01*
X153617012Y-67239556D01*
X153537135Y-67164408D01*
X153527004Y-67157306D01*
X153478181Y-67128439D01*
X153425990Y-67109357D01*
X153357285Y-67098084D01*
X153258918Y-67092645D01*
X153117744Y-67091062D01*
X153086092Y-67091035D01*
X153076019Y-67091107D01*
X153076019Y-67382989D01*
X153209256Y-67384687D01*
X153297674Y-67391372D01*
X153354785Y-67405425D01*
X153394102Y-67429229D01*
X153407241Y-67441379D01*
X153457172Y-67511236D01*
X153454895Y-67579059D01*
X153411584Y-67647635D01*
X153365346Y-67688535D01*
X153297857Y-67712758D01*
X153191433Y-67726361D01*
X153179020Y-67727294D01*
X152986147Y-67729616D01*
X152842900Y-67705350D01*
X152750160Y-67654824D01*
X152708807Y-67578368D01*
X152706552Y-67551076D01*
X152717893Y-67479411D01*
X152757184Y-67430390D01*
X152832326Y-67400418D01*
X152951222Y-67385899D01*
X153076019Y-67382989D01*
X153076019Y-67091107D01*
X152935659Y-67092122D01*
X152830549Y-67096688D01*
X152757714Y-67106688D01*
X152704108Y-67124079D01*
X152656681Y-67150816D01*
X152647864Y-67156724D01*
X152529007Y-67256032D01*
X152460008Y-67364242D01*
X152432619Y-67495981D01*
X152431281Y-67540717D01*
X152456015Y-67708221D01*
G36*
X152474676Y-69975552D02*
X152552111Y-70090658D01*
X152663949Y-70179611D01*
X152806265Y-70232749D01*
X152911015Y-70243497D01*
X152954726Y-70242276D01*
X152988194Y-70232056D01*
X153018179Y-70203961D01*
X153051440Y-70149116D01*
X153094738Y-70058645D01*
X153154833Y-69923672D01*
X153155134Y-69922989D01*
X153212037Y-69798751D01*
X153262565Y-69696873D01*
X153301280Y-69627767D01*
X153322740Y-69601846D01*
X153322913Y-69601839D01*
X153369644Y-69624685D01*
X153421154Y-69678109D01*
X153458261Y-69739442D01*
X153465632Y-69770515D01*
X153440138Y-69855289D01*
X153376291Y-69928293D01*
X153306094Y-69963913D01*
X153254343Y-69998180D01*
X153195409Y-70065303D01*
X153144496Y-70144208D01*
X153116809Y-70213821D01*
X153115287Y-70228377D01*
X153140321Y-70244763D01*
X153204311Y-70245750D01*
X153290593Y-70233708D01*
X153382501Y-70211007D01*
X153463369Y-70180014D01*
X153466509Y-70178448D01*
X153596734Y-70085181D01*
X153685311Y-69964304D01*
X153728786Y-69827027D01*
X153723706Y-69684560D01*
X153666616Y-69548112D01*
X153662602Y-69542045D01*
X153565326Y-69434710D01*
X153438409Y-69364132D01*
X153271526Y-69325074D01*
X153224639Y-69319832D01*
X153003329Y-69310548D01*
X152900124Y-69321678D01*
X152900124Y-69601839D01*
X152964503Y-69605479D01*
X152983291Y-69625389D01*
X152969235Y-69675026D01*
X152936009Y-69753267D01*
X152894359Y-69840726D01*
X152893256Y-69842899D01*
X152854265Y-69917030D01*
X152828244Y-69946781D01*
X152800965Y-69939445D01*
X152765121Y-69908553D01*
X152713251Y-69829960D01*
X152709439Y-69745323D01*
X152747189Y-69669403D01*
X152820001Y-69616965D01*
X152900124Y-69601839D01*
X152900124Y-69321678D01*
X152826261Y-69329644D01*
X152685829Y-69378634D01*
X152587447Y-69446836D01*
X152488030Y-69569935D01*
X152438711Y-69705528D01*
X152435568Y-69843955D01*
X152474676Y-69975552D01*
X152474676Y-69975552D01*
G37*
X152474676Y-69975552D02*
X152552111Y-70090658D01*
X152663949Y-70179611D01*
X152806265Y-70232749D01*
X152911015Y-70243497D01*
X152954726Y-70242276D01*
X152988194Y-70232056D01*
X153018179Y-70203961D01*
X153051440Y-70149116D01*
X153094738Y-70058645D01*
X153154833Y-69923672D01*
X153155134Y-69922989D01*
X153212037Y-69798751D01*
X153262565Y-69696873D01*
X153301280Y-69627767D01*
X153322740Y-69601846D01*
X153322913Y-69601839D01*
X153369644Y-69624685D01*
X153421154Y-69678109D01*
X153458261Y-69739442D01*
X153465632Y-69770515D01*
X153440138Y-69855289D01*
X153376291Y-69928293D01*
X153306094Y-69963913D01*
X153254343Y-69998180D01*
X153195409Y-70065303D01*
X153144496Y-70144208D01*
X153116809Y-70213821D01*
X153115287Y-70228377D01*
X153140321Y-70244763D01*
X153204311Y-70245750D01*
X153290593Y-70233708D01*
X153382501Y-70211007D01*
X153463369Y-70180014D01*
X153466509Y-70178448D01*
X153596734Y-70085181D01*
X153685311Y-69964304D01*
X153728786Y-69827027D01*
X153723706Y-69684560D01*
X153666616Y-69548112D01*
X153662602Y-69542045D01*
X153565326Y-69434710D01*
X153438409Y-69364132D01*
X153271526Y-69325074D01*
X153224639Y-69319832D01*
X153003329Y-69310548D01*
X152900124Y-69321678D01*
X152900124Y-69601839D01*
X152964503Y-69605479D01*
X152983291Y-69625389D01*
X152969235Y-69675026D01*
X152936009Y-69753267D01*
X152894359Y-69840726D01*
X152893256Y-69842899D01*
X152854265Y-69917030D01*
X152828244Y-69946781D01*
X152800965Y-69939445D01*
X152765121Y-69908553D01*
X152713251Y-69829960D01*
X152709439Y-69745323D01*
X152747189Y-69669403D01*
X152820001Y-69616965D01*
X152900124Y-69601839D01*
X152900124Y-69321678D01*
X152826261Y-69329644D01*
X152685829Y-69378634D01*
X152587447Y-69446836D01*
X152488030Y-69569935D01*
X152438711Y-69705528D01*
X152435568Y-69843955D01*
X152474676Y-69975552D01*
G36*
X152313857Y-72404598D02*
X152433188Y-72413154D01*
X152503506Y-72422981D01*
X152534179Y-72436599D01*
X152534571Y-72456527D01*
X152530910Y-72462989D01*
X152504398Y-72548940D01*
X152505946Y-72660745D01*
X152533199Y-72774414D01*
X152568455Y-72845510D01*
X152624778Y-72918405D01*
X152688519Y-72971693D01*
X152769510Y-73008275D01*
X152877586Y-73031050D01*
X153022580Y-73042919D01*
X153214326Y-73046782D01*
X153251109Y-73046851D01*
X153664288Y-73046897D01*
X153696339Y-72954954D01*
X153718144Y-72889652D01*
X153728297Y-72853824D01*
X153728391Y-72852770D01*
X153700860Y-72849242D01*
X153624923Y-72846239D01*
X153510565Y-72843990D01*
X153367769Y-72842724D01*
X153280951Y-72842529D01*
X153109773Y-72842123D01*
X152987088Y-72840032D01*
X152903000Y-72834947D01*
X152847614Y-72825560D01*
X152811032Y-72810561D01*
X152783359Y-72788642D01*
X152770032Y-72774957D01*
X152716328Y-72680949D01*
X152712307Y-72578364D01*
X152757725Y-72485290D01*
X152774123Y-72468078D01*
X152804957Y-72442832D01*
X152841531Y-72425320D01*
X152894415Y-72414142D01*
X152974177Y-72407896D01*
X153091385Y-72405182D01*
X153252991Y-72404598D01*
X153664288Y-72404598D01*
X153696339Y-72312655D01*
X153718144Y-72247353D01*
X153728297Y-72211525D01*
X153728391Y-72210471D01*
X153700448Y-72207775D01*
X153621630Y-72205345D01*
X153499453Y-72203278D01*
X153341432Y-72201671D01*
X153155083Y-72200623D01*
X152947920Y-72200231D01*
X152938706Y-72200230D01*
X152149020Y-72200230D01*
X152108997Y-72295115D01*
X152068973Y-72390000D01*
X152313857Y-72404598D01*
X152313857Y-72404598D01*
G37*
X152313857Y-72404598D02*
X152433188Y-72413154D01*
X152503506Y-72422981D01*
X152534179Y-72436599D01*
X152534571Y-72456527D01*
X152530910Y-72462989D01*
X152504398Y-72548940D01*
X152505946Y-72660745D01*
X152533199Y-72774414D01*
X152568455Y-72845510D01*
X152624778Y-72918405D01*
X152688519Y-72971693D01*
X152769510Y-73008275D01*
X152877586Y-73031050D01*
X153022580Y-73042919D01*
X153214326Y-73046782D01*
X153251109Y-73046851D01*
X153664288Y-73046897D01*
X153696339Y-72954954D01*
X153718144Y-72889652D01*
X153728297Y-72853824D01*
X153728391Y-72852770D01*
X153700860Y-72849242D01*
X153624923Y-72846239D01*
X153510565Y-72843990D01*
X153367769Y-72842724D01*
X153280951Y-72842529D01*
X153109773Y-72842123D01*
X152987088Y-72840032D01*
X152903000Y-72834947D01*
X152847614Y-72825560D01*
X152811032Y-72810561D01*
X152783359Y-72788642D01*
X152770032Y-72774957D01*
X152716328Y-72680949D01*
X152712307Y-72578364D01*
X152757725Y-72485290D01*
X152774123Y-72468078D01*
X152804957Y-72442832D01*
X152841531Y-72425320D01*
X152894415Y-72414142D01*
X152974177Y-72407896D01*
X153091385Y-72405182D01*
X153252991Y-72404598D01*
X153664288Y-72404598D01*
X153696339Y-72312655D01*
X153718144Y-72247353D01*
X153728297Y-72211525D01*
X153728391Y-72210471D01*
X153700448Y-72207775D01*
X153621630Y-72205345D01*
X153499453Y-72203278D01*
X153341432Y-72201671D01*
X153155083Y-72200623D01*
X152947920Y-72200231D01*
X152938706Y-72200230D01*
X152149020Y-72200230D01*
X152108997Y-72295115D01*
X152068973Y-72390000D01*
X152313857Y-72404598D01*
G36*
X152514360Y-73739944D02*
X152556842Y-73854343D01*
X152557658Y-73855652D01*
X152609730Y-73926403D01*
X152670584Y-73978636D01*
X152749887Y-74015371D01*
X152857309Y-74039634D01*
X153002517Y-74054445D01*
X153195179Y-74062829D01*
X153222628Y-74063564D01*
X153636521Y-74074120D01*
X153682456Y-73985291D01*
X153713498Y-73921018D01*
X153728206Y-73882210D01*
X153728391Y-73880415D01*
X153701250Y-73873700D01*
X153628041Y-73868365D01*
X153521081Y-73865083D01*
X153434469Y-73864368D01*
X153294162Y-73864351D01*
X153206051Y-73857937D01*
X153164025Y-73835580D01*
X153161975Y-73787732D01*
X153193790Y-73704849D01*
X153252272Y-73579713D01*
X153300845Y-73487697D01*
X153342986Y-73440371D01*
X153388916Y-73426458D01*
X153391189Y-73426437D01*
X153470311Y-73449395D01*
X153513055Y-73517370D01*
X153519246Y-73621398D01*
X153518172Y-73696330D01*
X153539753Y-73735839D01*
X153591591Y-73760478D01*
X153657632Y-73774659D01*
X153695104Y-73754223D01*
X153700467Y-73746528D01*
X153722006Y-73674083D01*
X153725055Y-73572633D01*
X153710778Y-73468157D01*
X153684688Y-73394125D01*
X153597785Y-73291772D01*
X153476816Y-73233591D01*
X153382308Y-73222069D01*
X153297062Y-73230862D01*
X153227476Y-73262680D01*
X153165672Y-73325684D01*
X153103772Y-73428031D01*
X153033897Y-73577882D01*
X153029948Y-73587012D01*
X152967588Y-73721997D01*
X152916446Y-73805294D01*
X152870488Y-73840997D01*
X152823683Y-73833203D01*
X152769998Y-73786007D01*
X152757644Y-73771894D01*
X152709741Y-73677359D01*
X152711758Y-73579406D01*
X152758724Y-73494097D01*
X152845669Y-73437496D01*
X152862734Y-73432237D01*
X152945504Y-73381023D01*
X152985372Y-73316037D01*
X153024882Y-73222069D01*
X152922658Y-73222069D01*
X152774072Y-73250653D01*
X152637784Y-73335495D01*
X152592191Y-73379645D01*
X152533674Y-73480005D01*
X152507184Y-73607635D01*
X152514360Y-73739944D01*
X152514360Y-73739944D01*
G37*
X152514360Y-73739944D02*
X152556842Y-73854343D01*
X152557658Y-73855652D01*
X152609730Y-73926403D01*
X152670584Y-73978636D01*
X152749887Y-74015371D01*
X152857309Y-74039634D01*
X153002517Y-74054445D01*
X153195179Y-74062829D01*
X153222628Y-74063564D01*
X153636521Y-74074120D01*
X153682456Y-73985291D01*
X153713498Y-73921018D01*
X153728206Y-73882210D01*
X153728391Y-73880415D01*
X153701250Y-73873700D01*
X153628041Y-73868365D01*
X153521081Y-73865083D01*
X153434469Y-73864368D01*
X153294162Y-73864351D01*
X153206051Y-73857937D01*
X153164025Y-73835580D01*
X153161975Y-73787732D01*
X153193790Y-73704849D01*
X153252272Y-73579713D01*
X153300845Y-73487697D01*
X153342986Y-73440371D01*
X153388916Y-73426458D01*
X153391189Y-73426437D01*
X153470311Y-73449395D01*
X153513055Y-73517370D01*
X153519246Y-73621398D01*
X153518172Y-73696330D01*
X153539753Y-73735839D01*
X153591591Y-73760478D01*
X153657632Y-73774659D01*
X153695104Y-73754223D01*
X153700467Y-73746528D01*
X153722006Y-73674083D01*
X153725055Y-73572633D01*
X153710778Y-73468157D01*
X153684688Y-73394125D01*
X153597785Y-73291772D01*
X153476816Y-73233591D01*
X153382308Y-73222069D01*
X153297062Y-73230862D01*
X153227476Y-73262680D01*
X153165672Y-73325684D01*
X153103772Y-73428031D01*
X153033897Y-73577882D01*
X153029948Y-73587012D01*
X152967588Y-73721997D01*
X152916446Y-73805294D01*
X152870488Y-73840997D01*
X152823683Y-73833203D01*
X152769998Y-73786007D01*
X152757644Y-73771894D01*
X152709741Y-73677359D01*
X152711758Y-73579406D01*
X152758724Y-73494097D01*
X152845669Y-73437496D01*
X152862734Y-73432237D01*
X152945504Y-73381023D01*
X152985372Y-73316037D01*
X153024882Y-73222069D01*
X152922658Y-73222069D01*
X152774072Y-73250653D01*
X152637784Y-73335495D01*
X152592191Y-73379645D01*
X152533674Y-73480005D01*
X152507184Y-73607635D01*
X152514360Y-73739944D01*
G36*
X152511920Y-74725943D02*
X152560859Y-74858565D01*
X152647419Y-74966010D01*
X152708352Y-75008032D01*
X152820161Y-75053843D01*
X152901006Y-75052891D01*
X152955378Y-75004808D01*
X152964624Y-74987017D01*
X152993450Y-74910204D01*
X152986065Y-74870976D01*
X152937658Y-74857689D01*
X152910920Y-74857012D01*
X152812548Y-74832686D01*
X152743734Y-74769281D01*
X152710498Y-74681154D01*
X152718861Y-74582663D01*
X152762296Y-74502602D01*
X152787072Y-74475561D01*
X152817129Y-74456394D01*
X152862565Y-74443446D01*
X152933476Y-74435064D01*
X153039960Y-74429593D01*
X153192112Y-74425378D01*
X153240287Y-74424287D01*
X153405095Y-74420307D01*
X153521088Y-74415781D01*
X153597833Y-74408995D01*
X153644893Y-74398231D01*
X153671835Y-74381773D01*
X153688223Y-74357906D01*
X153695463Y-74342626D01*
X153720220Y-74277733D01*
X153728391Y-74239534D01*
X153701103Y-74226912D01*
X153618603Y-74219208D01*
X153479941Y-74216380D01*
X153284162Y-74218386D01*
X153253965Y-74219011D01*
X153075349Y-74223421D01*
X152944923Y-74228635D01*
X152852492Y-74236055D01*
X152787858Y-74247082D01*
X152740825Y-74263117D01*
X152701196Y-74285561D01*
X152684215Y-74297302D01*
X152609080Y-74364619D01*
X152550638Y-74439910D01*
X152545536Y-74449128D01*
X152505260Y-74584133D01*
X152511920Y-74725943D01*
X152511920Y-74725943D01*
G37*
X152511920Y-74725943D02*
X152560859Y-74858565D01*
X152647419Y-74966010D01*
X152708352Y-75008032D01*
X152820161Y-75053843D01*
X152901006Y-75052891D01*
X152955378Y-75004808D01*
X152964624Y-74987017D01*
X152993450Y-74910204D01*
X152986065Y-74870976D01*
X152937658Y-74857689D01*
X152910920Y-74857012D01*
X152812548Y-74832686D01*
X152743734Y-74769281D01*
X152710498Y-74681154D01*
X152718861Y-74582663D01*
X152762296Y-74502602D01*
X152787072Y-74475561D01*
X152817129Y-74456394D01*
X152862565Y-74443446D01*
X152933476Y-74435064D01*
X153039960Y-74429593D01*
X153192112Y-74425378D01*
X153240287Y-74424287D01*
X153405095Y-74420307D01*
X153521088Y-74415781D01*
X153597833Y-74408995D01*
X153644893Y-74398231D01*
X153671835Y-74381773D01*
X153688223Y-74357906D01*
X153695463Y-74342626D01*
X153720220Y-74277733D01*
X153728391Y-74239534D01*
X153701103Y-74226912D01*
X153618603Y-74219208D01*
X153479941Y-74216380D01*
X153284162Y-74218386D01*
X153253965Y-74219011D01*
X153075349Y-74223421D01*
X152944923Y-74228635D01*
X152852492Y-74236055D01*
X152787858Y-74247082D01*
X152740825Y-74263117D01*
X152701196Y-74285561D01*
X152684215Y-74297302D01*
X152609080Y-74364619D01*
X152550638Y-74439910D01*
X152545536Y-74449128D01*
X152505260Y-74584133D01*
X152511920Y-74725943D01*
G36*
X152744455Y-76053914D02*
X152962661Y-76053543D01*
X153130519Y-76052108D01*
X153256070Y-76049002D01*
X153347355Y-76043622D01*
X153412415Y-76035362D01*
X153459291Y-76023616D01*
X153496024Y-76007781D01*
X153516991Y-75995790D01*
X153630694Y-75896490D01*
X153701965Y-75770588D01*
X153727538Y-75631291D01*
X153704150Y-75491805D01*
X153662119Y-75408743D01*
X153589411Y-75321545D01*
X153500612Y-75262117D01*
X153384320Y-75226261D01*
X153229135Y-75209781D01*
X153115287Y-75207447D01*
X153107106Y-75207761D01*
X153107106Y-75411724D01*
X153237657Y-75412970D01*
X153324080Y-75418678D01*
X153380618Y-75431804D01*
X153421514Y-75455306D01*
X153452362Y-75483386D01*
X153511905Y-75577688D01*
X153516992Y-75678940D01*
X153467279Y-75774636D01*
X153460543Y-75782084D01*
X153425502Y-75813874D01*
X153383811Y-75833808D01*
X153321762Y-75844600D01*
X153225644Y-75848965D01*
X153119379Y-75849655D01*
X152985880Y-75848159D01*
X152896822Y-75841964D01*
X152838293Y-75828514D01*
X152796382Y-75805251D01*
X152774123Y-75786175D01*
X152717985Y-75697563D01*
X152711235Y-75595508D01*
X152754114Y-75498095D01*
X152770032Y-75479296D01*
X152805382Y-75447293D01*
X152847502Y-75427318D01*
X152910251Y-75416593D01*
X153007487Y-75412339D01*
X153107106Y-75411724D01*
X153107106Y-75207761D01*
X152931947Y-75214504D01*
X152794195Y-75238472D01*
X152690632Y-75283548D01*
X152609856Y-75353928D01*
X152568455Y-75408743D01*
X152523728Y-75508376D01*
X152502967Y-75623855D01*
X152508525Y-75731199D01*
X152530943Y-75791264D01*
X152537323Y-75814835D01*
X152513535Y-75830477D01*
X152449788Y-75841395D01*
X152352687Y-75849655D01*
X152244541Y-75858699D01*
X152179475Y-75871261D01*
X152142268Y-75894119D01*
X152117699Y-75934051D01*
X152106819Y-75959138D01*
X152067072Y-76054023D01*
X152744455Y-76053914D01*
X152744455Y-76053914D01*
G37*
X152744455Y-76053914D02*
X152962661Y-76053543D01*
X153130519Y-76052108D01*
X153256070Y-76049002D01*
X153347355Y-76043622D01*
X153412415Y-76035362D01*
X153459291Y-76023616D01*
X153496024Y-76007781D01*
X153516991Y-75995790D01*
X153630694Y-75896490D01*
X153701965Y-75770588D01*
X153727538Y-75631291D01*
X153704150Y-75491805D01*
X153662119Y-75408743D01*
X153589411Y-75321545D01*
X153500612Y-75262117D01*
X153384320Y-75226261D01*
X153229135Y-75209781D01*
X153115287Y-75207447D01*
X153107106Y-75207761D01*
X153107106Y-75411724D01*
X153237657Y-75412970D01*
X153324080Y-75418678D01*
X153380618Y-75431804D01*
X153421514Y-75455306D01*
X153452362Y-75483386D01*
X153511905Y-75577688D01*
X153516992Y-75678940D01*
X153467279Y-75774636D01*
X153460543Y-75782084D01*
X153425502Y-75813874D01*
X153383811Y-75833808D01*
X153321762Y-75844600D01*
X153225644Y-75848965D01*
X153119379Y-75849655D01*
X152985880Y-75848159D01*
X152896822Y-75841964D01*
X152838293Y-75828514D01*
X152796382Y-75805251D01*
X152774123Y-75786175D01*
X152717985Y-75697563D01*
X152711235Y-75595508D01*
X152754114Y-75498095D01*
X152770032Y-75479296D01*
X152805382Y-75447293D01*
X152847502Y-75427318D01*
X152910251Y-75416593D01*
X153007487Y-75412339D01*
X153107106Y-75411724D01*
X153107106Y-75207761D01*
X152931947Y-75214504D01*
X152794195Y-75238472D01*
X152690632Y-75283548D01*
X152609856Y-75353928D01*
X152568455Y-75408743D01*
X152523728Y-75508376D01*
X152502967Y-75623855D01*
X152508525Y-75731199D01*
X152530943Y-75791264D01*
X152537323Y-75814835D01*
X152513535Y-75830477D01*
X152449788Y-75841395D01*
X152352687Y-75849655D01*
X152244541Y-75858699D01*
X152179475Y-75871261D01*
X152142268Y-75894119D01*
X152117699Y-75934051D01*
X152106819Y-75959138D01*
X152067072Y-76054023D01*
X152744455Y-76053914D01*
G36*
X152529840Y-77240124D02*
X152606653Y-77244579D01*
X152723391Y-77248071D01*
X152870821Y-77250315D01*
X153025455Y-77251035D01*
X153548727Y-77251035D01*
X153641117Y-77158645D01*
X153698047Y-77094978D01*
X153721107Y-77039089D01*
X153719647Y-76962702D01*
X153715934Y-76932380D01*
X153705126Y-76837610D01*
X153698933Y-76759222D01*
X153698361Y-76740115D01*
X153702102Y-76675699D01*
X153711494Y-76583571D01*
X153715934Y-76547850D01*
X153722801Y-76460114D01*
X153707885Y-76401153D01*
X153661835Y-76342690D01*
X153641117Y-76321585D01*
X153548727Y-76229195D01*
X152569947Y-76229195D01*
X152536066Y-76303558D01*
X152510970Y-76367590D01*
X152502184Y-76405052D01*
X152529950Y-76414657D01*
X152607530Y-76423635D01*
X152726348Y-76431386D01*
X152877828Y-76437314D01*
X153005805Y-76440173D01*
X153509425Y-76448161D01*
X153519278Y-76517848D01*
X153512389Y-76581229D01*
X153490083Y-76612286D01*
X153448379Y-76620967D01*
X153359544Y-76628378D01*
X153234834Y-76633931D01*
X153085507Y-76637036D01*
X153008661Y-76637484D01*
X152566287Y-76637931D01*
X152534235Y-76729874D01*
X152512443Y-76794949D01*
X152502281Y-76830347D01*
X152502184Y-76831368D01*
X152529809Y-76834920D01*
X152606411Y-76838823D01*
X152722579Y-76842751D01*
X152868904Y-76846376D01*
X153005805Y-76848908D01*
X153509425Y-76856897D01*
X153509425Y-77032069D01*
X153049965Y-77040107D01*
X152590505Y-77048146D01*
X152546344Y-77133543D01*
X152516019Y-77196593D01*
X152502258Y-77233910D01*
X152502184Y-77234987D01*
X152529840Y-77240124D01*
X152529840Y-77240124D01*
G37*
X152529840Y-77240124D02*
X152606653Y-77244579D01*
X152723391Y-77248071D01*
X152870821Y-77250315D01*
X153025455Y-77251035D01*
X153548727Y-77251035D01*
X153641117Y-77158645D01*
X153698047Y-77094978D01*
X153721107Y-77039089D01*
X153719647Y-76962702D01*
X153715934Y-76932380D01*
X153705126Y-76837610D01*
X153698933Y-76759222D01*
X153698361Y-76740115D01*
X153702102Y-76675699D01*
X153711494Y-76583571D01*
X153715934Y-76547850D01*
X153722801Y-76460114D01*
X153707885Y-76401153D01*
X153661835Y-76342690D01*
X153641117Y-76321585D01*
X153548727Y-76229195D01*
X152569947Y-76229195D01*
X152536066Y-76303558D01*
X152510970Y-76367590D01*
X152502184Y-76405052D01*
X152529950Y-76414657D01*
X152607530Y-76423635D01*
X152726348Y-76431386D01*
X152877828Y-76437314D01*
X153005805Y-76440173D01*
X153509425Y-76448161D01*
X153519278Y-76517848D01*
X153512389Y-76581229D01*
X153490083Y-76612286D01*
X153448379Y-76620967D01*
X153359544Y-76628378D01*
X153234834Y-76633931D01*
X153085507Y-76637036D01*
X153008661Y-76637484D01*
X152566287Y-76637931D01*
X152534235Y-76729874D01*
X152512443Y-76794949D01*
X152502281Y-76830347D01*
X152502184Y-76831368D01*
X152529809Y-76834920D01*
X152606411Y-76838823D01*
X152722579Y-76842751D01*
X152868904Y-76846376D01*
X153005805Y-76848908D01*
X153509425Y-76856897D01*
X153509425Y-77032069D01*
X153049965Y-77040107D01*
X152590505Y-77048146D01*
X152546344Y-77133543D01*
X152516019Y-77196593D01*
X152502258Y-77233910D01*
X152502184Y-77234987D01*
X152529840Y-77240124D01*
G36*
X152525156Y-77974406D02*
X152563393Y-78058469D01*
X152609726Y-78124450D01*
X152661532Y-78172794D01*
X152728363Y-78206172D01*
X152819769Y-78227253D01*
X152945301Y-78238707D01*
X153114508Y-78243203D01*
X153225933Y-78243678D01*
X153660627Y-78243678D01*
X153694509Y-78169316D01*
X153719272Y-78110746D01*
X153728391Y-78081730D01*
X153701257Y-78076179D01*
X153628094Y-78071775D01*
X153521263Y-78069078D01*
X153436437Y-78068506D01*
X153313887Y-78066046D01*
X153216668Y-78059412D01*
X153157134Y-78049726D01*
X153144483Y-78042032D01*
X153157402Y-77990311D01*
X153190539Y-77909117D01*
X153235461Y-77815102D01*
X153283735Y-77724917D01*
X153326928Y-77655215D01*
X153356608Y-77622648D01*
X153356929Y-77622519D01*
X153411857Y-77625320D01*
X153464292Y-77650439D01*
X153506881Y-77694541D01*
X153521126Y-77758909D01*
X153519466Y-77813921D01*
X153518245Y-77891835D01*
X153536498Y-77932732D01*
X153584726Y-77957295D01*
X153593820Y-77960392D01*
X153662598Y-77971040D01*
X153704360Y-77942565D01*
X153724263Y-77868344D01*
X153727944Y-77788168D01*
X153700658Y-77643890D01*
X153661690Y-77569203D01*
X153570148Y-77476963D01*
X153457782Y-77428043D01*
X153339051Y-77423654D01*
X153228411Y-77465001D01*
X153159080Y-77527197D01*
X153120265Y-77589294D01*
X153071125Y-77686895D01*
X153021292Y-77800632D01*
X153013677Y-77819590D01*
X152958545Y-77944521D01*
X152909954Y-78016539D01*
X152861647Y-78039700D01*
X152807370Y-78018064D01*
X152764943Y-77980920D01*
X152712702Y-77893127D01*
X152708784Y-77796530D01*
X152749041Y-77707944D01*
X152829326Y-77644186D01*
X152850040Y-77635817D01*
X152926225Y-77587096D01*
X152982785Y-77515965D01*
X153029201Y-77426207D01*
X152897584Y-77426207D01*
X152817168Y-77431490D01*
X152753786Y-77454142D01*
X152686163Y-77504367D01*
X152634076Y-77552582D01*
X152560322Y-77627554D01*
X152520702Y-77685806D01*
X152504810Y-77748372D01*
X152502184Y-77819193D01*
X152525156Y-77974406D01*
X152525156Y-77974406D01*
G37*
X152525156Y-77974406D02*
X152563393Y-78058469D01*
X152609726Y-78124450D01*
X152661532Y-78172794D01*
X152728363Y-78206172D01*
X152819769Y-78227253D01*
X152945301Y-78238707D01*
X153114508Y-78243203D01*
X153225933Y-78243678D01*
X153660627Y-78243678D01*
X153694509Y-78169316D01*
X153719272Y-78110746D01*
X153728391Y-78081730D01*
X153701257Y-78076179D01*
X153628094Y-78071775D01*
X153521263Y-78069078D01*
X153436437Y-78068506D01*
X153313887Y-78066046D01*
X153216668Y-78059412D01*
X153157134Y-78049726D01*
X153144483Y-78042032D01*
X153157402Y-77990311D01*
X153190539Y-77909117D01*
X153235461Y-77815102D01*
X153283735Y-77724917D01*
X153326928Y-77655215D01*
X153356608Y-77622648D01*
X153356929Y-77622519D01*
X153411857Y-77625320D01*
X153464292Y-77650439D01*
X153506881Y-77694541D01*
X153521126Y-77758909D01*
X153519466Y-77813921D01*
X153518245Y-77891835D01*
X153536498Y-77932732D01*
X153584726Y-77957295D01*
X153593820Y-77960392D01*
X153662598Y-77971040D01*
X153704360Y-77942565D01*
X153724263Y-77868344D01*
X153727944Y-77788168D01*
X153700658Y-77643890D01*
X153661690Y-77569203D01*
X153570148Y-77476963D01*
X153457782Y-77428043D01*
X153339051Y-77423654D01*
X153228411Y-77465001D01*
X153159080Y-77527197D01*
X153120265Y-77589294D01*
X153071125Y-77686895D01*
X153021292Y-77800632D01*
X153013677Y-77819590D01*
X152958545Y-77944521D01*
X152909954Y-78016539D01*
X152861647Y-78039700D01*
X152807370Y-78018064D01*
X152764943Y-77980920D01*
X152712702Y-77893127D01*
X152708784Y-77796530D01*
X152749041Y-77707944D01*
X152829326Y-77644186D01*
X152850040Y-77635817D01*
X152926225Y-77587096D01*
X152982785Y-77515965D01*
X153029201Y-77426207D01*
X152897584Y-77426207D01*
X152817168Y-77431490D01*
X152753786Y-77454142D01*
X152686163Y-77504367D01*
X152634076Y-77552582D01*
X152560322Y-77627554D01*
X152520702Y-77685806D01*
X152504810Y-77748372D01*
X152502184Y-77819193D01*
X152525156Y-77974406D01*
G36*
X152530018Y-78995690D02*
X152545269Y-79030585D01*
X152611235Y-79113877D01*
X152706618Y-79185103D01*
X152808406Y-79229153D01*
X152858587Y-79236322D01*
X152928647Y-79212285D01*
X152965717Y-79159561D01*
X152988164Y-79103031D01*
X152992300Y-79077146D01*
X152962283Y-79064542D01*
X152896961Y-79039654D01*
X152867445Y-79028735D01*
X152765348Y-78967508D01*
X152714423Y-78878861D01*
X152715989Y-78765193D01*
X152717994Y-78756774D01*
X152746767Y-78696088D01*
X152802859Y-78651474D01*
X152893163Y-78621002D01*
X153024571Y-78602744D01*
X153203974Y-78594771D01*
X153299433Y-78594023D01*
X153449913Y-78593652D01*
X153552495Y-78591223D01*
X153617672Y-78584760D01*
X153655938Y-78572288D01*
X153677785Y-78551833D01*
X153693707Y-78521419D01*
X153694509Y-78519661D01*
X153719272Y-78461091D01*
X153728391Y-78432075D01*
X153700822Y-78427616D01*
X153624620Y-78423799D01*
X153509541Y-78420899D01*
X153365341Y-78419191D01*
X153259814Y-78418851D01*
X153055613Y-78420588D01*
X152900697Y-78427382D01*
X152786024Y-78441607D01*
X152702551Y-78465638D01*
X152641236Y-78501848D01*
X152593034Y-78552612D01*
X152559393Y-78602739D01*
X152514619Y-78723275D01*
X152504521Y-78863557D01*
X152530018Y-78995690D01*
X152530018Y-78995690D01*
G37*
X152530018Y-78995690D02*
X152545269Y-79030585D01*
X152611235Y-79113877D01*
X152706618Y-79185103D01*
X152808406Y-79229153D01*
X152858587Y-79236322D01*
X152928647Y-79212285D01*
X152965717Y-79159561D01*
X152988164Y-79103031D01*
X152992300Y-79077146D01*
X152962283Y-79064542D01*
X152896961Y-79039654D01*
X152867445Y-79028735D01*
X152765348Y-78967508D01*
X152714423Y-78878861D01*
X152715989Y-78765193D01*
X152717994Y-78756774D01*
X152746767Y-78696088D01*
X152802859Y-78651474D01*
X152893163Y-78621002D01*
X153024571Y-78602744D01*
X153203974Y-78594771D01*
X153299433Y-78594023D01*
X153449913Y-78593652D01*
X153552495Y-78591223D01*
X153617672Y-78584760D01*
X153655938Y-78572288D01*
X153677785Y-78551833D01*
X153693707Y-78521419D01*
X153694509Y-78519661D01*
X153719272Y-78461091D01*
X153728391Y-78432075D01*
X153700822Y-78427616D01*
X153624620Y-78423799D01*
X153509541Y-78420899D01*
X153365341Y-78419191D01*
X153259814Y-78418851D01*
X153055613Y-78420588D01*
X152900697Y-78427382D01*
X152786024Y-78441607D01*
X152702551Y-78465638D01*
X152641236Y-78501848D01*
X152593034Y-78552612D01*
X152559393Y-78602739D01*
X152514619Y-78723275D01*
X152504521Y-78863557D01*
X152530018Y-78995690D01*
G36*
X152546540Y-80003439D02*
X152622034Y-80118950D01*
X152689617Y-80174664D01*
X152812255Y-80218804D01*
X152909298Y-80222309D01*
X153039056Y-80214368D01*
X153170039Y-79915115D01*
X153236958Y-79769611D01*
X153290790Y-79674537D01*
X153337416Y-79625101D01*
X153382720Y-79616511D01*
X153432582Y-79643972D01*
X153465632Y-79674253D01*
X153518633Y-79762363D01*
X153522347Y-79858196D01*
X153481041Y-79946212D01*
X153398983Y-80010869D01*
X153370008Y-80022433D01*
X153279509Y-80077825D01*
X153240940Y-80141553D01*
X153207946Y-80228966D01*
X153333034Y-80228966D01*
X153418156Y-80221238D01*
X153489938Y-80190966D01*
X153572356Y-80127518D01*
X153583066Y-80118088D01*
X153656391Y-80047513D01*
X153695742Y-79986847D01*
X153713845Y-79910950D01*
X153719774Y-79848030D01*
X153721251Y-79735487D01*
X153702535Y-79655370D01*
X153674747Y-79605390D01*
X153613641Y-79526838D01*
X153547554Y-79472463D01*
X153464441Y-79438052D01*
X153352254Y-79419388D01*
X153198946Y-79412256D01*
X153121136Y-79411687D01*
X153027853Y-79413622D01*
X153027853Y-79589899D01*
X153077896Y-79591944D01*
X153086092Y-79597039D01*
X153074958Y-79630666D01*
X153045493Y-79703030D01*
X153003601Y-79799747D01*
X152994597Y-79819973D01*
X152932442Y-79942203D01*
X152877815Y-80009547D01*
X152826649Y-80024348D01*
X152774876Y-79988947D01*
X152752000Y-79959711D01*
X152706250Y-79854216D01*
X152713808Y-79755476D01*
X152769651Y-79672812D01*
X152868753Y-79615548D01*
X152947414Y-79597188D01*
X153027853Y-79589899D01*
X153027853Y-79413622D01*
X152939351Y-79415459D01*
X152804853Y-79429359D01*
X152706916Y-79456894D01*
X152634811Y-79501572D01*
X152577813Y-79566901D01*
X152559393Y-79595383D01*
X152511422Y-79724763D01*
X152508403Y-79866412D01*
X152546540Y-80003439D01*
X152546540Y-80003439D01*
G37*
X152546540Y-80003439D02*
X152622034Y-80118950D01*
X152689617Y-80174664D01*
X152812255Y-80218804D01*
X152909298Y-80222309D01*
X153039056Y-80214368D01*
X153170039Y-79915115D01*
X153236958Y-79769611D01*
X153290790Y-79674537D01*
X153337416Y-79625101D01*
X153382720Y-79616511D01*
X153432582Y-79643972D01*
X153465632Y-79674253D01*
X153518633Y-79762363D01*
X153522347Y-79858196D01*
X153481041Y-79946212D01*
X153398983Y-80010869D01*
X153370008Y-80022433D01*
X153279509Y-80077825D01*
X153240940Y-80141553D01*
X153207946Y-80228966D01*
X153333034Y-80228966D01*
X153418156Y-80221238D01*
X153489938Y-80190966D01*
X153572356Y-80127518D01*
X153583066Y-80118088D01*
X153656391Y-80047513D01*
X153695742Y-79986847D01*
X153713845Y-79910950D01*
X153719774Y-79848030D01*
X153721251Y-79735487D01*
X153702535Y-79655370D01*
X153674747Y-79605390D01*
X153613641Y-79526838D01*
X153547554Y-79472463D01*
X153464441Y-79438052D01*
X153352254Y-79419388D01*
X153198946Y-79412256D01*
X153121136Y-79411687D01*
X153027853Y-79413622D01*
X153027853Y-79589899D01*
X153077896Y-79591944D01*
X153086092Y-79597039D01*
X153074958Y-79630666D01*
X153045493Y-79703030D01*
X153003601Y-79799747D01*
X152994597Y-79819973D01*
X152932442Y-79942203D01*
X152877815Y-80009547D01*
X152826649Y-80024348D01*
X152774876Y-79988947D01*
X152752000Y-79959711D01*
X152706250Y-79854216D01*
X152713808Y-79755476D01*
X152769651Y-79672812D01*
X152868753Y-79615548D01*
X152947414Y-79597188D01*
X153027853Y-79589899D01*
X153027853Y-79413622D01*
X152939351Y-79415459D01*
X152804853Y-79429359D01*
X152706916Y-79456894D01*
X152634811Y-79501572D01*
X152577813Y-79566901D01*
X152559393Y-79595383D01*
X152511422Y-79724763D01*
X152508403Y-79866412D01*
X152546540Y-80003439D01*
G36*
X143042998Y-73869014D02*
X143043863Y-74027006D01*
X143046205Y-74141347D01*
X143050762Y-74219407D01*
X143058270Y-74268554D01*
X143069466Y-74296159D01*
X143085088Y-74309592D01*
X143105873Y-74316221D01*
X143108563Y-74316865D01*
X143157113Y-74326935D01*
X143252905Y-74345575D01*
X143385743Y-74370845D01*
X143545431Y-74400807D01*
X143721774Y-74433522D01*
X143727967Y-74434664D01*
X143900782Y-74467433D01*
X144053469Y-74498093D01*
X144176871Y-74524664D01*
X144261831Y-74545167D01*
X144299190Y-74557626D01*
X144299852Y-74558220D01*
X144318095Y-74594919D01*
X144348497Y-74670586D01*
X144384493Y-74768878D01*
X144384685Y-74769425D01*
X144431222Y-74893233D01*
X144490504Y-75039196D01*
X144550109Y-75176781D01*
X144553056Y-75183293D01*
X144654765Y-75407390D01*
X144315897Y-75903619D01*
X144212592Y-76055846D01*
X144120237Y-76193741D01*
X144044084Y-76309315D01*
X143989385Y-76394579D01*
X143961393Y-76441544D01*
X143959317Y-76446004D01*
X143968560Y-76480134D01*
X144013156Y-76543881D01*
X144095209Y-76639731D01*
X144216821Y-76770169D01*
X144346205Y-76903328D01*
X144473702Y-77031694D01*
X144590046Y-77146581D01*
X144688052Y-77241073D01*
X144760536Y-77308253D01*
X144800313Y-77341206D01*
X144802361Y-77342432D01*
X144829656Y-77346074D01*
X144874234Y-77332350D01*
X144942112Y-77297869D01*
X145039311Y-77239239D01*
X145171851Y-77153070D01*
X145342476Y-77038200D01*
X145492655Y-76936254D01*
X145627350Y-76845123D01*
X145738740Y-76770073D01*
X145819005Y-76716369D01*
X145860325Y-76689280D01*
X145863130Y-76687574D01*
X145902721Y-76690882D01*
X145979669Y-76715953D01*
X146079432Y-76757798D01*
X146111291Y-76772712D01*
X146253226Y-76837786D01*
X146414273Y-76907212D01*
X146553621Y-76963609D01*
X146657044Y-77004247D01*
X146735642Y-77036526D01*
X146776720Y-77055178D01*
X146779885Y-77057497D01*
X146785128Y-77091803D01*
X146799494Y-77172669D01*
X146820937Y-77289343D01*
X146847413Y-77431075D01*
X146876877Y-77587110D01*
X146907283Y-77746698D01*
X146936588Y-77899085D01*
X146962745Y-78033521D01*
X146983710Y-78139252D01*
X146997439Y-78205526D01*
X147001320Y-78221782D01*
X147010900Y-78238573D01*
X147032536Y-78251249D01*
X147073531Y-78260378D01*
X147141189Y-78266531D01*
X147242812Y-78270280D01*
X147385703Y-78272192D01*
X147577165Y-78272840D01*
X147655645Y-78272874D01*
X148293906Y-78272874D01*
X148324160Y-78119598D01*
X148340564Y-78034322D01*
X148364509Y-77907070D01*
X148393107Y-77753315D01*
X148423467Y-77588534D01*
X148431806Y-77542989D01*
X148461370Y-77390932D01*
X148490442Y-77258468D01*
X148516329Y-77156714D01*
X148536337Y-77096788D01*
X148542301Y-77086805D01*
X148584534Y-77062293D01*
X148666370Y-77027148D01*
X148771683Y-76988173D01*
X148794368Y-76980442D01*
X148935018Y-76929360D01*
X149093714Y-76865954D01*
X149236225Y-76803904D01*
X149236886Y-76803598D01*
X149460440Y-76700267D01*
X150460232Y-77379961D01*
X150897300Y-76943621D01*
X151027381Y-76811649D01*
X151142048Y-76691279D01*
X151235181Y-76589273D01*
X151300658Y-76512391D01*
X151332357Y-76467393D01*
X151334368Y-76460938D01*
X151318529Y-76423040D01*
X151274496Y-76345708D01*
X151207490Y-76237389D01*
X151122734Y-76106532D01*
X151027816Y-75965052D01*
X150930998Y-75821461D01*
X150846751Y-75693435D01*
X150780258Y-75589105D01*
X150736702Y-75516600D01*
X150721264Y-75484158D01*
X150734328Y-75444576D01*
X150768750Y-75369519D01*
X150817380Y-75274468D01*
X150822785Y-75264392D01*
X150886980Y-75136391D01*
X150918463Y-75048618D01*
X150918798Y-74994028D01*
X150889548Y-74965575D01*
X150889138Y-74965410D01*
X150854498Y-74951188D01*
X150772269Y-74917269D01*
X150648814Y-74866284D01*
X150490498Y-74800862D01*
X150303686Y-74723634D01*
X150094742Y-74637229D01*
X149892446Y-74553551D01*
X149669200Y-74461588D01*
X149462392Y-74377150D01*
X149278362Y-74302769D01*
X149123451Y-74240974D01*
X149003996Y-74194297D01*
X148926339Y-74165268D01*
X148897356Y-74156322D01*
X148864110Y-74178756D01*
X148811123Y-74237439D01*
X148752704Y-74315689D01*
X148567952Y-74538534D01*
X148356182Y-74712718D01*
X148121856Y-74836154D01*
X147869434Y-74906754D01*
X147603377Y-74922431D01*
X147480575Y-74911036D01*
X147225793Y-74848950D01*
X147000801Y-74742023D01*
X146807817Y-74596889D01*
X146649061Y-74420178D01*
X146526750Y-74218522D01*
X146443105Y-73998554D01*
X146400344Y-73766906D01*
X146400687Y-73530209D01*
X146446352Y-73295095D01*
X146539559Y-73068196D01*
X146682527Y-72856144D01*
X146763383Y-72767636D01*
X146971007Y-72597889D01*
X147197895Y-72479699D01*
X147437433Y-72412278D01*
X147683007Y-72394840D01*
X147928003Y-72426598D01*
X148165808Y-72506765D01*
X148389807Y-72634555D01*
X148593387Y-72809180D01*
X148752704Y-73004312D01*
X148813602Y-73085591D01*
X148866015Y-73143009D01*
X148897406Y-73163678D01*
X148931639Y-73152856D01*
X149013419Y-73122077D01*
X149136407Y-73073874D01*
X149294263Y-73010778D01*
X149480649Y-72935322D01*
X149689226Y-72850038D01*
X149892496Y-72766219D01*
X150115933Y-72673745D01*
X150322984Y-72588089D01*
X150507286Y-72511882D01*
X150662475Y-72447753D01*
X150782188Y-72398332D01*
X150860061Y-72366248D01*
X150889138Y-72354359D01*
X150918677Y-72326274D01*
X150918591Y-72271949D01*
X150887326Y-72184395D01*
X150823329Y-72056619D01*
X150822785Y-72055608D01*
X150773121Y-71959402D01*
X150736945Y-71881631D01*
X150721408Y-71837777D01*
X150721264Y-71835842D01*
X150737024Y-71802829D01*
X150780850Y-71729946D01*
X150847557Y-71625322D01*
X150931964Y-71497090D01*
X151027816Y-71354948D01*
X151124867Y-71210233D01*
X151209270Y-71079804D01*
X151275801Y-70972110D01*
X151319238Y-70895598D01*
X151334368Y-70859062D01*
X151314482Y-70825418D01*
X151258903Y-70757776D01*
X151173754Y-70662893D01*
X151065153Y-70547530D01*
X150939221Y-70418445D01*
X150897149Y-70376229D01*
X150459931Y-69939739D01*
X149972340Y-70271977D01*
X149822605Y-70372946D01*
X149688220Y-70461562D01*
X149576969Y-70532854D01*
X149496639Y-70581850D01*
X149455014Y-70603578D01*
X149452053Y-70604215D01*
X149412818Y-70592760D01*
X149333895Y-70561949D01*
X149228509Y-70517116D01*
X149157954Y-70485647D01*
X149022876Y-70426808D01*
X148886409Y-70371396D01*
X148771103Y-70328436D01*
X148735977Y-70316766D01*
X148642174Y-70283611D01*
X148569694Y-70251201D01*
X148542301Y-70233399D01*
X148525536Y-70194114D01*
X148501770Y-70108374D01*
X148473697Y-69987303D01*
X148444009Y-69842027D01*
X148431806Y-69777012D01*
X148401468Y-69611913D01*
X148372093Y-69453552D01*
X148346569Y-69317404D01*
X148327785Y-69218943D01*
X148324160Y-69200402D01*
X148293906Y-69047127D01*
X147655645Y-69047127D01*
X147445770Y-69047471D01*
X147286980Y-69048884D01*
X147171973Y-69051936D01*
X147093446Y-69057197D01*
X147044096Y-69065237D01*
X147016619Y-69076627D01*
X147003713Y-69091937D01*
X147001320Y-69098218D01*
X146992833Y-69136104D01*
X146975900Y-69219805D01*
X146952566Y-69338567D01*
X146924875Y-69481639D01*
X146894873Y-69638268D01*
X146864604Y-69797703D01*
X146836115Y-69949191D01*
X146811449Y-70081981D01*
X146792651Y-70185319D01*
X146781767Y-70248455D01*
X146779885Y-70262503D01*
X146754704Y-70275230D01*
X146687622Y-70303400D01*
X146591333Y-70341748D01*
X146553621Y-70356391D01*
X146407921Y-70415452D01*
X146246951Y-70485000D01*
X146111291Y-70547288D01*
X146007561Y-70593121D01*
X145922326Y-70623613D01*
X145870126Y-70633792D01*
X145863130Y-70632169D01*
X145830102Y-70610657D01*
X145756643Y-70561535D01*
X145650577Y-70490077D01*
X145519726Y-70401555D01*
X145371912Y-70301241D01*
X145342734Y-70281406D01*
X145169863Y-70165012D01*
X145038226Y-70079452D01*
X144941761Y-70021316D01*
X144874408Y-69987192D01*
X144830106Y-69973669D01*
X144802794Y-69977336D01*
X144802620Y-69977430D01*
X144766746Y-70006293D01*
X144697391Y-70070133D01*
X144601745Y-70162031D01*
X144486999Y-70275067D01*
X144360341Y-70402321D01*
X144346205Y-70416672D01*
X144190903Y-70577043D01*
X144076870Y-70700805D01*
X144002002Y-70790445D01*
X143964196Y-70848448D01*
X143959317Y-70873996D01*
X143980603Y-70911282D01*
X144029773Y-70988657D01*
X144101575Y-71098133D01*
X144190755Y-71231720D01*
X144292063Y-71381430D01*
X144315897Y-71416382D01*
X144654765Y-71912610D01*
X144553056Y-72136707D01*
X144493783Y-72272989D01*
X144434170Y-72419276D01*
X144386640Y-72545035D01*
X144384685Y-72550575D01*
X144348677Y-72648943D01*
X144318229Y-72724771D01*
X144299905Y-72761718D01*
X144299852Y-72761780D01*
X144266729Y-72773504D01*
X144185267Y-72793432D01*
X144064625Y-72819587D01*
X143913959Y-72849990D01*
X143742428Y-72882663D01*
X143727967Y-72885336D01*
X143551235Y-72918110D01*
X143390810Y-72948198D01*
X143256888Y-72973661D01*
X143159663Y-72992559D01*
X143109332Y-73002953D01*
X143108563Y-73003135D01*
X143087153Y-73009461D01*
X143070988Y-73021761D01*
X143059331Y-73047406D01*
X143051445Y-73093765D01*
X143046593Y-73168208D01*
X143044039Y-73278105D01*
X143043045Y-73430825D01*
X143042874Y-73633738D01*
X143042874Y-73660000D01*
X143042998Y-73869014D01*
X143042998Y-73869014D01*
G37*
X143042998Y-73869014D02*
X143043863Y-74027006D01*
X143046205Y-74141347D01*
X143050762Y-74219407D01*
X143058270Y-74268554D01*
X143069466Y-74296159D01*
X143085088Y-74309592D01*
X143105873Y-74316221D01*
X143108563Y-74316865D01*
X143157113Y-74326935D01*
X143252905Y-74345575D01*
X143385743Y-74370845D01*
X143545431Y-74400807D01*
X143721774Y-74433522D01*
X143727967Y-74434664D01*
X143900782Y-74467433D01*
X144053469Y-74498093D01*
X144176871Y-74524664D01*
X144261831Y-74545167D01*
X144299190Y-74557626D01*
X144299852Y-74558220D01*
X144318095Y-74594919D01*
X144348497Y-74670586D01*
X144384493Y-74768878D01*
X144384685Y-74769425D01*
X144431222Y-74893233D01*
X144490504Y-75039196D01*
X144550109Y-75176781D01*
X144553056Y-75183293D01*
X144654765Y-75407390D01*
X144315897Y-75903619D01*
X144212592Y-76055846D01*
X144120237Y-76193741D01*
X144044084Y-76309315D01*
X143989385Y-76394579D01*
X143961393Y-76441544D01*
X143959317Y-76446004D01*
X143968560Y-76480134D01*
X144013156Y-76543881D01*
X144095209Y-76639731D01*
X144216821Y-76770169D01*
X144346205Y-76903328D01*
X144473702Y-77031694D01*
X144590046Y-77146581D01*
X144688052Y-77241073D01*
X144760536Y-77308253D01*
X144800313Y-77341206D01*
X144802361Y-77342432D01*
X144829656Y-77346074D01*
X144874234Y-77332350D01*
X144942112Y-77297869D01*
X145039311Y-77239239D01*
X145171851Y-77153070D01*
X145342476Y-77038200D01*
X145492655Y-76936254D01*
X145627350Y-76845123D01*
X145738740Y-76770073D01*
X145819005Y-76716369D01*
X145860325Y-76689280D01*
X145863130Y-76687574D01*
X145902721Y-76690882D01*
X145979669Y-76715953D01*
X146079432Y-76757798D01*
X146111291Y-76772712D01*
X146253226Y-76837786D01*
X146414273Y-76907212D01*
X146553621Y-76963609D01*
X146657044Y-77004247D01*
X146735642Y-77036526D01*
X146776720Y-77055178D01*
X146779885Y-77057497D01*
X146785128Y-77091803D01*
X146799494Y-77172669D01*
X146820937Y-77289343D01*
X146847413Y-77431075D01*
X146876877Y-77587110D01*
X146907283Y-77746698D01*
X146936588Y-77899085D01*
X146962745Y-78033521D01*
X146983710Y-78139252D01*
X146997439Y-78205526D01*
X147001320Y-78221782D01*
X147010900Y-78238573D01*
X147032536Y-78251249D01*
X147073531Y-78260378D01*
X147141189Y-78266531D01*
X147242812Y-78270280D01*
X147385703Y-78272192D01*
X147577165Y-78272840D01*
X147655645Y-78272874D01*
X148293906Y-78272874D01*
X148324160Y-78119598D01*
X148340564Y-78034322D01*
X148364509Y-77907070D01*
X148393107Y-77753315D01*
X148423467Y-77588534D01*
X148431806Y-77542989D01*
X148461370Y-77390932D01*
X148490442Y-77258468D01*
X148516329Y-77156714D01*
X148536337Y-77096788D01*
X148542301Y-77086805D01*
X148584534Y-77062293D01*
X148666370Y-77027148D01*
X148771683Y-76988173D01*
X148794368Y-76980442D01*
X148935018Y-76929360D01*
X149093714Y-76865954D01*
X149236225Y-76803904D01*
X149236886Y-76803598D01*
X149460440Y-76700267D01*
X150460232Y-77379961D01*
X150897300Y-76943621D01*
X151027381Y-76811649D01*
X151142048Y-76691279D01*
X151235181Y-76589273D01*
X151300658Y-76512391D01*
X151332357Y-76467393D01*
X151334368Y-76460938D01*
X151318529Y-76423040D01*
X151274496Y-76345708D01*
X151207490Y-76237389D01*
X151122734Y-76106532D01*
X151027816Y-75965052D01*
X150930998Y-75821461D01*
X150846751Y-75693435D01*
X150780258Y-75589105D01*
X150736702Y-75516600D01*
X150721264Y-75484158D01*
X150734328Y-75444576D01*
X150768750Y-75369519D01*
X150817380Y-75274468D01*
X150822785Y-75264392D01*
X150886980Y-75136391D01*
X150918463Y-75048618D01*
X150918798Y-74994028D01*
X150889548Y-74965575D01*
X150889138Y-74965410D01*
X150854498Y-74951188D01*
X150772269Y-74917269D01*
X150648814Y-74866284D01*
X150490498Y-74800862D01*
X150303686Y-74723634D01*
X150094742Y-74637229D01*
X149892446Y-74553551D01*
X149669200Y-74461588D01*
X149462392Y-74377150D01*
X149278362Y-74302769D01*
X149123451Y-74240974D01*
X149003996Y-74194297D01*
X148926339Y-74165268D01*
X148897356Y-74156322D01*
X148864110Y-74178756D01*
X148811123Y-74237439D01*
X148752704Y-74315689D01*
X148567952Y-74538534D01*
X148356182Y-74712718D01*
X148121856Y-74836154D01*
X147869434Y-74906754D01*
X147603377Y-74922431D01*
X147480575Y-74911036D01*
X147225793Y-74848950D01*
X147000801Y-74742023D01*
X146807817Y-74596889D01*
X146649061Y-74420178D01*
X146526750Y-74218522D01*
X146443105Y-73998554D01*
X146400344Y-73766906D01*
X146400687Y-73530209D01*
X146446352Y-73295095D01*
X146539559Y-73068196D01*
X146682527Y-72856144D01*
X146763383Y-72767636D01*
X146971007Y-72597889D01*
X147197895Y-72479699D01*
X147437433Y-72412278D01*
X147683007Y-72394840D01*
X147928003Y-72426598D01*
X148165808Y-72506765D01*
X148389807Y-72634555D01*
X148593387Y-72809180D01*
X148752704Y-73004312D01*
X148813602Y-73085591D01*
X148866015Y-73143009D01*
X148897406Y-73163678D01*
X148931639Y-73152856D01*
X149013419Y-73122077D01*
X149136407Y-73073874D01*
X149294263Y-73010778D01*
X149480649Y-72935322D01*
X149689226Y-72850038D01*
X149892496Y-72766219D01*
X150115933Y-72673745D01*
X150322984Y-72588089D01*
X150507286Y-72511882D01*
X150662475Y-72447753D01*
X150782188Y-72398332D01*
X150860061Y-72366248D01*
X150889138Y-72354359D01*
X150918677Y-72326274D01*
X150918591Y-72271949D01*
X150887326Y-72184395D01*
X150823329Y-72056619D01*
X150822785Y-72055608D01*
X150773121Y-71959402D01*
X150736945Y-71881631D01*
X150721408Y-71837777D01*
X150721264Y-71835842D01*
X150737024Y-71802829D01*
X150780850Y-71729946D01*
X150847557Y-71625322D01*
X150931964Y-71497090D01*
X151027816Y-71354948D01*
X151124867Y-71210233D01*
X151209270Y-71079804D01*
X151275801Y-70972110D01*
X151319238Y-70895598D01*
X151334368Y-70859062D01*
X151314482Y-70825418D01*
X151258903Y-70757776D01*
X151173754Y-70662893D01*
X151065153Y-70547530D01*
X150939221Y-70418445D01*
X150897149Y-70376229D01*
X150459931Y-69939739D01*
X149972340Y-70271977D01*
X149822605Y-70372946D01*
X149688220Y-70461562D01*
X149576969Y-70532854D01*
X149496639Y-70581850D01*
X149455014Y-70603578D01*
X149452053Y-70604215D01*
X149412818Y-70592760D01*
X149333895Y-70561949D01*
X149228509Y-70517116D01*
X149157954Y-70485647D01*
X149022876Y-70426808D01*
X148886409Y-70371396D01*
X148771103Y-70328436D01*
X148735977Y-70316766D01*
X148642174Y-70283611D01*
X148569694Y-70251201D01*
X148542301Y-70233399D01*
X148525536Y-70194114D01*
X148501770Y-70108374D01*
X148473697Y-69987303D01*
X148444009Y-69842027D01*
X148431806Y-69777012D01*
X148401468Y-69611913D01*
X148372093Y-69453552D01*
X148346569Y-69317404D01*
X148327785Y-69218943D01*
X148324160Y-69200402D01*
X148293906Y-69047127D01*
X147655645Y-69047127D01*
X147445770Y-69047471D01*
X147286980Y-69048884D01*
X147171973Y-69051936D01*
X147093446Y-69057197D01*
X147044096Y-69065237D01*
X147016619Y-69076627D01*
X147003713Y-69091937D01*
X147001320Y-69098218D01*
X146992833Y-69136104D01*
X146975900Y-69219805D01*
X146952566Y-69338567D01*
X146924875Y-69481639D01*
X146894873Y-69638268D01*
X146864604Y-69797703D01*
X146836115Y-69949191D01*
X146811449Y-70081981D01*
X146792651Y-70185319D01*
X146781767Y-70248455D01*
X146779885Y-70262503D01*
X146754704Y-70275230D01*
X146687622Y-70303400D01*
X146591333Y-70341748D01*
X146553621Y-70356391D01*
X146407921Y-70415452D01*
X146246951Y-70485000D01*
X146111291Y-70547288D01*
X146007561Y-70593121D01*
X145922326Y-70623613D01*
X145870126Y-70633792D01*
X145863130Y-70632169D01*
X145830102Y-70610657D01*
X145756643Y-70561535D01*
X145650577Y-70490077D01*
X145519726Y-70401555D01*
X145371912Y-70301241D01*
X145342734Y-70281406D01*
X145169863Y-70165012D01*
X145038226Y-70079452D01*
X144941761Y-70021316D01*
X144874408Y-69987192D01*
X144830106Y-69973669D01*
X144802794Y-69977336D01*
X144802620Y-69977430D01*
X144766746Y-70006293D01*
X144697391Y-70070133D01*
X144601745Y-70162031D01*
X144486999Y-70275067D01*
X144360341Y-70402321D01*
X144346205Y-70416672D01*
X144190903Y-70577043D01*
X144076870Y-70700805D01*
X144002002Y-70790445D01*
X143964196Y-70848448D01*
X143959317Y-70873996D01*
X143980603Y-70911282D01*
X144029773Y-70988657D01*
X144101575Y-71098133D01*
X144190755Y-71231720D01*
X144292063Y-71381430D01*
X144315897Y-71416382D01*
X144654765Y-71912610D01*
X144553056Y-72136707D01*
X144493783Y-72272989D01*
X144434170Y-72419276D01*
X144386640Y-72545035D01*
X144384685Y-72550575D01*
X144348677Y-72648943D01*
X144318229Y-72724771D01*
X144299905Y-72761718D01*
X144299852Y-72761780D01*
X144266729Y-72773504D01*
X144185267Y-72793432D01*
X144064625Y-72819587D01*
X143913959Y-72849990D01*
X143742428Y-72882663D01*
X143727967Y-72885336D01*
X143551235Y-72918110D01*
X143390810Y-72948198D01*
X143256888Y-72973661D01*
X143159663Y-72992559D01*
X143109332Y-73002953D01*
X143108563Y-73003135D01*
X143087153Y-73009461D01*
X143070988Y-73021761D01*
X143059331Y-73047406D01*
X143051445Y-73093765D01*
X143046593Y-73168208D01*
X143044039Y-73278105D01*
X143043045Y-73430825D01*
X143042874Y-73633738D01*
X143042874Y-73660000D01*
X143042998Y-73869014D01*
%LPC*%
D13*
X162560000Y-113030000D03*
D14*
X162560000Y-110490000D03*
X162560000Y-107950000D03*
X162560000Y-105410000D03*
X162560000Y-102870000D03*
X162560000Y-100330000D03*
X162560000Y-97790000D03*
X162560000Y-95250000D03*
D15*
X123825000Y-67945000D03*
D16*
X121825000Y-67945000D03*
D17*
X160909000Y-65786000D03*
X156509000Y-65786000D03*
D13*
X120015000Y-109855000D03*
D14*
X120015000Y-112395000D03*
X120015000Y-114935000D03*
X120015000Y-117475000D03*
D13*
X120904000Y-93726000D03*
D14*
X120904000Y-96266000D03*
X120904000Y-98806000D03*
M02*
