G04 #@! TF.FileFunction,Legend,Top*
%FSLAX46Y46*%
G04 Gerber Fmt 4.6, Leading zero omitted, Abs format (unit mm)*
G04 Created by KiCad (PCBNEW 4.0.6) date 08/10/17 19:56:54*
%MOMM*%
%LPD*%
G01*
G04 APERTURE LIST*
%ADD10C,0.100000*%
%ADD11C,0.200000*%
%ADD12C,0.254000*%
%ADD13C,0.500000*%
%ADD14C,0.150000*%
%ADD15C,0.120000*%
%ADD16R,0.532000X0.732000*%
%ADD17R,0.602000X0.512000*%
%ADD18R,2.552000X2.002000*%
%ADD19O,2.602000X1.002000*%
%ADD20O,1.002000X2.602000*%
%ADD21R,6.102000X6.102000*%
%ADD22R,1.802000X1.802000*%
%ADD23O,1.802000X1.802000*%
%ADD24R,1.002000X0.902000*%
%ADD25R,1.302000X1.802000*%
%ADD26O,1.302000X1.802000*%
%ADD27R,2.602000X0.802000*%
%ADD28R,2.602000X1.102000*%
%ADD29R,0.902000X2.102000*%
%ADD30R,1.402000X1.602000*%
%ADD31R,0.602000X2.352000*%
%ADD32R,2.102000X2.602000*%
%ADD33C,1.552000*%
%ADD34R,1.352000X1.602000*%
%ADD35R,1.602000X3.302000*%
%ADD36R,1.602000X1.352000*%
%ADD37R,1.502000X0.702000*%
%ADD38R,0.952000X0.382000*%
%ADD39R,0.852000X0.382000*%
%ADD40R,1.102000X0.402000*%
%ADD41R,0.402000X1.102000*%
%ADD42R,3.452000X3.452000*%
%ADD43R,1.702000X0.602000*%
%ADD44R,0.902000X1.002000*%
%ADD45R,1.602000X1.402000*%
G04 APERTURE END LIST*
D10*
X118110000Y-59690000D02*
G75*
G03X116840000Y-60960000I0J-1270000D01*
G01*
X116840000Y-119380000D02*
G75*
G03X118110000Y-120650000I1270000J0D01*
G01*
X165100000Y-120650000D02*
G75*
G03X166370000Y-119380000I0J1270000D01*
G01*
X166370000Y-60960000D02*
G75*
G03X165100000Y-59690000I-1270000J0D01*
G01*
X165100000Y-120650000D02*
X118110000Y-120650000D01*
X166370000Y-60960000D02*
X166370000Y-119380000D01*
X118110000Y-59690000D02*
X165100000Y-59690000D01*
X116840000Y-60960000D02*
X116840000Y-119380000D01*
D11*
X141985000Y-81651000D02*
X141985000Y-78351000D01*
X138685000Y-78351000D02*
X138685000Y-81651000D01*
D12*
X141356380Y-77956000D02*
G75*
G03X141356380Y-77956000I-31380J0D01*
G01*
D11*
X134365000Y-81660000D02*
X134365000Y-78360000D01*
X131065000Y-78360000D02*
X131065000Y-81660000D01*
D12*
X133736380Y-77965000D02*
G75*
G03X133736380Y-77965000I-31380J0D01*
G01*
D13*
X151240981Y-120523000D02*
G75*
G03X151240981Y-120523000I-283981J0D01*
G01*
D14*
X132051000Y-120669000D02*
X150051000Y-120669000D01*
X150051000Y-126669000D02*
X150051000Y-101169000D01*
X132051000Y-126669000D02*
X132051000Y-101169000D01*
X132051000Y-101169000D02*
X150051000Y-101169000D01*
X132051000Y-126669000D02*
X150051000Y-126669000D01*
D15*
X163890000Y-93920000D02*
X161230000Y-93920000D01*
X163890000Y-111760000D02*
X163890000Y-93920000D01*
X161230000Y-111760000D02*
X161230000Y-93920000D01*
X163890000Y-111760000D02*
X161230000Y-111760000D01*
X163890000Y-113030000D02*
X163890000Y-114360000D01*
X163890000Y-114360000D02*
X162560000Y-114360000D01*
X121120000Y-77038000D02*
X122720000Y-77038000D01*
X122720000Y-77038000D02*
X122720000Y-74438000D01*
X121120000Y-77038000D02*
X121120000Y-74438000D01*
X123325000Y-61595000D02*
X123325000Y-65945000D01*
X123325000Y-65945000D02*
X122325000Y-65945000D01*
X122325000Y-65945000D02*
X122325000Y-61595000D01*
X124625000Y-67795000D02*
X124975000Y-67795000D01*
X124975000Y-67795000D02*
X124975000Y-69395000D01*
X124975000Y-69395000D02*
X125875000Y-69395000D01*
X125875000Y-69395000D02*
X125875000Y-61595000D01*
X125875000Y-61595000D02*
X119775000Y-61595000D01*
X119775000Y-61595000D02*
X119775000Y-69395000D01*
X119775000Y-69395000D02*
X120675000Y-69395000D01*
X120675000Y-69395000D02*
X120675000Y-67795000D01*
X120675000Y-67795000D02*
X121025000Y-67795000D01*
X125875000Y-67795000D02*
X124975000Y-67795000D01*
X119775000Y-67795000D02*
X120675000Y-67795000D01*
X125125000Y-65445000D02*
X125125000Y-63845000D01*
X125125000Y-63845000D02*
X124125000Y-63845000D01*
X124125000Y-63845000D02*
X124125000Y-65445000D01*
X124125000Y-65445000D02*
X125125000Y-65445000D01*
X120525000Y-65445000D02*
X120525000Y-63845000D01*
X120525000Y-63845000D02*
X121525000Y-63845000D01*
X121525000Y-63845000D02*
X121525000Y-65445000D01*
X121525000Y-65445000D02*
X120525000Y-65445000D01*
X124125000Y-63845000D02*
X124125000Y-61595000D01*
X124625000Y-63845000D02*
X124625000Y-61595000D01*
X124625000Y-67795000D02*
X124625000Y-68995000D01*
X130272000Y-89294000D02*
X132872000Y-89294000D01*
X134172000Y-94094000D02*
X130272000Y-94094000D01*
X143392000Y-85690000D02*
X143392000Y-84490000D01*
X145152000Y-84490000D02*
X145152000Y-85690000D01*
D11*
X162559000Y-59936000D02*
X154859000Y-59936000D01*
X154859000Y-66720000D02*
X154859000Y-64452000D01*
X162559000Y-66720000D02*
X162559000Y-64452000D01*
D12*
X161147680Y-70099000D02*
G75*
G03X161147680Y-70099000I-91680J0D01*
G01*
D15*
X145630000Y-75430000D02*
X145630000Y-74430000D01*
X143930000Y-74430000D02*
X143930000Y-75430000D01*
X159546000Y-111670000D02*
X159546000Y-117170000D01*
X157446000Y-111670000D02*
X157446000Y-117170000D01*
X159546000Y-111670000D02*
X157446000Y-111670000D01*
X155155000Y-116050000D02*
X155155000Y-115050000D01*
X153455000Y-115050000D02*
X153455000Y-116050000D01*
X163060000Y-79160000D02*
X162060000Y-79160000D01*
X162060000Y-80860000D02*
X163060000Y-80860000D01*
X156884000Y-99302000D02*
X156884000Y-100302000D01*
X158584000Y-100302000D02*
X158584000Y-99302000D01*
X136740000Y-74160000D02*
X136740000Y-73160000D01*
X135040000Y-73160000D02*
X135040000Y-74160000D01*
X132600000Y-85510000D02*
X131600000Y-85510000D01*
X131600000Y-87210000D02*
X132600000Y-87210000D01*
X163040000Y-81700000D02*
X162040000Y-81700000D01*
X162040000Y-83400000D02*
X163040000Y-83400000D01*
X122400000Y-87034000D02*
X121400000Y-87034000D01*
X121400000Y-88734000D02*
X122400000Y-88734000D01*
X127420000Y-81415000D02*
X127420000Y-82415000D01*
X129120000Y-82415000D02*
X129120000Y-81415000D01*
X153805000Y-77050000D02*
X154805000Y-77050000D01*
X154805000Y-75350000D02*
X153805000Y-75350000D01*
X162425000Y-75350000D02*
X161425000Y-75350000D01*
X161425000Y-77050000D02*
X162425000Y-77050000D01*
X149526560Y-69056760D02*
X149526560Y-65856760D01*
X151026560Y-65856760D02*
X151026560Y-69056760D01*
X151026560Y-65856760D02*
X149526560Y-65856760D01*
X146800000Y-66945000D02*
X146800000Y-70145000D01*
X145300000Y-70145000D02*
X145300000Y-66945000D01*
X145300000Y-70145000D02*
X146800000Y-70145000D01*
D11*
X140008000Y-68400000D02*
X140408000Y-68400000D01*
X140408000Y-68400000D02*
X140408000Y-71300000D01*
X140408000Y-71300000D02*
X140008000Y-71300000D01*
X140008000Y-71300000D02*
X140008000Y-68400000D01*
X138258000Y-68350000D02*
X139658000Y-68350000D01*
D12*
X127050000Y-76030000D02*
G75*
G03X127050000Y-76030000I-100000J0D01*
G01*
X156695000Y-83530000D02*
G75*
G03X156695000Y-83530000I-125000J0D01*
G01*
X119912000Y-106048000D02*
X122912000Y-106048000D01*
X119912000Y-103248000D02*
X122912000Y-103248000D01*
X118345000Y-103720000D02*
G75*
G03X118345000Y-103720000I-85000J0D01*
G01*
D15*
X146360000Y-90410000D02*
X145430000Y-90410000D01*
X143200000Y-90410000D02*
X144130000Y-90410000D01*
X143200000Y-90410000D02*
X143200000Y-92570000D01*
X146360000Y-90410000D02*
X146360000Y-91870000D01*
X155565000Y-90680000D02*
X154635000Y-90680000D01*
X152405000Y-90680000D02*
X153335000Y-90680000D01*
X152405000Y-90680000D02*
X152405000Y-92840000D01*
X155565000Y-90680000D02*
X155565000Y-92140000D01*
X145450000Y-61985000D02*
X146650000Y-61985000D01*
X146650000Y-63745000D02*
X145450000Y-63745000D01*
X139528000Y-61985000D02*
X140728000Y-61985000D01*
X140728000Y-63745000D02*
X139528000Y-63745000D01*
X147075000Y-85690000D02*
X147075000Y-84490000D01*
X148835000Y-84490000D02*
X148835000Y-85690000D01*
X153044000Y-100502000D02*
X153044000Y-99302000D01*
X154804000Y-99302000D02*
X154804000Y-100502000D01*
X134067000Y-61985000D02*
X135267000Y-61985000D01*
X135267000Y-63745000D02*
X134067000Y-63745000D01*
X139582000Y-85770000D02*
X139582000Y-84570000D01*
X141342000Y-84570000D02*
X141342000Y-85770000D01*
X126193000Y-101736000D02*
X127393000Y-101736000D01*
X127393000Y-103496000D02*
X126193000Y-103496000D01*
X139364000Y-98670000D02*
X138164000Y-98670000D01*
X138164000Y-96910000D02*
X139364000Y-96910000D01*
X121675000Y-116805000D02*
X121675000Y-115605000D01*
X123435000Y-115605000D02*
X123435000Y-116805000D01*
X127880000Y-115605000D02*
X127880000Y-116805000D01*
X126120000Y-116805000D02*
X126120000Y-115605000D01*
X130130000Y-66430000D02*
X131330000Y-66430000D01*
X131330000Y-68190000D02*
X130130000Y-68190000D01*
X131073000Y-74467000D02*
X131073000Y-73267000D01*
X132833000Y-73267000D02*
X132833000Y-74467000D01*
X127393000Y-105528000D02*
X126193000Y-105528000D01*
X126193000Y-103768000D02*
X127393000Y-103768000D01*
X122800000Y-81315000D02*
X122800000Y-82515000D01*
X121040000Y-82515000D02*
X121040000Y-81315000D01*
X125975000Y-81315000D02*
X125975000Y-82515000D01*
X124215000Y-82515000D02*
X124215000Y-81315000D01*
X127393000Y-107560000D02*
X126193000Y-107560000D01*
X126193000Y-105800000D02*
X127393000Y-105800000D01*
X130384000Y-68589000D02*
X131584000Y-68589000D01*
X131584000Y-70349000D02*
X130384000Y-70349000D01*
X118685000Y-118805000D02*
X121345000Y-118805000D01*
X118685000Y-111125000D02*
X118685000Y-118805000D01*
X121345000Y-111125000D02*
X121345000Y-118805000D01*
X118685000Y-111125000D02*
X121345000Y-111125000D01*
X118685000Y-109855000D02*
X118685000Y-108525000D01*
X118685000Y-108525000D02*
X120015000Y-108525000D01*
X119574000Y-100136000D02*
X122234000Y-100136000D01*
X119574000Y-94996000D02*
X119574000Y-100136000D01*
X122234000Y-94996000D02*
X122234000Y-100136000D01*
X119574000Y-94996000D02*
X122234000Y-94996000D01*
X119574000Y-93726000D02*
X119574000Y-92396000D01*
X119574000Y-92396000D02*
X120904000Y-92396000D01*
D12*
X140214048Y-77911476D02*
X140093095Y-77851000D01*
X139972143Y-77730048D01*
X139790714Y-77548619D01*
X139669762Y-77488143D01*
X139548810Y-77488143D01*
X139609286Y-77790524D02*
X139488333Y-77730048D01*
X139367381Y-77609095D01*
X139306905Y-77367190D01*
X139306905Y-76943857D01*
X139367381Y-76701952D01*
X139488333Y-76581000D01*
X139609286Y-76520524D01*
X139851190Y-76520524D01*
X139972143Y-76581000D01*
X140093095Y-76701952D01*
X140153571Y-76943857D01*
X140153571Y-77367190D01*
X140093095Y-77609095D01*
X139972143Y-77730048D01*
X139851190Y-77790524D01*
X139609286Y-77790524D01*
X141363095Y-77790524D02*
X140637381Y-77790524D01*
X141000238Y-77790524D02*
X141000238Y-76520524D01*
X140879286Y-76701952D01*
X140758333Y-76822905D01*
X140637381Y-76883381D01*
X132594048Y-77911476D02*
X132473095Y-77851000D01*
X132352143Y-77730048D01*
X132170714Y-77548619D01*
X132049762Y-77488143D01*
X131928810Y-77488143D01*
X131989286Y-77790524D02*
X131868333Y-77730048D01*
X131747381Y-77609095D01*
X131686905Y-77367190D01*
X131686905Y-76943857D01*
X131747381Y-76701952D01*
X131868333Y-76581000D01*
X131989286Y-76520524D01*
X132231190Y-76520524D01*
X132352143Y-76581000D01*
X132473095Y-76701952D01*
X132533571Y-76943857D01*
X132533571Y-77367190D01*
X132473095Y-77609095D01*
X132352143Y-77730048D01*
X132231190Y-77790524D01*
X131989286Y-77790524D01*
X133017381Y-76641476D02*
X133077857Y-76581000D01*
X133198809Y-76520524D01*
X133501190Y-76520524D01*
X133622143Y-76581000D01*
X133682619Y-76641476D01*
X133743095Y-76762429D01*
X133743095Y-76883381D01*
X133682619Y-77064810D01*
X132956905Y-77790524D01*
X133743095Y-77790524D01*
D14*
X148082095Y-99782381D02*
X148082095Y-100591905D01*
X148129714Y-100687143D01*
X148177333Y-100734762D01*
X148272571Y-100782381D01*
X148463048Y-100782381D01*
X148558286Y-100734762D01*
X148605905Y-100687143D01*
X148653524Y-100591905D01*
X148653524Y-99782381D01*
X149082095Y-99877619D02*
X149129714Y-99830000D01*
X149224952Y-99782381D01*
X149463048Y-99782381D01*
X149558286Y-99830000D01*
X149605905Y-99877619D01*
X149653524Y-99972857D01*
X149653524Y-100068095D01*
X149605905Y-100210952D01*
X149034476Y-100782381D01*
X149653524Y-100782381D01*
X134121571Y-119601430D02*
X134121571Y-119268096D01*
X134645381Y-119125239D02*
X134645381Y-119601430D01*
X133645381Y-119601430D01*
X133645381Y-119125239D01*
X134597762Y-118744287D02*
X134645381Y-118649049D01*
X134645381Y-118458573D01*
X134597762Y-118363334D01*
X134502524Y-118315715D01*
X134454905Y-118315715D01*
X134359667Y-118363334D01*
X134312048Y-118458573D01*
X134312048Y-118601430D01*
X134264429Y-118696668D01*
X134169190Y-118744287D01*
X134121571Y-118744287D01*
X134026333Y-118696668D01*
X133978714Y-118601430D01*
X133978714Y-118458573D01*
X134026333Y-118363334D01*
X133978714Y-117887144D02*
X134978714Y-117887144D01*
X134026333Y-117887144D02*
X133978714Y-117791906D01*
X133978714Y-117601429D01*
X134026333Y-117506191D01*
X134073952Y-117458572D01*
X134169190Y-117410953D01*
X134454905Y-117410953D01*
X134550143Y-117458572D01*
X134597762Y-117506191D01*
X134645381Y-117601429D01*
X134645381Y-117791906D01*
X134597762Y-117887144D01*
X134645381Y-116982382D02*
X133978714Y-116982382D01*
X134169190Y-116982382D02*
X134073952Y-116934763D01*
X134026333Y-116887144D01*
X133978714Y-116791906D01*
X133978714Y-116696667D01*
X134597762Y-115982381D02*
X134645381Y-116077619D01*
X134645381Y-116268096D01*
X134597762Y-116363334D01*
X134502524Y-116410953D01*
X134121571Y-116410953D01*
X134026333Y-116363334D01*
X133978714Y-116268096D01*
X133978714Y-116077619D01*
X134026333Y-115982381D01*
X134121571Y-115934762D01*
X134216810Y-115934762D01*
X134312048Y-116410953D01*
X134597762Y-115553810D02*
X134645381Y-115458572D01*
X134645381Y-115268096D01*
X134597762Y-115172857D01*
X134502524Y-115125238D01*
X134454905Y-115125238D01*
X134359667Y-115172857D01*
X134312048Y-115268096D01*
X134312048Y-115410953D01*
X134264429Y-115506191D01*
X134169190Y-115553810D01*
X134121571Y-115553810D01*
X134026333Y-115506191D01*
X133978714Y-115410953D01*
X133978714Y-115268096D01*
X134026333Y-115172857D01*
X134597762Y-114744286D02*
X134645381Y-114649048D01*
X134645381Y-114458572D01*
X134597762Y-114363333D01*
X134502524Y-114315714D01*
X134454905Y-114315714D01*
X134359667Y-114363333D01*
X134312048Y-114458572D01*
X134312048Y-114601429D01*
X134264429Y-114696667D01*
X134169190Y-114744286D01*
X134121571Y-114744286D01*
X134026333Y-114696667D01*
X133978714Y-114601429D01*
X133978714Y-114458572D01*
X134026333Y-114363333D01*
X134645381Y-113887143D02*
X133978714Y-113887143D01*
X133645381Y-113887143D02*
X133693000Y-113934762D01*
X133740619Y-113887143D01*
X133693000Y-113839524D01*
X133645381Y-113887143D01*
X133740619Y-113887143D01*
X133978714Y-113553810D02*
X133978714Y-113172858D01*
X134645381Y-113410953D02*
X133788238Y-113410953D01*
X133693000Y-113363334D01*
X133645381Y-113268096D01*
X133645381Y-113172858D01*
X134597762Y-112125238D02*
X134645381Y-111982381D01*
X134645381Y-111744285D01*
X134597762Y-111649047D01*
X134550143Y-111601428D01*
X134454905Y-111553809D01*
X134359667Y-111553809D01*
X134264429Y-111601428D01*
X134216810Y-111649047D01*
X134169190Y-111744285D01*
X134121571Y-111934762D01*
X134073952Y-112030000D01*
X134026333Y-112077619D01*
X133931095Y-112125238D01*
X133835857Y-112125238D01*
X133740619Y-112077619D01*
X133693000Y-112030000D01*
X133645381Y-111934762D01*
X133645381Y-111696666D01*
X133693000Y-111553809D01*
X133978714Y-111220476D02*
X134645381Y-110982381D01*
X133978714Y-110744285D02*
X134645381Y-110982381D01*
X134883476Y-111077619D01*
X134931095Y-111125238D01*
X134978714Y-111220476D01*
X134597762Y-110410952D02*
X134645381Y-110315714D01*
X134645381Y-110125238D01*
X134597762Y-110029999D01*
X134502524Y-109982380D01*
X134454905Y-109982380D01*
X134359667Y-110029999D01*
X134312048Y-110125238D01*
X134312048Y-110268095D01*
X134264429Y-110363333D01*
X134169190Y-110410952D01*
X134121571Y-110410952D01*
X134026333Y-110363333D01*
X133978714Y-110268095D01*
X133978714Y-110125238D01*
X134026333Y-110029999D01*
X133978714Y-109696666D02*
X133978714Y-109315714D01*
X133645381Y-109553809D02*
X134502524Y-109553809D01*
X134597762Y-109506190D01*
X134645381Y-109410952D01*
X134645381Y-109315714D01*
X134597762Y-108601427D02*
X134645381Y-108696665D01*
X134645381Y-108887142D01*
X134597762Y-108982380D01*
X134502524Y-109029999D01*
X134121571Y-109029999D01*
X134026333Y-108982380D01*
X133978714Y-108887142D01*
X133978714Y-108696665D01*
X134026333Y-108601427D01*
X134121571Y-108553808D01*
X134216810Y-108553808D01*
X134312048Y-109029999D01*
X134645381Y-108125237D02*
X133978714Y-108125237D01*
X134073952Y-108125237D02*
X134026333Y-108077618D01*
X133978714Y-107982380D01*
X133978714Y-107839522D01*
X134026333Y-107744284D01*
X134121571Y-107696665D01*
X134645381Y-107696665D01*
X134121571Y-107696665D02*
X134026333Y-107649046D01*
X133978714Y-107553808D01*
X133978714Y-107410951D01*
X134026333Y-107315713D01*
X134121571Y-107268094D01*
X134645381Y-107268094D01*
X134597762Y-106839523D02*
X134645381Y-106744285D01*
X134645381Y-106553809D01*
X134597762Y-106458570D01*
X134502524Y-106410951D01*
X134454905Y-106410951D01*
X134359667Y-106458570D01*
X134312048Y-106553809D01*
X134312048Y-106696666D01*
X134264429Y-106791904D01*
X134169190Y-106839523D01*
X134121571Y-106839523D01*
X134026333Y-106791904D01*
X133978714Y-106696666D01*
X133978714Y-106553809D01*
X134026333Y-106458570D01*
X135772571Y-119625381D02*
X135772571Y-119292047D01*
X136296381Y-119149190D02*
X136296381Y-119625381D01*
X135296381Y-119625381D01*
X135296381Y-119149190D01*
X136248762Y-118768238D02*
X136296381Y-118625381D01*
X136296381Y-118387285D01*
X136248762Y-118292047D01*
X136201143Y-118244428D01*
X136105905Y-118196809D01*
X136010667Y-118196809D01*
X135915429Y-118244428D01*
X135867810Y-118292047D01*
X135820190Y-118387285D01*
X135772571Y-118577762D01*
X135724952Y-118673000D01*
X135677333Y-118720619D01*
X135582095Y-118768238D01*
X135486857Y-118768238D01*
X135391619Y-118720619D01*
X135344000Y-118673000D01*
X135296381Y-118577762D01*
X135296381Y-118339666D01*
X135344000Y-118196809D01*
X136296381Y-117768238D02*
X135296381Y-117768238D01*
X135296381Y-117387285D01*
X135344000Y-117292047D01*
X135391619Y-117244428D01*
X135486857Y-117196809D01*
X135629714Y-117196809D01*
X135724952Y-117244428D01*
X135772571Y-117292047D01*
X135820190Y-117387285D01*
X135820190Y-117768238D01*
X135296381Y-116863476D02*
X135296381Y-116244428D01*
X135677333Y-116577762D01*
X135677333Y-116434904D01*
X135724952Y-116339666D01*
X135772571Y-116292047D01*
X135867810Y-116244428D01*
X136105905Y-116244428D01*
X136201143Y-116292047D01*
X136248762Y-116339666D01*
X136296381Y-116434904D01*
X136296381Y-116720619D01*
X136248762Y-116815857D01*
X136201143Y-116863476D01*
X135391619Y-115863476D02*
X135344000Y-115815857D01*
X135296381Y-115720619D01*
X135296381Y-115482523D01*
X135344000Y-115387285D01*
X135391619Y-115339666D01*
X135486857Y-115292047D01*
X135582095Y-115292047D01*
X135724952Y-115339666D01*
X136296381Y-115911095D01*
X136296381Y-115292047D01*
X135915429Y-114863476D02*
X135915429Y-114101571D01*
X135296381Y-113720619D02*
X136296381Y-113482524D01*
X135582095Y-113292047D01*
X136296381Y-113101571D01*
X135296381Y-112863476D01*
X136296381Y-111911095D02*
X135820190Y-112244429D01*
X136296381Y-112482524D02*
X135296381Y-112482524D01*
X135296381Y-112101571D01*
X135344000Y-112006333D01*
X135391619Y-111958714D01*
X135486857Y-111911095D01*
X135629714Y-111911095D01*
X135724952Y-111958714D01*
X135772571Y-112006333D01*
X135820190Y-112101571D01*
X135820190Y-112482524D01*
X135296381Y-111292048D02*
X135296381Y-111101571D01*
X135344000Y-111006333D01*
X135439238Y-110911095D01*
X135629714Y-110863476D01*
X135963048Y-110863476D01*
X136153524Y-110911095D01*
X136248762Y-111006333D01*
X136296381Y-111101571D01*
X136296381Y-111292048D01*
X136248762Y-111387286D01*
X136153524Y-111482524D01*
X135963048Y-111530143D01*
X135629714Y-111530143D01*
X135439238Y-111482524D01*
X135344000Y-111387286D01*
X135296381Y-111292048D01*
X135296381Y-110244429D02*
X135296381Y-110053952D01*
X135344000Y-109958714D01*
X135439238Y-109863476D01*
X135629714Y-109815857D01*
X135963048Y-109815857D01*
X136153524Y-109863476D01*
X136248762Y-109958714D01*
X136296381Y-110053952D01*
X136296381Y-110244429D01*
X136248762Y-110339667D01*
X136153524Y-110434905D01*
X135963048Y-110482524D01*
X135629714Y-110482524D01*
X135439238Y-110434905D01*
X135344000Y-110339667D01*
X135296381Y-110244429D01*
X136296381Y-109387286D02*
X135296381Y-109387286D01*
X136010667Y-109053952D01*
X135296381Y-108720619D01*
X136296381Y-108720619D01*
X162226667Y-114812381D02*
X162226667Y-115526667D01*
X162179047Y-115669524D01*
X162083809Y-115764762D01*
X161940952Y-115812381D01*
X161845714Y-115812381D01*
X163131429Y-115145714D02*
X163131429Y-115812381D01*
X162893333Y-114764762D02*
X162655238Y-115479048D01*
X163274286Y-115479048D01*
X122451905Y-73858381D02*
X122451905Y-72858381D01*
X122690000Y-72858381D01*
X122832858Y-72906000D01*
X122928096Y-73001238D01*
X122975715Y-73096476D01*
X123023334Y-73286952D01*
X123023334Y-73429810D01*
X122975715Y-73620286D01*
X122928096Y-73715524D01*
X122832858Y-73810762D01*
X122690000Y-73858381D01*
X122451905Y-73858381D01*
X123356667Y-72858381D02*
X124023334Y-72858381D01*
X123594762Y-73858381D01*
X126920667Y-61682381D02*
X126920667Y-62396667D01*
X126873047Y-62539524D01*
X126777809Y-62634762D01*
X126634952Y-62682381D01*
X126539714Y-62682381D01*
X127349238Y-61777619D02*
X127396857Y-61730000D01*
X127492095Y-61682381D01*
X127730191Y-61682381D01*
X127825429Y-61730000D01*
X127873048Y-61777619D01*
X127920667Y-61872857D01*
X127920667Y-61968095D01*
X127873048Y-62110952D01*
X127301619Y-62682381D01*
X127920667Y-62682381D01*
X128016095Y-94194381D02*
X128016095Y-95003905D01*
X128063714Y-95099143D01*
X128111333Y-95146762D01*
X128206571Y-95194381D01*
X128397048Y-95194381D01*
X128492286Y-95146762D01*
X128539905Y-95099143D01*
X128587524Y-95003905D01*
X128587524Y-94194381D01*
X129587524Y-95194381D02*
X129016095Y-95194381D01*
X129301809Y-95194381D02*
X129301809Y-94194381D01*
X129206571Y-94337238D01*
X129111333Y-94432476D01*
X129016095Y-94480095D01*
X145629334Y-88336381D02*
X145296000Y-87860190D01*
X145057905Y-88336381D02*
X145057905Y-87336381D01*
X145438858Y-87336381D01*
X145534096Y-87384000D01*
X145581715Y-87431619D01*
X145629334Y-87526857D01*
X145629334Y-87669714D01*
X145581715Y-87764952D01*
X145534096Y-87812571D01*
X145438858Y-87860190D01*
X145057905Y-87860190D01*
X146581715Y-88336381D02*
X146010286Y-88336381D01*
X146296000Y-88336381D02*
X146296000Y-87336381D01*
X146200762Y-87479238D01*
X146105524Y-87574476D01*
X146010286Y-87622095D01*
D12*
X162517667Y-70170524D02*
X162517667Y-71077667D01*
X162457191Y-71259095D01*
X162336239Y-71380048D01*
X162154810Y-71440524D01*
X162033858Y-71440524D01*
X163787667Y-71440524D02*
X163061953Y-71440524D01*
X163424810Y-71440524D02*
X163424810Y-70170524D01*
X163303858Y-70351952D01*
X163182905Y-70472905D01*
X163061953Y-70533381D01*
D14*
X146645334Y-77319143D02*
X146597715Y-77366762D01*
X146454858Y-77414381D01*
X146359620Y-77414381D01*
X146216762Y-77366762D01*
X146121524Y-77271524D01*
X146073905Y-77176286D01*
X146026286Y-76985810D01*
X146026286Y-76842952D01*
X146073905Y-76652476D01*
X146121524Y-76557238D01*
X146216762Y-76462000D01*
X146359620Y-76414381D01*
X146454858Y-76414381D01*
X146597715Y-76462000D01*
X146645334Y-76509619D01*
X147597715Y-77414381D02*
X147026286Y-77414381D01*
X147312000Y-77414381D02*
X147312000Y-76414381D01*
X147216762Y-76557238D01*
X147121524Y-76652476D01*
X147026286Y-76700095D01*
X160361334Y-119229143D02*
X160313715Y-119276762D01*
X160170858Y-119324381D01*
X160075620Y-119324381D01*
X159932762Y-119276762D01*
X159837524Y-119181524D01*
X159789905Y-119086286D01*
X159742286Y-118895810D01*
X159742286Y-118752952D01*
X159789905Y-118562476D01*
X159837524Y-118467238D01*
X159932762Y-118372000D01*
X160075620Y-118324381D01*
X160170858Y-118324381D01*
X160313715Y-118372000D01*
X160361334Y-118419619D01*
X160742286Y-118419619D02*
X160789905Y-118372000D01*
X160885143Y-118324381D01*
X161123239Y-118324381D01*
X161218477Y-118372000D01*
X161266096Y-118419619D01*
X161313715Y-118514857D01*
X161313715Y-118610095D01*
X161266096Y-118752952D01*
X160694667Y-119324381D01*
X161313715Y-119324381D01*
X156043334Y-118467143D02*
X155995715Y-118514762D01*
X155852858Y-118562381D01*
X155757620Y-118562381D01*
X155614762Y-118514762D01*
X155519524Y-118419524D01*
X155471905Y-118324286D01*
X155424286Y-118133810D01*
X155424286Y-117990952D01*
X155471905Y-117800476D01*
X155519524Y-117705238D01*
X155614762Y-117610000D01*
X155757620Y-117562381D01*
X155852858Y-117562381D01*
X155995715Y-117610000D01*
X156043334Y-117657619D01*
X156376667Y-117562381D02*
X156995715Y-117562381D01*
X156662381Y-117943333D01*
X156805239Y-117943333D01*
X156900477Y-117990952D01*
X156948096Y-118038571D01*
X156995715Y-118133810D01*
X156995715Y-118371905D01*
X156948096Y-118467143D01*
X156900477Y-118514762D01*
X156805239Y-118562381D01*
X156519524Y-118562381D01*
X156424286Y-118514762D01*
X156376667Y-118467143D01*
X165060334Y-79097143D02*
X165012715Y-79144762D01*
X164869858Y-79192381D01*
X164774620Y-79192381D01*
X164631762Y-79144762D01*
X164536524Y-79049524D01*
X164488905Y-78954286D01*
X164441286Y-78763810D01*
X164441286Y-78620952D01*
X164488905Y-78430476D01*
X164536524Y-78335238D01*
X164631762Y-78240000D01*
X164774620Y-78192381D01*
X164869858Y-78192381D01*
X165012715Y-78240000D01*
X165060334Y-78287619D01*
X165917477Y-78525714D02*
X165917477Y-79192381D01*
X165679381Y-78144762D02*
X165441286Y-78859048D01*
X166060334Y-78859048D01*
X159091334Y-102719143D02*
X159043715Y-102766762D01*
X158900858Y-102814381D01*
X158805620Y-102814381D01*
X158662762Y-102766762D01*
X158567524Y-102671524D01*
X158519905Y-102576286D01*
X158472286Y-102385810D01*
X158472286Y-102242952D01*
X158519905Y-102052476D01*
X158567524Y-101957238D01*
X158662762Y-101862000D01*
X158805620Y-101814381D01*
X158900858Y-101814381D01*
X159043715Y-101862000D01*
X159091334Y-101909619D01*
X159996096Y-101814381D02*
X159519905Y-101814381D01*
X159472286Y-102290571D01*
X159519905Y-102242952D01*
X159615143Y-102195333D01*
X159853239Y-102195333D01*
X159948477Y-102242952D01*
X159996096Y-102290571D01*
X160043715Y-102385810D01*
X160043715Y-102623905D01*
X159996096Y-102719143D01*
X159948477Y-102766762D01*
X159853239Y-102814381D01*
X159615143Y-102814381D01*
X159519905Y-102766762D01*
X159472286Y-102719143D01*
X137374334Y-75541143D02*
X137326715Y-75588762D01*
X137183858Y-75636381D01*
X137088620Y-75636381D01*
X136945762Y-75588762D01*
X136850524Y-75493524D01*
X136802905Y-75398286D01*
X136755286Y-75207810D01*
X136755286Y-75064952D01*
X136802905Y-74874476D01*
X136850524Y-74779238D01*
X136945762Y-74684000D01*
X137088620Y-74636381D01*
X137183858Y-74636381D01*
X137326715Y-74684000D01*
X137374334Y-74731619D01*
X138231477Y-74636381D02*
X138041000Y-74636381D01*
X137945762Y-74684000D01*
X137898143Y-74731619D01*
X137802905Y-74874476D01*
X137755286Y-75064952D01*
X137755286Y-75445905D01*
X137802905Y-75541143D01*
X137850524Y-75588762D01*
X137945762Y-75636381D01*
X138136239Y-75636381D01*
X138231477Y-75588762D01*
X138279096Y-75541143D01*
X138326715Y-75445905D01*
X138326715Y-75207810D01*
X138279096Y-75112571D01*
X138231477Y-75064952D01*
X138136239Y-75017333D01*
X137945762Y-75017333D01*
X137850524Y-75064952D01*
X137802905Y-75112571D01*
X137755286Y-75207810D01*
X135342334Y-87733143D02*
X135294715Y-87780762D01*
X135151858Y-87828381D01*
X135056620Y-87828381D01*
X134913762Y-87780762D01*
X134818524Y-87685524D01*
X134770905Y-87590286D01*
X134723286Y-87399810D01*
X134723286Y-87256952D01*
X134770905Y-87066476D01*
X134818524Y-86971238D01*
X134913762Y-86876000D01*
X135056620Y-86828381D01*
X135151858Y-86828381D01*
X135294715Y-86876000D01*
X135342334Y-86923619D01*
X135675667Y-86828381D02*
X136342334Y-86828381D01*
X135913762Y-87828381D01*
X165294334Y-81891143D02*
X165246715Y-81938762D01*
X165103858Y-81986381D01*
X165008620Y-81986381D01*
X164865762Y-81938762D01*
X164770524Y-81843524D01*
X164722905Y-81748286D01*
X164675286Y-81557810D01*
X164675286Y-81414952D01*
X164722905Y-81224476D01*
X164770524Y-81129238D01*
X164865762Y-81034000D01*
X165008620Y-80986381D01*
X165103858Y-80986381D01*
X165246715Y-81034000D01*
X165294334Y-81081619D01*
X165865762Y-81414952D02*
X165770524Y-81367333D01*
X165722905Y-81319714D01*
X165675286Y-81224476D01*
X165675286Y-81176857D01*
X165722905Y-81081619D01*
X165770524Y-81034000D01*
X165865762Y-80986381D01*
X166056239Y-80986381D01*
X166151477Y-81034000D01*
X166199096Y-81081619D01*
X166246715Y-81176857D01*
X166246715Y-81224476D01*
X166199096Y-81319714D01*
X166151477Y-81367333D01*
X166056239Y-81414952D01*
X165865762Y-81414952D01*
X165770524Y-81462571D01*
X165722905Y-81510190D01*
X165675286Y-81605429D01*
X165675286Y-81795905D01*
X165722905Y-81891143D01*
X165770524Y-81938762D01*
X165865762Y-81986381D01*
X166056239Y-81986381D01*
X166151477Y-81938762D01*
X166199096Y-81891143D01*
X166246715Y-81795905D01*
X166246715Y-81605429D01*
X166199096Y-81510190D01*
X166151477Y-81462571D01*
X166056239Y-81414952D01*
X125055334Y-88241143D02*
X125007715Y-88288762D01*
X124864858Y-88336381D01*
X124769620Y-88336381D01*
X124626762Y-88288762D01*
X124531524Y-88193524D01*
X124483905Y-88098286D01*
X124436286Y-87907810D01*
X124436286Y-87764952D01*
X124483905Y-87574476D01*
X124531524Y-87479238D01*
X124626762Y-87384000D01*
X124769620Y-87336381D01*
X124864858Y-87336381D01*
X125007715Y-87384000D01*
X125055334Y-87431619D01*
X125531524Y-88336381D02*
X125722000Y-88336381D01*
X125817239Y-88288762D01*
X125864858Y-88241143D01*
X125960096Y-88098286D01*
X126007715Y-87907810D01*
X126007715Y-87526857D01*
X125960096Y-87431619D01*
X125912477Y-87384000D01*
X125817239Y-87336381D01*
X125626762Y-87336381D01*
X125531524Y-87384000D01*
X125483905Y-87431619D01*
X125436286Y-87526857D01*
X125436286Y-87764952D01*
X125483905Y-87860190D01*
X125531524Y-87907810D01*
X125626762Y-87955429D01*
X125817239Y-87955429D01*
X125912477Y-87907810D01*
X125960096Y-87860190D01*
X126007715Y-87764952D01*
X127627143Y-85320143D02*
X127579524Y-85367762D01*
X127436667Y-85415381D01*
X127341429Y-85415381D01*
X127198571Y-85367762D01*
X127103333Y-85272524D01*
X127055714Y-85177286D01*
X127008095Y-84986810D01*
X127008095Y-84843952D01*
X127055714Y-84653476D01*
X127103333Y-84558238D01*
X127198571Y-84463000D01*
X127341429Y-84415381D01*
X127436667Y-84415381D01*
X127579524Y-84463000D01*
X127627143Y-84510619D01*
X128579524Y-85415381D02*
X128008095Y-85415381D01*
X128293809Y-85415381D02*
X128293809Y-84415381D01*
X128198571Y-84558238D01*
X128103333Y-84653476D01*
X128008095Y-84701095D01*
X129198571Y-84415381D02*
X129293810Y-84415381D01*
X129389048Y-84463000D01*
X129436667Y-84510619D01*
X129484286Y-84605857D01*
X129531905Y-84796333D01*
X129531905Y-85034429D01*
X129484286Y-85224905D01*
X129436667Y-85320143D01*
X129389048Y-85367762D01*
X129293810Y-85415381D01*
X129198571Y-85415381D01*
X129103333Y-85367762D01*
X129055714Y-85320143D01*
X129008095Y-85224905D01*
X128960476Y-85034429D01*
X128960476Y-84796333D01*
X129008095Y-84605857D01*
X129055714Y-84510619D01*
X129103333Y-84463000D01*
X129198571Y-84415381D01*
X150106143Y-76557143D02*
X150058524Y-76604762D01*
X149915667Y-76652381D01*
X149820429Y-76652381D01*
X149677571Y-76604762D01*
X149582333Y-76509524D01*
X149534714Y-76414286D01*
X149487095Y-76223810D01*
X149487095Y-76080952D01*
X149534714Y-75890476D01*
X149582333Y-75795238D01*
X149677571Y-75700000D01*
X149820429Y-75652381D01*
X149915667Y-75652381D01*
X150058524Y-75700000D01*
X150106143Y-75747619D01*
X151058524Y-76652381D02*
X150487095Y-76652381D01*
X150772809Y-76652381D02*
X150772809Y-75652381D01*
X150677571Y-75795238D01*
X150582333Y-75890476D01*
X150487095Y-75938095D01*
X152010905Y-76652381D02*
X151439476Y-76652381D01*
X151725190Y-76652381D02*
X151725190Y-75652381D01*
X151629952Y-75795238D01*
X151534714Y-75890476D01*
X151439476Y-75938095D01*
X163949143Y-75287143D02*
X163901524Y-75334762D01*
X163758667Y-75382381D01*
X163663429Y-75382381D01*
X163520571Y-75334762D01*
X163425333Y-75239524D01*
X163377714Y-75144286D01*
X163330095Y-74953810D01*
X163330095Y-74810952D01*
X163377714Y-74620476D01*
X163425333Y-74525238D01*
X163520571Y-74430000D01*
X163663429Y-74382381D01*
X163758667Y-74382381D01*
X163901524Y-74430000D01*
X163949143Y-74477619D01*
X164901524Y-75382381D02*
X164330095Y-75382381D01*
X164615809Y-75382381D02*
X164615809Y-74382381D01*
X164520571Y-74525238D01*
X164425333Y-74620476D01*
X164330095Y-74668095D01*
X165282476Y-74477619D02*
X165330095Y-74430000D01*
X165425333Y-74382381D01*
X165663429Y-74382381D01*
X165758667Y-74430000D01*
X165806286Y-74477619D01*
X165853905Y-74572857D01*
X165853905Y-74668095D01*
X165806286Y-74810952D01*
X165234857Y-75382381D01*
X165853905Y-75382381D01*
X151570465Y-70922141D02*
X151570465Y-69922141D01*
X151808560Y-69922141D01*
X151951418Y-69969760D01*
X152046656Y-70064998D01*
X152094275Y-70160236D01*
X152141894Y-70350712D01*
X152141894Y-70493570D01*
X152094275Y-70684046D01*
X152046656Y-70779284D01*
X151951418Y-70874522D01*
X151808560Y-70922141D01*
X151570465Y-70922141D01*
X153094275Y-70922141D02*
X152522846Y-70922141D01*
X152808560Y-70922141D02*
X152808560Y-69922141D01*
X152713322Y-70064998D01*
X152618084Y-70160236D01*
X152522846Y-70207855D01*
X147089905Y-70937381D02*
X147089905Y-69937381D01*
X147328000Y-69937381D01*
X147470858Y-69985000D01*
X147566096Y-70080238D01*
X147613715Y-70175476D01*
X147661334Y-70365952D01*
X147661334Y-70508810D01*
X147613715Y-70699286D01*
X147566096Y-70794524D01*
X147470858Y-70889762D01*
X147328000Y-70937381D01*
X147089905Y-70937381D01*
X148566096Y-69937381D02*
X148089905Y-69937381D01*
X148042286Y-70413571D01*
X148089905Y-70365952D01*
X148185143Y-70318333D01*
X148423239Y-70318333D01*
X148518477Y-70365952D01*
X148566096Y-70413571D01*
X148613715Y-70508810D01*
X148613715Y-70746905D01*
X148566096Y-70842143D01*
X148518477Y-70889762D01*
X148423239Y-70937381D01*
X148185143Y-70937381D01*
X148089905Y-70889762D01*
X148042286Y-70842143D01*
D12*
X138968238Y-73218524D02*
X138968238Y-71948524D01*
X140298714Y-73097571D02*
X140238238Y-73158048D01*
X140056809Y-73218524D01*
X139935857Y-73218524D01*
X139754429Y-73158048D01*
X139633476Y-73037095D01*
X139573000Y-72916143D01*
X139512524Y-72674238D01*
X139512524Y-72492810D01*
X139573000Y-72250905D01*
X139633476Y-72129952D01*
X139754429Y-72009000D01*
X139935857Y-71948524D01*
X140056809Y-71948524D01*
X140238238Y-72009000D01*
X140298714Y-72069476D01*
X141508238Y-73218524D02*
X140782524Y-73218524D01*
X141145381Y-73218524D02*
X141145381Y-71948524D01*
X141024429Y-72129952D01*
X140903476Y-72250905D01*
X140782524Y-72311381D01*
X125252238Y-77790524D02*
X125252238Y-76520524D01*
X126582714Y-77669571D02*
X126522238Y-77730048D01*
X126340809Y-77790524D01*
X126219857Y-77790524D01*
X126038429Y-77730048D01*
X125917476Y-77609095D01*
X125857000Y-77488143D01*
X125796524Y-77246238D01*
X125796524Y-77064810D01*
X125857000Y-76822905D01*
X125917476Y-76701952D01*
X126038429Y-76581000D01*
X126219857Y-76520524D01*
X126340809Y-76520524D01*
X126522238Y-76581000D01*
X126582714Y-76641476D01*
X127066524Y-76641476D02*
X127127000Y-76581000D01*
X127247952Y-76520524D01*
X127550333Y-76520524D01*
X127671286Y-76581000D01*
X127731762Y-76641476D01*
X127792238Y-76762429D01*
X127792238Y-76883381D01*
X127731762Y-77064810D01*
X127006048Y-77790524D01*
X127792238Y-77790524D01*
X156748238Y-86045524D02*
X156748238Y-84775524D01*
X158078714Y-85924571D02*
X158018238Y-85985048D01*
X157836809Y-86045524D01*
X157715857Y-86045524D01*
X157534429Y-85985048D01*
X157413476Y-85864095D01*
X157353000Y-85743143D01*
X157292524Y-85501238D01*
X157292524Y-85319810D01*
X157353000Y-85077905D01*
X157413476Y-84956952D01*
X157534429Y-84836000D01*
X157715857Y-84775524D01*
X157836809Y-84775524D01*
X158018238Y-84836000D01*
X158078714Y-84896476D01*
X158502048Y-84775524D02*
X159288238Y-84775524D01*
X158864905Y-85259333D01*
X159046333Y-85259333D01*
X159167286Y-85319810D01*
X159227762Y-85380286D01*
X159288238Y-85501238D01*
X159288238Y-85803619D01*
X159227762Y-85924571D01*
X159167286Y-85985048D01*
X159046333Y-86045524D01*
X158683476Y-86045524D01*
X158562524Y-85985048D01*
X158502048Y-85924571D01*
X119990810Y-102555524D02*
X119386048Y-102555524D01*
X119386048Y-101285524D01*
X120414143Y-101890286D02*
X120837476Y-101890286D01*
X121018905Y-102555524D02*
X120414143Y-102555524D01*
X120414143Y-101285524D01*
X121018905Y-101285524D01*
X121563191Y-102555524D02*
X121563191Y-101285524D01*
X121865572Y-101285524D01*
X122047000Y-101346000D01*
X122167953Y-101466952D01*
X122228429Y-101587905D01*
X122288905Y-101829810D01*
X122288905Y-102011238D01*
X122228429Y-102253143D01*
X122167953Y-102374095D01*
X122047000Y-102495048D01*
X121865572Y-102555524D01*
X121563191Y-102555524D01*
X123498429Y-102555524D02*
X122772715Y-102555524D01*
X123135572Y-102555524D02*
X123135572Y-101285524D01*
X123014620Y-101466952D01*
X122893667Y-101587905D01*
X122772715Y-101648381D01*
D14*
X146970762Y-94019619D02*
X146875524Y-93972000D01*
X146780286Y-93876762D01*
X146637429Y-93733905D01*
X146542190Y-93686286D01*
X146446952Y-93686286D01*
X146494571Y-93924381D02*
X146399333Y-93876762D01*
X146304095Y-93781524D01*
X146256476Y-93591048D01*
X146256476Y-93257714D01*
X146304095Y-93067238D01*
X146399333Y-92972000D01*
X146494571Y-92924381D01*
X146685048Y-92924381D01*
X146780286Y-92972000D01*
X146875524Y-93067238D01*
X146923143Y-93257714D01*
X146923143Y-93591048D01*
X146875524Y-93781524D01*
X146780286Y-93876762D01*
X146685048Y-93924381D01*
X146494571Y-93924381D01*
X147256476Y-92924381D02*
X147875524Y-92924381D01*
X147542190Y-93305333D01*
X147685048Y-93305333D01*
X147780286Y-93352952D01*
X147827905Y-93400571D01*
X147875524Y-93495810D01*
X147875524Y-93733905D01*
X147827905Y-93829143D01*
X147780286Y-93876762D01*
X147685048Y-93924381D01*
X147399333Y-93924381D01*
X147304095Y-93876762D01*
X147256476Y-93829143D01*
X156368762Y-94019619D02*
X156273524Y-93972000D01*
X156178286Y-93876762D01*
X156035429Y-93733905D01*
X155940190Y-93686286D01*
X155844952Y-93686286D01*
X155892571Y-93924381D02*
X155797333Y-93876762D01*
X155702095Y-93781524D01*
X155654476Y-93591048D01*
X155654476Y-93257714D01*
X155702095Y-93067238D01*
X155797333Y-92972000D01*
X155892571Y-92924381D01*
X156083048Y-92924381D01*
X156178286Y-92972000D01*
X156273524Y-93067238D01*
X156321143Y-93257714D01*
X156321143Y-93591048D01*
X156273524Y-93781524D01*
X156178286Y-93876762D01*
X156083048Y-93924381D01*
X155892571Y-93924381D01*
X157178286Y-93257714D02*
X157178286Y-93924381D01*
X156940190Y-92876762D02*
X156702095Y-93591048D01*
X157321143Y-93591048D01*
X145883334Y-61666381D02*
X145550000Y-61190190D01*
X145311905Y-61666381D02*
X145311905Y-60666381D01*
X145692858Y-60666381D01*
X145788096Y-60714000D01*
X145835715Y-60761619D01*
X145883334Y-60856857D01*
X145883334Y-60999714D01*
X145835715Y-61094952D01*
X145788096Y-61142571D01*
X145692858Y-61190190D01*
X145311905Y-61190190D01*
X146264286Y-60761619D02*
X146311905Y-60714000D01*
X146407143Y-60666381D01*
X146645239Y-60666381D01*
X146740477Y-60714000D01*
X146788096Y-60761619D01*
X146835715Y-60856857D01*
X146835715Y-60952095D01*
X146788096Y-61094952D01*
X146216667Y-61666381D01*
X146835715Y-61666381D01*
X139961334Y-61539381D02*
X139628000Y-61063190D01*
X139389905Y-61539381D02*
X139389905Y-60539381D01*
X139770858Y-60539381D01*
X139866096Y-60587000D01*
X139913715Y-60634619D01*
X139961334Y-60729857D01*
X139961334Y-60872714D01*
X139913715Y-60967952D01*
X139866096Y-61015571D01*
X139770858Y-61063190D01*
X139389905Y-61063190D01*
X140294667Y-60539381D02*
X140913715Y-60539381D01*
X140580381Y-60920333D01*
X140723239Y-60920333D01*
X140818477Y-60967952D01*
X140866096Y-61015571D01*
X140913715Y-61110810D01*
X140913715Y-61348905D01*
X140866096Y-61444143D01*
X140818477Y-61491762D01*
X140723239Y-61539381D01*
X140437524Y-61539381D01*
X140342286Y-61491762D01*
X140294667Y-61444143D01*
X149439334Y-88336381D02*
X149106000Y-87860190D01*
X148867905Y-88336381D02*
X148867905Y-87336381D01*
X149248858Y-87336381D01*
X149344096Y-87384000D01*
X149391715Y-87431619D01*
X149439334Y-87526857D01*
X149439334Y-87669714D01*
X149391715Y-87764952D01*
X149344096Y-87812571D01*
X149248858Y-87860190D01*
X148867905Y-87860190D01*
X150296477Y-87669714D02*
X150296477Y-88336381D01*
X150058381Y-87288762D02*
X149820286Y-88003048D01*
X150439334Y-88003048D01*
X155535334Y-102814381D02*
X155202000Y-102338190D01*
X154963905Y-102814381D02*
X154963905Y-101814381D01*
X155344858Y-101814381D01*
X155440096Y-101862000D01*
X155487715Y-101909619D01*
X155535334Y-102004857D01*
X155535334Y-102147714D01*
X155487715Y-102242952D01*
X155440096Y-102290571D01*
X155344858Y-102338190D01*
X154963905Y-102338190D01*
X156440096Y-101814381D02*
X155963905Y-101814381D01*
X155916286Y-102290571D01*
X155963905Y-102242952D01*
X156059143Y-102195333D01*
X156297239Y-102195333D01*
X156392477Y-102242952D01*
X156440096Y-102290571D01*
X156487715Y-102385810D01*
X156487715Y-102623905D01*
X156440096Y-102719143D01*
X156392477Y-102766762D01*
X156297239Y-102814381D01*
X156059143Y-102814381D01*
X155963905Y-102766762D01*
X155916286Y-102719143D01*
X134500334Y-61539381D02*
X134167000Y-61063190D01*
X133928905Y-61539381D02*
X133928905Y-60539381D01*
X134309858Y-60539381D01*
X134405096Y-60587000D01*
X134452715Y-60634619D01*
X134500334Y-60729857D01*
X134500334Y-60872714D01*
X134452715Y-60967952D01*
X134405096Y-61015571D01*
X134309858Y-61063190D01*
X133928905Y-61063190D01*
X135357477Y-60539381D02*
X135167000Y-60539381D01*
X135071762Y-60587000D01*
X135024143Y-60634619D01*
X134928905Y-60777476D01*
X134881286Y-60967952D01*
X134881286Y-61348905D01*
X134928905Y-61444143D01*
X134976524Y-61491762D01*
X135071762Y-61539381D01*
X135262239Y-61539381D01*
X135357477Y-61491762D01*
X135405096Y-61444143D01*
X135452715Y-61348905D01*
X135452715Y-61110810D01*
X135405096Y-61015571D01*
X135357477Y-60967952D01*
X135262239Y-60920333D01*
X135071762Y-60920333D01*
X134976524Y-60967952D01*
X134928905Y-61015571D01*
X134881286Y-61110810D01*
X141692334Y-88463381D02*
X141359000Y-87987190D01*
X141120905Y-88463381D02*
X141120905Y-87463381D01*
X141501858Y-87463381D01*
X141597096Y-87511000D01*
X141644715Y-87558619D01*
X141692334Y-87653857D01*
X141692334Y-87796714D01*
X141644715Y-87891952D01*
X141597096Y-87939571D01*
X141501858Y-87987190D01*
X141120905Y-87987190D01*
X142025667Y-87463381D02*
X142692334Y-87463381D01*
X142263762Y-88463381D01*
X126630134Y-101493581D02*
X126296800Y-101017390D01*
X126058705Y-101493581D02*
X126058705Y-100493581D01*
X126439658Y-100493581D01*
X126534896Y-100541200D01*
X126582515Y-100588819D01*
X126630134Y-100684057D01*
X126630134Y-100826914D01*
X126582515Y-100922152D01*
X126534896Y-100969771D01*
X126439658Y-101017390D01*
X126058705Y-101017390D01*
X127201562Y-100922152D02*
X127106324Y-100874533D01*
X127058705Y-100826914D01*
X127011086Y-100731676D01*
X127011086Y-100684057D01*
X127058705Y-100588819D01*
X127106324Y-100541200D01*
X127201562Y-100493581D01*
X127392039Y-100493581D01*
X127487277Y-100541200D01*
X127534896Y-100588819D01*
X127582515Y-100684057D01*
X127582515Y-100731676D01*
X127534896Y-100826914D01*
X127487277Y-100874533D01*
X127392039Y-100922152D01*
X127201562Y-100922152D01*
X127106324Y-100969771D01*
X127058705Y-101017390D01*
X127011086Y-101112629D01*
X127011086Y-101303105D01*
X127058705Y-101398343D01*
X127106324Y-101445962D01*
X127201562Y-101493581D01*
X127392039Y-101493581D01*
X127487277Y-101445962D01*
X127534896Y-101398343D01*
X127582515Y-101303105D01*
X127582515Y-101112629D01*
X127534896Y-101017390D01*
X127487277Y-100969771D01*
X127392039Y-100922152D01*
X141946334Y-98242381D02*
X141613000Y-97766190D01*
X141374905Y-98242381D02*
X141374905Y-97242381D01*
X141755858Y-97242381D01*
X141851096Y-97290000D01*
X141898715Y-97337619D01*
X141946334Y-97432857D01*
X141946334Y-97575714D01*
X141898715Y-97670952D01*
X141851096Y-97718571D01*
X141755858Y-97766190D01*
X141374905Y-97766190D01*
X142422524Y-98242381D02*
X142613000Y-98242381D01*
X142708239Y-98194762D01*
X142755858Y-98147143D01*
X142851096Y-98004286D01*
X142898715Y-97813810D01*
X142898715Y-97432857D01*
X142851096Y-97337619D01*
X142803477Y-97290000D01*
X142708239Y-97242381D01*
X142517762Y-97242381D01*
X142422524Y-97290000D01*
X142374905Y-97337619D01*
X142327286Y-97432857D01*
X142327286Y-97670952D01*
X142374905Y-97766190D01*
X142422524Y-97813810D01*
X142517762Y-97861429D01*
X142708239Y-97861429D01*
X142803477Y-97813810D01*
X142851096Y-97766190D01*
X142898715Y-97670952D01*
X121912143Y-119625381D02*
X121578809Y-119149190D01*
X121340714Y-119625381D02*
X121340714Y-118625381D01*
X121721667Y-118625381D01*
X121816905Y-118673000D01*
X121864524Y-118720619D01*
X121912143Y-118815857D01*
X121912143Y-118958714D01*
X121864524Y-119053952D01*
X121816905Y-119101571D01*
X121721667Y-119149190D01*
X121340714Y-119149190D01*
X122864524Y-119625381D02*
X122293095Y-119625381D01*
X122578809Y-119625381D02*
X122578809Y-118625381D01*
X122483571Y-118768238D01*
X122388333Y-118863476D01*
X122293095Y-118911095D01*
X123483571Y-118625381D02*
X123578810Y-118625381D01*
X123674048Y-118673000D01*
X123721667Y-118720619D01*
X123769286Y-118815857D01*
X123816905Y-119006333D01*
X123816905Y-119244429D01*
X123769286Y-119434905D01*
X123721667Y-119530143D01*
X123674048Y-119577762D01*
X123578810Y-119625381D01*
X123483571Y-119625381D01*
X123388333Y-119577762D01*
X123340714Y-119530143D01*
X123293095Y-119434905D01*
X123245476Y-119244429D01*
X123245476Y-119006333D01*
X123293095Y-118815857D01*
X123340714Y-118720619D01*
X123388333Y-118673000D01*
X123483571Y-118625381D01*
X126357143Y-119625381D02*
X126023809Y-119149190D01*
X125785714Y-119625381D02*
X125785714Y-118625381D01*
X126166667Y-118625381D01*
X126261905Y-118673000D01*
X126309524Y-118720619D01*
X126357143Y-118815857D01*
X126357143Y-118958714D01*
X126309524Y-119053952D01*
X126261905Y-119101571D01*
X126166667Y-119149190D01*
X125785714Y-119149190D01*
X127309524Y-119625381D02*
X126738095Y-119625381D01*
X127023809Y-119625381D02*
X127023809Y-118625381D01*
X126928571Y-118768238D01*
X126833333Y-118863476D01*
X126738095Y-118911095D01*
X128261905Y-119625381D02*
X127690476Y-119625381D01*
X127976190Y-119625381D02*
X127976190Y-118625381D01*
X127880952Y-118768238D01*
X127785714Y-118863476D01*
X127690476Y-118911095D01*
X127627143Y-66492381D02*
X127293809Y-66016190D01*
X127055714Y-66492381D02*
X127055714Y-65492381D01*
X127436667Y-65492381D01*
X127531905Y-65540000D01*
X127579524Y-65587619D01*
X127627143Y-65682857D01*
X127627143Y-65825714D01*
X127579524Y-65920952D01*
X127531905Y-65968571D01*
X127436667Y-66016190D01*
X127055714Y-66016190D01*
X128579524Y-66492381D02*
X128008095Y-66492381D01*
X128293809Y-66492381D02*
X128293809Y-65492381D01*
X128198571Y-65635238D01*
X128103333Y-65730476D01*
X128008095Y-65778095D01*
X128960476Y-65587619D02*
X129008095Y-65540000D01*
X129103333Y-65492381D01*
X129341429Y-65492381D01*
X129436667Y-65540000D01*
X129484286Y-65587619D01*
X129531905Y-65682857D01*
X129531905Y-65778095D01*
X129484286Y-65920952D01*
X128912857Y-66492381D01*
X129531905Y-66492381D01*
X128516143Y-72715381D02*
X128182809Y-72239190D01*
X127944714Y-72715381D02*
X127944714Y-71715381D01*
X128325667Y-71715381D01*
X128420905Y-71763000D01*
X128468524Y-71810619D01*
X128516143Y-71905857D01*
X128516143Y-72048714D01*
X128468524Y-72143952D01*
X128420905Y-72191571D01*
X128325667Y-72239190D01*
X127944714Y-72239190D01*
X129468524Y-72715381D02*
X128897095Y-72715381D01*
X129182809Y-72715381D02*
X129182809Y-71715381D01*
X129087571Y-71858238D01*
X128992333Y-71953476D01*
X128897095Y-72001095D01*
X129801857Y-71715381D02*
X130420905Y-71715381D01*
X130087571Y-72096333D01*
X130230429Y-72096333D01*
X130325667Y-72143952D01*
X130373286Y-72191571D01*
X130420905Y-72286810D01*
X130420905Y-72524905D01*
X130373286Y-72620143D01*
X130325667Y-72667762D01*
X130230429Y-72715381D01*
X129944714Y-72715381D01*
X129849476Y-72667762D01*
X129801857Y-72620143D01*
X122445543Y-107386381D02*
X122112209Y-106910190D01*
X121874114Y-107386381D02*
X121874114Y-106386381D01*
X122255067Y-106386381D01*
X122350305Y-106434000D01*
X122397924Y-106481619D01*
X122445543Y-106576857D01*
X122445543Y-106719714D01*
X122397924Y-106814952D01*
X122350305Y-106862571D01*
X122255067Y-106910190D01*
X121874114Y-106910190D01*
X123397924Y-107386381D02*
X122826495Y-107386381D01*
X123112209Y-107386381D02*
X123112209Y-106386381D01*
X123016971Y-106529238D01*
X122921733Y-106624476D01*
X122826495Y-106672095D01*
X124255067Y-106719714D02*
X124255067Y-107386381D01*
X124016971Y-106338762D02*
X123778876Y-107053048D01*
X124397924Y-107053048D01*
X121277143Y-85415381D02*
X120943809Y-84939190D01*
X120705714Y-85415381D02*
X120705714Y-84415381D01*
X121086667Y-84415381D01*
X121181905Y-84463000D01*
X121229524Y-84510619D01*
X121277143Y-84605857D01*
X121277143Y-84748714D01*
X121229524Y-84843952D01*
X121181905Y-84891571D01*
X121086667Y-84939190D01*
X120705714Y-84939190D01*
X122229524Y-85415381D02*
X121658095Y-85415381D01*
X121943809Y-85415381D02*
X121943809Y-84415381D01*
X121848571Y-84558238D01*
X121753333Y-84653476D01*
X121658095Y-84701095D01*
X123134286Y-84415381D02*
X122658095Y-84415381D01*
X122610476Y-84891571D01*
X122658095Y-84843952D01*
X122753333Y-84796333D01*
X122991429Y-84796333D01*
X123086667Y-84843952D01*
X123134286Y-84891571D01*
X123181905Y-84986810D01*
X123181905Y-85224905D01*
X123134286Y-85320143D01*
X123086667Y-85367762D01*
X122991429Y-85415381D01*
X122753333Y-85415381D01*
X122658095Y-85367762D01*
X122610476Y-85320143D01*
X124325143Y-79446381D02*
X123991809Y-78970190D01*
X123753714Y-79446381D02*
X123753714Y-78446381D01*
X124134667Y-78446381D01*
X124229905Y-78494000D01*
X124277524Y-78541619D01*
X124325143Y-78636857D01*
X124325143Y-78779714D01*
X124277524Y-78874952D01*
X124229905Y-78922571D01*
X124134667Y-78970190D01*
X123753714Y-78970190D01*
X125277524Y-79446381D02*
X124706095Y-79446381D01*
X124991809Y-79446381D02*
X124991809Y-78446381D01*
X124896571Y-78589238D01*
X124801333Y-78684476D01*
X124706095Y-78732095D01*
X126134667Y-78446381D02*
X125944190Y-78446381D01*
X125848952Y-78494000D01*
X125801333Y-78541619D01*
X125706095Y-78684476D01*
X125658476Y-78874952D01*
X125658476Y-79255905D01*
X125706095Y-79351143D01*
X125753714Y-79398762D01*
X125848952Y-79446381D01*
X126039429Y-79446381D01*
X126134667Y-79398762D01*
X126182286Y-79351143D01*
X126229905Y-79255905D01*
X126229905Y-79017810D01*
X126182286Y-78922571D01*
X126134667Y-78874952D01*
X126039429Y-78827333D01*
X125848952Y-78827333D01*
X125753714Y-78874952D01*
X125706095Y-78922571D01*
X125658476Y-79017810D01*
X128490743Y-108757981D02*
X128157409Y-108281790D01*
X127919314Y-108757981D02*
X127919314Y-107757981D01*
X128300267Y-107757981D01*
X128395505Y-107805600D01*
X128443124Y-107853219D01*
X128490743Y-107948457D01*
X128490743Y-108091314D01*
X128443124Y-108186552D01*
X128395505Y-108234171D01*
X128300267Y-108281790D01*
X127919314Y-108281790D01*
X129443124Y-108757981D02*
X128871695Y-108757981D01*
X129157409Y-108757981D02*
X129157409Y-107757981D01*
X129062171Y-107900838D01*
X128966933Y-107996076D01*
X128871695Y-108043695D01*
X129776457Y-107757981D02*
X130443124Y-107757981D01*
X130014552Y-108757981D01*
X133850143Y-71191381D02*
X133516809Y-70715190D01*
X133278714Y-71191381D02*
X133278714Y-70191381D01*
X133659667Y-70191381D01*
X133754905Y-70239000D01*
X133802524Y-70286619D01*
X133850143Y-70381857D01*
X133850143Y-70524714D01*
X133802524Y-70619952D01*
X133754905Y-70667571D01*
X133659667Y-70715190D01*
X133278714Y-70715190D01*
X134802524Y-71191381D02*
X134231095Y-71191381D01*
X134516809Y-71191381D02*
X134516809Y-70191381D01*
X134421571Y-70334238D01*
X134326333Y-70429476D01*
X134231095Y-70477095D01*
X135373952Y-70619952D02*
X135278714Y-70572333D01*
X135231095Y-70524714D01*
X135183476Y-70429476D01*
X135183476Y-70381857D01*
X135231095Y-70286619D01*
X135278714Y-70239000D01*
X135373952Y-70191381D01*
X135564429Y-70191381D01*
X135659667Y-70239000D01*
X135707286Y-70286619D01*
X135754905Y-70381857D01*
X135754905Y-70429476D01*
X135707286Y-70524714D01*
X135659667Y-70572333D01*
X135564429Y-70619952D01*
X135373952Y-70619952D01*
X135278714Y-70667571D01*
X135231095Y-70715190D01*
X135183476Y-70810429D01*
X135183476Y-71000905D01*
X135231095Y-71096143D01*
X135278714Y-71143762D01*
X135373952Y-71191381D01*
X135564429Y-71191381D01*
X135659667Y-71143762D01*
X135707286Y-71096143D01*
X135754905Y-71000905D01*
X135754905Y-70810429D01*
X135707286Y-70715190D01*
X135659667Y-70667571D01*
X135564429Y-70619952D01*
X121967667Y-109561381D02*
X121967667Y-110275667D01*
X121920047Y-110418524D01*
X121824809Y-110513762D01*
X121681952Y-110561381D01*
X121586714Y-110561381D01*
X122348619Y-109561381D02*
X122967667Y-109561381D01*
X122634333Y-109942333D01*
X122777191Y-109942333D01*
X122872429Y-109989952D01*
X122920048Y-110037571D01*
X122967667Y-110132810D01*
X122967667Y-110370905D01*
X122920048Y-110466143D01*
X122872429Y-110513762D01*
X122777191Y-110561381D01*
X122491476Y-110561381D01*
X122396238Y-110513762D01*
X122348619Y-110466143D01*
X120142095Y-91800762D02*
X120284952Y-91848381D01*
X120523048Y-91848381D01*
X120618286Y-91800762D01*
X120665905Y-91753143D01*
X120713524Y-91657905D01*
X120713524Y-91562667D01*
X120665905Y-91467429D01*
X120618286Y-91419810D01*
X120523048Y-91372190D01*
X120332571Y-91324571D01*
X120237333Y-91276952D01*
X120189714Y-91229333D01*
X120142095Y-91134095D01*
X120142095Y-91038857D01*
X120189714Y-90943619D01*
X120237333Y-90896000D01*
X120332571Y-90848381D01*
X120570667Y-90848381D01*
X120713524Y-90896000D01*
X121665905Y-91848381D02*
X121094476Y-91848381D01*
X121380190Y-91848381D02*
X121380190Y-90848381D01*
X121284952Y-90991238D01*
X121189714Y-91086476D01*
X121094476Y-91134095D01*
%LPC*%
D16*
X141310000Y-78566000D03*
X140660000Y-78566000D03*
X140010000Y-78566000D03*
X139360000Y-78566000D03*
D17*
X139360000Y-81546000D03*
X140010000Y-81546000D03*
X140660000Y-81546000D03*
X141310000Y-81546000D03*
D18*
X140335000Y-80391000D03*
D17*
X131740000Y-81555000D03*
X132390000Y-81555000D03*
X133040000Y-81555000D03*
X133690000Y-81555000D03*
D18*
X132715000Y-80400000D03*
D16*
X131740000Y-78575000D03*
X133690000Y-78575000D03*
X132390000Y-78575000D03*
X133040000Y-78575000D03*
D19*
X132051000Y-119169000D03*
X132051000Y-117899000D03*
X132051000Y-116629000D03*
X132051000Y-115359000D03*
X132051000Y-114089000D03*
X132051000Y-112819000D03*
X132051000Y-111549000D03*
X132051000Y-110279000D03*
X132051000Y-109009000D03*
X132051000Y-107739000D03*
X132051000Y-106469000D03*
X132051000Y-105199000D03*
X132051000Y-103929000D03*
X132051000Y-102659000D03*
D20*
X135336000Y-101169000D03*
X136606000Y-101169000D03*
X137876000Y-101169000D03*
X139146000Y-101169000D03*
X140416000Y-101169000D03*
X141686000Y-101169000D03*
X142956000Y-101169000D03*
X144226000Y-101169000D03*
X145496000Y-101169000D03*
X146766000Y-101169000D03*
D19*
X150051000Y-102659000D03*
X150051000Y-103929000D03*
X150051000Y-105199000D03*
X150051000Y-106469000D03*
X150051000Y-107739000D03*
X150051000Y-109009000D03*
X150051000Y-110279000D03*
X150051000Y-111549000D03*
X150051000Y-112819000D03*
X150051000Y-114089000D03*
X150051000Y-115359000D03*
X150051000Y-116629000D03*
X150051000Y-117899000D03*
X150051000Y-119169000D03*
D21*
X141351000Y-111469000D03*
D22*
X162560000Y-113030000D03*
D23*
X162560000Y-110490000D03*
X162560000Y-107950000D03*
X162560000Y-105410000D03*
X162560000Y-102870000D03*
X162560000Y-100330000D03*
X162560000Y-97790000D03*
X162560000Y-95250000D03*
D24*
X121920000Y-76488000D03*
X121920000Y-74388000D03*
D25*
X123825000Y-67945000D03*
D26*
X121825000Y-67945000D03*
D10*
G36*
X131218000Y-92745000D02*
X130366000Y-92245000D01*
X130366000Y-91143000D01*
X131218000Y-90643000D01*
X131218000Y-92745000D01*
X131218000Y-92745000D01*
G37*
D27*
X129222000Y-93194000D03*
X129222000Y-90194000D03*
X133922000Y-93194000D03*
D28*
X133922000Y-91694000D03*
D27*
X133922000Y-90194000D03*
D28*
X129222000Y-91694000D03*
D10*
G36*
X131926000Y-90643000D02*
X132778000Y-91143000D01*
X132778000Y-92245000D01*
X131926000Y-92745000D01*
X131926000Y-90643000D01*
X131926000Y-90643000D01*
G37*
D29*
X131572000Y-91694000D03*
D30*
X144272000Y-83740000D03*
X144272000Y-86440000D03*
D31*
X160309000Y-68461000D03*
X159509000Y-68461000D03*
X158709000Y-68461000D03*
X157909000Y-68461000D03*
X157109000Y-68461000D03*
D32*
X154259000Y-68336000D03*
X154259000Y-62886000D03*
X163159000Y-62886000D03*
X163159000Y-68336000D03*
D33*
X160909000Y-65786000D03*
X156509000Y-65786000D03*
D34*
X144780000Y-73680000D03*
X144780000Y-76180000D03*
D35*
X158496000Y-113570000D03*
X158496000Y-117570000D03*
D34*
X154305000Y-114300000D03*
X154305000Y-116800000D03*
D36*
X161310000Y-80010000D03*
X163810000Y-80010000D03*
D34*
X157734000Y-101052000D03*
X157734000Y-98552000D03*
X135890000Y-72410000D03*
X135890000Y-74910000D03*
D36*
X130850000Y-86360000D03*
X133350000Y-86360000D03*
X161290000Y-82550000D03*
X163790000Y-82550000D03*
X120650000Y-87884000D03*
X123150000Y-87884000D03*
D34*
X128270000Y-83165000D03*
X128270000Y-80665000D03*
D36*
X155555000Y-76200000D03*
X153055000Y-76200000D03*
X160675000Y-76200000D03*
X163175000Y-76200000D03*
D30*
X150276560Y-66706760D03*
X150276560Y-69406760D03*
X146050000Y-69295000D03*
X146050000Y-66595000D03*
D37*
X138958000Y-68900000D03*
X138958000Y-69850000D03*
X138958000Y-70800000D03*
X141458000Y-70800000D03*
X141458000Y-68900000D03*
D38*
X126950000Y-75430000D03*
D39*
X127000000Y-74930000D03*
X127000000Y-74430000D03*
X125850000Y-75430000D03*
X125850000Y-74930000D03*
X125850000Y-74430000D03*
D40*
X156070000Y-82780000D03*
X156070000Y-82280000D03*
X156070000Y-81780000D03*
X156070000Y-81280000D03*
X156070000Y-80780000D03*
X156070000Y-80280000D03*
X156070000Y-79780000D03*
D41*
X155170000Y-78880000D03*
X154670000Y-78880000D03*
X154170000Y-78880000D03*
X153670000Y-78880000D03*
X153170000Y-78880000D03*
X152670000Y-78880000D03*
X152170000Y-78880000D03*
D40*
X151270000Y-79780000D03*
X151270000Y-80280000D03*
X151270000Y-80780000D03*
X151270000Y-81280000D03*
X151270000Y-81780000D03*
X151270000Y-82280000D03*
X151270000Y-82780000D03*
D41*
X152170000Y-83680000D03*
X152670000Y-83680000D03*
X153170000Y-83680000D03*
X153670000Y-83680000D03*
X154170000Y-83680000D03*
X154670000Y-83680000D03*
X155170000Y-83680000D03*
D42*
X153670000Y-81280000D03*
D43*
X119937000Y-103748000D03*
X119937000Y-104648000D03*
X119937000Y-105548000D03*
X122887000Y-105548000D03*
X122887000Y-104648000D03*
X122887000Y-103748000D03*
D44*
X143830000Y-92170000D03*
X145730000Y-92170000D03*
X144780000Y-90170000D03*
X153035000Y-92440000D03*
X154935000Y-92440000D03*
X153985000Y-90440000D03*
D45*
X147400000Y-62865000D03*
X144700000Y-62865000D03*
X141478000Y-62865000D03*
X138778000Y-62865000D03*
D30*
X147955000Y-83740000D03*
X147955000Y-86440000D03*
X153924000Y-98552000D03*
X153924000Y-101252000D03*
D45*
X136017000Y-62865000D03*
X133317000Y-62865000D03*
D30*
X140462000Y-83820000D03*
X140462000Y-86520000D03*
D45*
X128143000Y-102616000D03*
X125443000Y-102616000D03*
X137414000Y-97790000D03*
X140114000Y-97790000D03*
D30*
X122555000Y-114855000D03*
X122555000Y-117555000D03*
X127000000Y-117555000D03*
X127000000Y-114855000D03*
D45*
X132080000Y-67310000D03*
X129380000Y-67310000D03*
D30*
X131953000Y-72517000D03*
X131953000Y-75217000D03*
D45*
X125443000Y-104648000D03*
X128143000Y-104648000D03*
D30*
X121920000Y-83265000D03*
X121920000Y-80565000D03*
X125095000Y-83265000D03*
X125095000Y-80565000D03*
D45*
X125443000Y-106680000D03*
X128143000Y-106680000D03*
X132334000Y-69469000D03*
X129634000Y-69469000D03*
D22*
X120015000Y-109855000D03*
D23*
X120015000Y-112395000D03*
X120015000Y-114935000D03*
X120015000Y-117475000D03*
D22*
X120904000Y-93726000D03*
D23*
X120904000Y-96266000D03*
X120904000Y-98806000D03*
M02*
