M48
;DRILL file {KiCad 4.0.6} date 08/10/17 19:57:38
;FORMAT={-:-/ absolute / metric / decimal}
FMAT,2
METRIC,TZ
T1C0.300
T2C0.400
T3C0.750
T4C0.950
T5C1.000
%
G90
G05
M71
T1
X123.952Y-98.425
X123.952Y-109.22
X125.984Y-86.868
X127.762Y-98.425
X128.016Y-109.22
X131.826Y-83.82
X131.826Y-98.425
X133.604Y-68.072
X135.636Y-78.74
X136.906Y-84.328
X137.922Y-99.06
X139.7Y-109.855
X139.7Y-113.03
X140.208Y-74.422
X140.208Y-93.726
X142.875Y-109.855
X142.875Y-113.03
X145.288Y-79.248
X148.336Y-68.58
X149.352Y-77.724
X152.654Y-80.264
X152.654Y-82.296
X154.686Y-80.264
X154.686Y-82.296
X155.956Y-98.552
X156.083Y-71.044
X157.734Y-85.09
X157.734Y-87.63
X157.734Y-90.17
X162.306Y-72.39
X163.322Y-85.09
X163.322Y-90.678
T2
X123.93Y-74.4
X126.746Y-76.962
X127.127Y-68.453
X128.27Y-76.835
X130.048Y-79.121
X131.953Y-70.993
X133.985Y-69.469
X134.239Y-115.316
X134.62Y-112.141
X135.509Y-65.786
X136.652Y-99.441
X137.414Y-69.85
X137.414Y-103.632
X138.811Y-64.516
X138.811Y-65.532
X140.462Y-82.296
X140.462Y-88.646
X142.367Y-65.278
X142.367Y-66.294
X143.129Y-97.028
X145.542Y-98.552
X145.796Y-93.98
X147.828Y-112.903
X147.828Y-116.586
X148.971Y-93.218
X149.225Y-83.693
X150.368Y-97.79
X151.13Y-85.09
X152.923Y-85.232
X153.67Y-86.233
X154.259Y-62.886
X154.259Y-68.336
X154.32Y-85.09
X154.94Y-93.98
X155.575Y-103.179
X155.956Y-112.776
X156.718Y-77.368
X157.277Y-80.035
X158.496Y-117.57
X158.709Y-79.703
X159.639Y-80.645
X160.68Y-77.368
X161.29Y-78.74
X161.29Y-78.74
X163.159Y-62.886
X163.159Y-68.336
T3
X121.825Y-67.945
X123.825Y-67.945
T4
X156.509Y-65.786
X160.909Y-65.786
T5
X120.015Y-109.855
X120.015Y-112.395
X120.015Y-114.935
X120.015Y-117.475
X120.904Y-93.726
X120.904Y-96.266
X120.904Y-98.806
X162.56Y-95.25
X162.56Y-97.79
X162.56Y-100.33
X162.56Y-102.87
X162.56Y-105.41
X162.56Y-107.95
X162.56Y-110.49
X162.56Y-113.03
T0
M30
