G04 #@! TF.FileFunction,Soldermask,Top*
%FSLAX46Y46*%
G04 Gerber Fmt 4.6, Leading zero omitted, Abs format (unit mm)*
G04 Created by KiCad (PCBNEW 4.0.6) date 08/10/17 19:56:54*
%MOMM*%
%LPD*%
G01*
G04 APERTURE LIST*
%ADD10C,0.100000*%
%ADD11R,0.532000X0.732000*%
%ADD12R,0.602000X0.512000*%
%ADD13R,2.552000X2.002000*%
%ADD14O,2.602000X1.002000*%
%ADD15O,1.002000X2.602000*%
%ADD16R,6.102000X6.102000*%
%ADD17R,1.802000X1.802000*%
%ADD18O,1.802000X1.802000*%
%ADD19R,1.002000X0.902000*%
%ADD20R,1.302000X1.802000*%
%ADD21O,1.302000X1.802000*%
%ADD22R,2.602000X0.802000*%
%ADD23R,2.602000X1.102000*%
%ADD24R,0.902000X2.102000*%
%ADD25R,1.402000X1.602000*%
%ADD26R,0.602000X2.352000*%
%ADD27R,2.102000X2.602000*%
%ADD28C,1.552000*%
%ADD29R,1.352000X1.602000*%
%ADD30R,1.602000X3.302000*%
%ADD31R,1.602000X1.352000*%
%ADD32R,1.502000X0.702000*%
%ADD33R,0.952000X0.382000*%
%ADD34R,0.852000X0.382000*%
%ADD35R,1.102000X0.402000*%
%ADD36R,0.402000X1.102000*%
%ADD37R,3.452000X3.452000*%
%ADD38R,1.702000X0.602000*%
%ADD39R,0.902000X1.002000*%
%ADD40R,1.602000X1.402000*%
G04 APERTURE END LIST*
D10*
X118110000Y-59690000D02*
G75*
G03X116840000Y-60960000I0J-1270000D01*
G01*
X116840000Y-119380000D02*
G75*
G03X118110000Y-120650000I1270000J0D01*
G01*
X165100000Y-120650000D02*
G75*
G03X166370000Y-119380000I0J1270000D01*
G01*
X166370000Y-60960000D02*
G75*
G03X165100000Y-59690000I-1270000J0D01*
G01*
X165100000Y-120650000D02*
X118110000Y-120650000D01*
X166370000Y-60960000D02*
X166370000Y-119380000D01*
X118110000Y-59690000D02*
X165100000Y-59690000D01*
X116840000Y-60960000D02*
X116840000Y-119380000D01*
D11*
X141310000Y-78566000D03*
X140660000Y-78566000D03*
X140010000Y-78566000D03*
X139360000Y-78566000D03*
D12*
X139360000Y-81546000D03*
X140010000Y-81546000D03*
X140660000Y-81546000D03*
X141310000Y-81546000D03*
D13*
X140335000Y-80391000D03*
D12*
X131740000Y-81555000D03*
X132390000Y-81555000D03*
X133040000Y-81555000D03*
X133690000Y-81555000D03*
D13*
X132715000Y-80400000D03*
D11*
X131740000Y-78575000D03*
X133690000Y-78575000D03*
X132390000Y-78575000D03*
X133040000Y-78575000D03*
D14*
X132051000Y-119169000D03*
X132051000Y-117899000D03*
X132051000Y-116629000D03*
X132051000Y-115359000D03*
X132051000Y-114089000D03*
X132051000Y-112819000D03*
X132051000Y-111549000D03*
X132051000Y-110279000D03*
X132051000Y-109009000D03*
X132051000Y-107739000D03*
X132051000Y-106469000D03*
X132051000Y-105199000D03*
X132051000Y-103929000D03*
X132051000Y-102659000D03*
D15*
X135336000Y-101169000D03*
X136606000Y-101169000D03*
X137876000Y-101169000D03*
X139146000Y-101169000D03*
X140416000Y-101169000D03*
X141686000Y-101169000D03*
X142956000Y-101169000D03*
X144226000Y-101169000D03*
X145496000Y-101169000D03*
X146766000Y-101169000D03*
D14*
X150051000Y-102659000D03*
X150051000Y-103929000D03*
X150051000Y-105199000D03*
X150051000Y-106469000D03*
X150051000Y-107739000D03*
X150051000Y-109009000D03*
X150051000Y-110279000D03*
X150051000Y-111549000D03*
X150051000Y-112819000D03*
X150051000Y-114089000D03*
X150051000Y-115359000D03*
X150051000Y-116629000D03*
X150051000Y-117899000D03*
X150051000Y-119169000D03*
D16*
X141351000Y-111469000D03*
D17*
X162560000Y-113030000D03*
D18*
X162560000Y-110490000D03*
X162560000Y-107950000D03*
X162560000Y-105410000D03*
X162560000Y-102870000D03*
X162560000Y-100330000D03*
X162560000Y-97790000D03*
X162560000Y-95250000D03*
D19*
X121920000Y-76488000D03*
X121920000Y-74388000D03*
D20*
X123825000Y-67945000D03*
D21*
X121825000Y-67945000D03*
D10*
G36*
X131218000Y-92745000D02*
X130366000Y-92245000D01*
X130366000Y-91143000D01*
X131218000Y-90643000D01*
X131218000Y-92745000D01*
X131218000Y-92745000D01*
G37*
D22*
X129222000Y-93194000D03*
X129222000Y-90194000D03*
X133922000Y-93194000D03*
D23*
X133922000Y-91694000D03*
D22*
X133922000Y-90194000D03*
D23*
X129222000Y-91694000D03*
D10*
G36*
X131926000Y-90643000D02*
X132778000Y-91143000D01*
X132778000Y-92245000D01*
X131926000Y-92745000D01*
X131926000Y-90643000D01*
X131926000Y-90643000D01*
G37*
D24*
X131572000Y-91694000D03*
D25*
X144272000Y-83740000D03*
X144272000Y-86440000D03*
D26*
X160309000Y-68461000D03*
X159509000Y-68461000D03*
X158709000Y-68461000D03*
X157909000Y-68461000D03*
X157109000Y-68461000D03*
D27*
X154259000Y-68336000D03*
X154259000Y-62886000D03*
X163159000Y-62886000D03*
X163159000Y-68336000D03*
D28*
X160909000Y-65786000D03*
X156509000Y-65786000D03*
D29*
X144780000Y-73680000D03*
X144780000Y-76180000D03*
D30*
X158496000Y-113570000D03*
X158496000Y-117570000D03*
D29*
X154305000Y-114300000D03*
X154305000Y-116800000D03*
D31*
X161310000Y-80010000D03*
X163810000Y-80010000D03*
D29*
X157734000Y-101052000D03*
X157734000Y-98552000D03*
X135890000Y-72410000D03*
X135890000Y-74910000D03*
D31*
X130850000Y-86360000D03*
X133350000Y-86360000D03*
X161290000Y-82550000D03*
X163790000Y-82550000D03*
X120650000Y-87884000D03*
X123150000Y-87884000D03*
D29*
X128270000Y-83165000D03*
X128270000Y-80665000D03*
D31*
X155555000Y-76200000D03*
X153055000Y-76200000D03*
X160675000Y-76200000D03*
X163175000Y-76200000D03*
D25*
X150276560Y-66706760D03*
X150276560Y-69406760D03*
X146050000Y-69295000D03*
X146050000Y-66595000D03*
D32*
X138958000Y-68900000D03*
X138958000Y-69850000D03*
X138958000Y-70800000D03*
X141458000Y-70800000D03*
X141458000Y-68900000D03*
D33*
X126950000Y-75430000D03*
D34*
X127000000Y-74930000D03*
X127000000Y-74430000D03*
X125850000Y-75430000D03*
X125850000Y-74930000D03*
X125850000Y-74430000D03*
D35*
X156070000Y-82780000D03*
X156070000Y-82280000D03*
X156070000Y-81780000D03*
X156070000Y-81280000D03*
X156070000Y-80780000D03*
X156070000Y-80280000D03*
X156070000Y-79780000D03*
D36*
X155170000Y-78880000D03*
X154670000Y-78880000D03*
X154170000Y-78880000D03*
X153670000Y-78880000D03*
X153170000Y-78880000D03*
X152670000Y-78880000D03*
X152170000Y-78880000D03*
D35*
X151270000Y-79780000D03*
X151270000Y-80280000D03*
X151270000Y-80780000D03*
X151270000Y-81280000D03*
X151270000Y-81780000D03*
X151270000Y-82280000D03*
X151270000Y-82780000D03*
D36*
X152170000Y-83680000D03*
X152670000Y-83680000D03*
X153170000Y-83680000D03*
X153670000Y-83680000D03*
X154170000Y-83680000D03*
X154670000Y-83680000D03*
X155170000Y-83680000D03*
D37*
X153670000Y-81280000D03*
D38*
X119937000Y-103748000D03*
X119937000Y-104648000D03*
X119937000Y-105548000D03*
X122887000Y-105548000D03*
X122887000Y-104648000D03*
X122887000Y-103748000D03*
D39*
X143830000Y-92170000D03*
X145730000Y-92170000D03*
X144780000Y-90170000D03*
X153035000Y-92440000D03*
X154935000Y-92440000D03*
X153985000Y-90440000D03*
D40*
X147400000Y-62865000D03*
X144700000Y-62865000D03*
X141478000Y-62865000D03*
X138778000Y-62865000D03*
D25*
X147955000Y-83740000D03*
X147955000Y-86440000D03*
X153924000Y-98552000D03*
X153924000Y-101252000D03*
D40*
X136017000Y-62865000D03*
X133317000Y-62865000D03*
D25*
X140462000Y-83820000D03*
X140462000Y-86520000D03*
D40*
X128143000Y-102616000D03*
X125443000Y-102616000D03*
X137414000Y-97790000D03*
X140114000Y-97790000D03*
D25*
X122555000Y-114855000D03*
X122555000Y-117555000D03*
X127000000Y-117555000D03*
X127000000Y-114855000D03*
D40*
X132080000Y-67310000D03*
X129380000Y-67310000D03*
D25*
X131953000Y-72517000D03*
X131953000Y-75217000D03*
D40*
X125443000Y-104648000D03*
X128143000Y-104648000D03*
D25*
X121920000Y-83265000D03*
X121920000Y-80565000D03*
X125095000Y-83265000D03*
X125095000Y-80565000D03*
D40*
X125443000Y-106680000D03*
X128143000Y-106680000D03*
X132334000Y-69469000D03*
X129634000Y-69469000D03*
D17*
X120015000Y-109855000D03*
D18*
X120015000Y-112395000D03*
X120015000Y-114935000D03*
X120015000Y-117475000D03*
D17*
X120904000Y-93726000D03*
D18*
X120904000Y-96266000D03*
X120904000Y-98806000D03*
M02*
